<svg width="44" height="43" viewBox="0 0 44 43" fill="none" xmlns="http://www.w3.org/2000/svg">
<g clip-path="url(#clip0_1_2643)">
<path d="M12.0039 30.4813C12.5013 27.8236 10.313 26.7977 10.2149 26.7605C10.1631 26.734 10.1141 26.7087 10.065 26.6808C10.0368 26.6648 10.0149 26.6399 10.0031 26.6102C9.99117 26.5805 9.98997 26.5478 9.99963 26.5173C10.1359 26.0443 10.0787 25.5871 9.78026 25.2975C9.4369 24.9626 8.86872 24.932 8.30736 25.1646C8.27811 25.1772 8.24537 25.18 8.2143 25.1726C8.18323 25.1651 8.15557 25.1478 8.13568 25.1234C4.46772 20.3993 12.335 12.0301 12.335 12.0301L12.2546 12.058L12.2982 12.0102C12.3101 11.9963 12.3248 11.985 12.3413 11.9768C12.3578 11.9686 12.3759 11.9638 12.3944 11.9627C12.4129 11.9616 12.4314 11.9642 12.4488 11.9703C12.4663 11.9764 12.4823 11.9859 12.4958 11.9982C12.5108 12.0097 12.5231 12.0242 12.532 12.0406C12.5408 12.057 12.5461 12.0751 12.5474 12.0936C12.5487 12.1121 12.5459 12.1307 12.5394 12.1482C12.5329 12.1656 12.5227 12.1815 12.5094 12.1949C11.9017 12.8593 8.60848 16.5801 7.72147 20.2438C7.71057 20.271 7.70913 20.3009 7.71739 20.3289C7.72565 20.357 7.74314 20.3816 7.76716 20.3989C7.79119 20.4163 7.82041 20.4255 7.85032 20.4251C7.88023 20.4247 7.90916 20.4147 7.93266 20.3966L8.1275 20.285L16.0779 15.7337C16.0992 15.7222 16.1166 15.7052 16.1283 15.6845L20.795 7.9266L25.4413 0.209913C25.4671 0.184713 25.4816 0.150536 25.4816 0.114899C25.4816 0.0792622 25.4671 0.0450848 25.4413 0.0198857C25.4285 0.00740831 25.4133 -0.00248927 25.3966 -0.00924196C25.3799 -0.0159946 25.362 -0.0194702 25.3439 -0.0194702C25.3073 -0.0194702 25.2723 -0.00531348 25.2464 0.0198857L9.37831 9.09733C9.35767 9.10948 9.34036 9.12636 9.3279 9.14649L0.0203948 24.6224C-0.00544297 24.6476 -0.0199585 24.6818 -0.0199585 24.7174C-0.0199585 24.753 -0.00544297 24.7872 0.0203948 24.8124C0.0462326 24.8376 0.0812762 24.8518 0.117816 24.8518C0.154357 24.8518 0.1894 24.8376 0.215238 24.8124L5.49917 21.7933C5.52131 21.7784 5.54745 21.7703 5.5743 21.77C5.60115 21.7696 5.62752 21.777 5.65008 21.7912C5.67264 21.8054 5.6904 21.8258 5.70113 21.8498C5.71185 21.8738 5.71506 21.9004 5.71036 21.9261C5.48418 23.6935 6.13138 25.0862 6.94891 26.2954C6.96213 26.3149 6.96985 26.3375 6.97129 26.3608C6.97272 26.3841 6.96782 26.4074 6.95708 26.4283C6.68457 26.9971 6.71046 27.5804 7.06745 27.9286C7.33996 28.1944 7.75826 28.2701 8.20108 28.1718C8.22932 28.165 8.259 28.1667 8.28623 28.1767C8.31345 28.1866 8.33697 28.2044 8.35369 28.2276C8.42999 28.3352 8.5022 28.4415 8.57169 28.5478C9.51866 29.9923 8.93821 31.8301 8.65208 32.5344C8.63859 32.5595 8.63368 32.5881 8.63806 32.6161C8.64243 32.6442 8.65587 32.6701 8.67641 32.6901C8.69695 32.7101 8.72351 32.7232 8.75222 32.7275C8.78094 32.7318 8.8103 32.727 8.83602 32.7138L10.264 32.1756C12.0067 31.5218 12.0039 30.4813 12.0039 30.4813Z" fill="url(#paint0_linear_1_2643)"/>
<path d="M18.3301 12.5975L16.3286 15.9197L16.2645 15.9569L12.9168 17.8771L8.50079 20.4019C8.48099 20.4117 8.46395 20.4261 8.45115 20.4438C8.43836 20.4615 8.43019 20.482 8.42737 20.5035C8.42455 20.525 8.42716 20.5468 8.43497 20.5671C8.44278 20.5874 8.45555 20.6055 8.47217 20.6199L10.9588 23.045C11.1473 23.2163 11.3934 23.3146 11.651 23.3214C13.1893 23.437 16.2768 21.6192 19.2226 18.7462C22.1684 15.8732 24.0324 12.862 23.9138 11.3617C23.9062 11.1106 23.8055 10.8708 23.6304 10.6866L21.1438 8.26279C21.1291 8.24657 21.1105 8.23412 21.0897 8.2265C21.0689 8.21889 21.0465 8.21634 21.0245 8.21909C21.0025 8.22185 20.9815 8.22981 20.9633 8.24229C20.9451 8.25477 20.9304 8.27138 20.9203 8.29069L18.3301 12.5975Z" fill="url(#paint1_linear_1_2643)"/>
<path d="M43.1134 12.5935C43.1134 12.401 43.0744 12.2104 42.9987 12.0326C42.9229 11.8548 42.8119 11.6934 42.672 11.5576C42.5321 11.4217 42.3661 11.3142 42.1834 11.2411C42.0008 11.1681 41.8052 11.1309 41.6078 11.1318H25.1074C25.1074 11.1836 25.1238 11.2354 25.1279 11.2913C25.3118 13.6141 22.5281 17.2166 20.0865 19.5966C17.6448 21.9766 13.9551 24.6915 11.5706 24.5134C11.5134 24.5134 11.4602 24.5001 11.4071 24.4935V26.0376C11.4072 26.0586 11.4121 26.0793 11.4216 26.0982C11.431 26.117 11.4447 26.1336 11.4616 26.1466C12.4821 26.9067 13.6022 28.4056 13.2138 30.6381C13.1311 31.2693 12.8274 31.8533 12.3541 32.2912C12.0935 32.543 11.7992 32.7593 11.4793 32.9344C11.4574 32.9461 11.4392 32.9634 11.4267 32.9845C11.4142 33.0056 11.4079 33.0296 11.4085 33.054V40.6936C11.4085 41.0531 11.5549 41.3978 11.8155 41.652C12.0762 41.9062 12.4297 42.049 12.7983 42.049H24.854C25.2191 42.0487 25.5691 41.907 25.8272 41.6551C26.0852 41.4032 26.2302 41.0616 26.2302 40.7056V25.93C26.2301 25.9119 26.2339 25.8941 26.2412 25.8775C26.2484 25.861 26.2591 25.846 26.2725 25.8336C26.2858 25.8211 26.3017 25.8115 26.319 25.8052C26.3363 25.799 26.3548 25.7962 26.3732 25.7971H38.1878C38.2063 25.7962 38.2247 25.799 38.2421 25.8052C38.2594 25.8115 38.2752 25.8211 38.2886 25.8336C38.302 25.846 38.3126 25.861 38.3199 25.8775C38.3272 25.8941 38.3309 25.9119 38.3309 25.93V29.102C38.3309 29.12 38.3272 29.1378 38.3199 29.1544C38.3126 29.171 38.302 29.1859 38.2886 29.1984C38.2752 29.2108 38.2594 29.2204 38.2421 29.2267C38.2247 29.233 38.2063 29.2357 38.1878 29.2348H29.9049C29.8865 29.2348 29.8682 29.2385 29.8512 29.2456C29.8342 29.2526 29.8188 29.263 29.8061 29.2761C29.7934 29.2891 29.7835 29.3046 29.777 29.3215C29.7706 29.3384 29.7678 29.3564 29.7687 29.3744V32.5437C29.7687 32.579 29.783 32.6128 29.8086 32.6377C29.8341 32.6626 29.8688 32.6766 29.9049 32.6766H35.4259C35.4621 32.6766 35.4967 32.6906 35.5223 32.7155C35.5478 32.7404 35.5622 32.7742 35.5622 32.8095V35.9788C35.5622 36.0141 35.5478 36.0479 35.5223 36.0728C35.4967 36.0977 35.4621 36.1117 35.4259 36.1117H29.9049C29.8688 36.1117 29.8341 36.1257 29.8086 36.1506C29.783 36.1755 29.7687 36.2093 29.7687 36.2446V39.4006C29.7687 39.4359 29.783 39.4697 29.8086 39.4946C29.8341 39.5195 29.8688 39.5335 29.9049 39.5335H38.1878C38.2069 39.5326 38.2259 39.5355 38.2437 39.5422C38.2615 39.5489 38.2777 39.5591 38.2911 39.5723C38.3046 39.5854 38.3151 39.6012 38.322 39.6185C38.3288 39.6359 38.3319 39.6545 38.3309 39.673V41.8829C38.3309 41.9182 38.3452 41.952 38.3708 41.9769C38.3963 42.0018 38.431 42.0158 38.4671 42.0158H41.725C41.9066 42.016 42.0865 41.9812 42.2544 41.9135C42.4223 41.8458 42.5748 41.7464 42.7033 41.6212C42.8317 41.4959 42.9336 41.3471 43.003 41.1834C43.0725 41.0197 43.1081 40.8442 43.1079 40.667L43.1134 12.5935Z" fill="url(#paint2_linear_1_2643)"/>
</g>
<defs>
<linearGradient id="paint0_linear_1_2643" x1="-0.0199585" y1="-0.0194702" x2="31.7302" y2="24.7047" gradientUnits="userSpaceOnUse">
<stop stop-color="#2F57EF"/>
<stop offset="0.9375" stop-color="#C464FD"/>
</linearGradient>
<linearGradient id="paint1_linear_1_2643" x1="8.42627" y1="8.21802" x2="23.5301" y2="23.706" gradientUnits="userSpaceOnUse">
<stop stop-color="#2F57EF"/>
<stop offset="0.9375" stop-color="#C464FD"/>
</linearGradient>
<linearGradient id="paint2_linear_1_2643" x1="11.4071" y1="11.1318" x2="42.3146" y2="42.828" gradientUnits="userSpaceOnUse">
<stop stop-color="#2F57EF"/>
<stop offset="0.9375" stop-color="#C464FD"/>
</linearGradient>
<clipPath id="clip0_1_2643">
<rect width="43.1135" height="42.0478" fill="white"/>
</clipPath>
</defs>
</svg>
