<svg width="162" height="47" viewBox="0 0 162 47" fill="none" xmlns="http://www.w3.org/2000/svg">
<g clip-path="url(#clip0_1_2694)">
<path d="M12.6754 32.1865C13.2006 29.3801 10.8899 28.2968 10.7863 28.2575C10.7317 28.2295 10.6799 28.2028 10.6281 28.1733C10.5982 28.1564 10.5752 28.1301 10.5626 28.0988C10.5501 28.0675 10.5488 28.0329 10.559 28.0007C10.7029 27.5012 10.6425 27.0185 10.3274 26.7126C9.96481 26.359 9.36485 26.3267 8.77208 26.5723C8.74119 26.5856 8.70663 26.5886 8.67381 26.5808C8.641 26.5729 8.6118 26.5546 8.59079 26.5288C4.71766 21.5404 13.025 12.7031 13.025 12.7031L12.9402 12.7326L12.9862 12.6821C12.9987 12.6674 13.0142 12.6554 13.0317 12.6468C13.0491 12.6382 13.0682 12.6331 13.0877 12.632C13.1072 12.6308 13.1268 12.6335 13.1452 12.6399C13.1636 12.6464 13.1805 12.6564 13.1948 12.6694C13.2106 12.6816 13.2236 12.6968 13.233 12.7142C13.2424 12.7315 13.2479 12.7506 13.2493 12.7702C13.2506 12.7897 13.2478 12.8094 13.2409 12.8278C13.234 12.8462 13.2232 12.863 13.2092 12.8771C12.5675 13.5787 9.09004 17.5077 8.15341 21.3763C8.1419 21.4049 8.14039 21.4365 8.14911 21.4661C8.15783 21.4957 8.1763 21.5217 8.20167 21.5401C8.22703 21.5584 8.25789 21.5681 8.28947 21.5677C8.32105 21.5673 8.35161 21.5567 8.37642 21.5376L8.58216 21.4198L16.9773 16.6138C16.9997 16.6018 17.0182 16.5838 17.0305 16.5619L21.9583 8.37005L26.8645 0.221706C26.8917 0.195098 26.9071 0.159008 26.9071 0.121378C26.9071 0.0837475 26.8917 0.0476583 26.8645 0.0210496C26.8509 0.00787426 26.8349 -0.00257698 26.8173 -0.0097074C26.7996 -0.0168378 26.7807 -0.0205078 26.7616 -0.0205078C26.723 -0.0205078 26.686 -0.00555917 26.6587 0.0210496L9.90294 9.60627C9.88114 9.6191 9.86287 9.63692 9.84971 9.65819L0.0215535 25.9998C-0.00572962 26.0264 -0.0210571 26.0625 -0.0210571 26.1001C-0.0210571 26.1377 -0.00572962 26.1738 0.0215535 26.2004C0.0488366 26.2271 0.0858405 26.242 0.124425 26.242C0.163009 26.242 0.200013 26.2271 0.227296 26.2004L5.8068 23.0124C5.83018 22.9967 5.85779 22.9882 5.88614 22.9878C5.91449 22.9874 5.94233 22.9952 5.96616 23.0102C5.98998 23.0252 6.00874 23.0467 6.02006 23.0721C6.03138 23.0974 6.03477 23.1255 6.02981 23.1527C5.79097 25.019 6.47438 26.4895 7.33764 27.7664C7.3516 27.787 7.35975 27.8108 7.36127 27.8354C7.36278 27.8601 7.35761 27.8847 7.34627 27.9067C7.05852 28.5073 7.08585 29.1233 7.46281 29.4909C7.75056 29.7716 8.19226 29.8516 8.65985 29.7477C8.68968 29.7406 8.72101 29.7424 8.74976 29.7529C8.77851 29.7634 8.80334 29.7821 8.821 29.8067C8.90157 29.9203 8.97782 30.0326 9.0512 30.1448C10.0511 31.6701 9.43822 33.6107 9.13608 34.3544C9.12184 34.3809 9.11665 34.4111 9.12127 34.4407C9.1259 34.4703 9.14009 34.4976 9.16177 34.5188C9.18346 34.5399 9.21151 34.5538 9.24183 34.5583C9.27215 34.5628 9.30315 34.5577 9.33032 34.5438L10.8381 33.9755C12.6783 33.2852 12.6754 32.1865 12.6754 32.1865Z" fill="white"/>
<path d="M19.3555 13.3017L17.242 16.8097L17.1744 16.849L13.6393 18.8766L8.97633 21.5427C8.95542 21.5531 8.93743 21.5683 8.92392 21.5869C8.91041 21.6056 8.90179 21.6273 8.89881 21.65C8.89583 21.6727 8.89858 21.6957 8.90683 21.7171C8.91507 21.7385 8.92856 21.7577 8.94612 21.7728L11.5718 24.3337C11.7709 24.5145 12.0308 24.6183 12.3027 24.6255C13.9271 24.7476 17.1873 22.828 20.2979 19.7943C23.4085 16.7606 25.3767 13.581 25.2516 11.9968C25.2435 11.7317 25.1372 11.4784 24.9523 11.2839L22.3266 8.72452C22.311 8.7074 22.2914 8.69425 22.2695 8.6862C22.2475 8.67816 22.2239 8.67548 22.2006 8.67838C22.1773 8.68129 22.1552 8.68969 22.136 8.70287C22.1168 8.71605 22.1012 8.7336 22.0906 8.75399L19.3555 13.3017Z" fill="white"/>
<path d="M45.5251 13.2979C45.5251 13.0946 45.4839 12.8933 45.404 12.7056C45.324 12.5179 45.2068 12.3474 45.059 12.204C44.9113 12.0606 44.736 11.947 44.5432 11.8699C44.3503 11.7927 44.1437 11.7535 43.9353 11.7544H26.5119C26.5119 11.8091 26.5292 11.8639 26.5335 11.9228C26.7277 14.3756 23.7884 18.1796 21.2101 20.6928C18.6319 23.2059 14.7357 26.0726 12.2179 25.8846C12.1574 25.8846 12.1013 25.8705 12.0452 25.8635V27.494C12.0453 27.5162 12.0506 27.5381 12.0605 27.558C12.0705 27.5779 12.0849 27.5954 12.1028 27.6091C13.1804 28.4117 14.3631 29.9945 13.953 32.3519C13.8657 33.0184 13.545 33.635 13.0452 34.0975C12.77 34.3633 12.4593 34.5918 12.1215 34.7766C12.0983 34.789 12.0791 34.8073 12.0659 34.8295C12.0527 34.8518 12.0461 34.8772 12.0467 34.9029V42.9699C12.0467 43.3495 12.2013 43.7135 12.4765 43.9819C12.7517 44.2503 13.125 44.4011 13.5142 44.4011H26.2443C26.6299 44.4008 26.9995 44.2511 27.2719 43.9851C27.5444 43.7191 27.6975 43.3585 27.6975 42.9825V27.3804C27.6974 27.3614 27.7014 27.3425 27.7091 27.325C27.7167 27.3075 27.728 27.2917 27.7421 27.2786C27.7563 27.2655 27.773 27.2553 27.7913 27.2487C27.8096 27.242 27.8291 27.2391 27.8485 27.2401H40.324C40.3435 27.2391 40.363 27.242 40.3813 27.2487C40.3996 27.2553 40.4163 27.2655 40.4304 27.2786C40.4446 27.2917 40.4558 27.3075 40.4635 27.325C40.4712 27.3425 40.4751 27.3614 40.4751 27.3804V30.7298C40.4751 30.7488 40.4712 30.7677 40.4635 30.7852C40.4558 30.8027 40.4446 30.8185 40.4304 30.8316C40.4163 30.8447 40.3996 30.8549 40.3813 30.8615C40.363 30.8682 40.3435 30.8711 40.324 30.8701H31.5778C31.5583 30.8701 31.539 30.874 31.521 30.8814C31.5031 30.8889 31.4869 30.8999 31.4734 30.9137C31.46 30.9275 31.4495 30.9438 31.4427 30.9616C31.436 30.9794 31.433 30.9985 31.4339 31.0175V34.3641C31.4339 34.4013 31.4491 34.437 31.4761 34.4633C31.503 34.4896 31.5396 34.5044 31.5778 34.5044H37.4076C37.4458 34.5044 37.4824 34.5192 37.5094 34.5455C37.5364 34.5718 37.5515 34.6075 37.5515 34.6447V37.9913C37.5515 38.0286 37.5364 38.0642 37.5094 38.0906C37.4824 38.1169 37.4458 38.1317 37.4076 38.1317H31.5778C31.5396 38.1317 31.503 38.1464 31.4761 38.1728C31.4491 38.1991 31.4339 38.2348 31.4339 38.272V41.6046C31.4339 41.6418 31.4491 41.6775 31.4761 41.7038C31.503 41.7301 31.5396 41.7449 31.5778 41.7449H40.324C40.3441 41.7439 40.3642 41.747 40.383 41.754C40.4018 41.7611 40.4189 41.7719 40.4331 41.7858C40.4474 41.7997 40.4585 41.8163 40.4657 41.8347C40.4729 41.853 40.4761 41.8726 40.4751 41.8922V44.2257C40.4751 44.2629 40.4902 44.2986 40.5172 44.325C40.5442 44.3513 40.5808 44.366 40.619 44.366H44.059C44.2509 44.3662 44.4408 44.3295 44.6181 44.258C44.7954 44.1865 44.9564 44.0816 45.0921 43.9493C45.2277 43.817 45.3353 43.6599 45.4086 43.4871C45.4819 43.3142 45.5196 43.1289 45.5194 42.9418L45.5251 13.2979Z" fill="white"/>
</g>
<path d="M56.7612 39.21V20.0574H68.6844V23.78H60.6727V27.7184H67.0658V31.441H60.6727V35.4874H68.6844V39.21H56.7612ZM76.7705 39.5067C74.9901 39.5067 73.4885 38.8143 72.2656 37.4296C71.0427 36.0448 70.4312 34.3904 70.4312 32.4661C70.4312 30.5419 71.0427 28.8874 72.2656 27.5026C73.4885 26.1179 74.9901 25.4255 76.7705 25.4255C77.6337 25.4255 78.407 25.6054 79.0903 25.965C79.7737 26.3247 80.2952 26.7473 80.6549 27.2329V18.9784H84.3505V39.21H80.6549V37.6993C80.2952 38.1849 79.7737 38.6075 79.0903 38.9672C78.407 39.3269 77.6337 39.5067 76.7705 39.5067ZM75.071 35.1097C75.7004 35.7931 76.5277 36.1348 77.5527 36.1348C78.5778 36.1348 79.3961 35.7931 80.0075 35.1097C80.6369 34.4263 80.9516 33.5451 80.9516 32.4661C80.9516 31.3871 80.6369 30.5059 80.0075 29.8225C79.3961 29.1391 78.5778 28.7975 77.5527 28.7975C76.5277 28.7975 75.7004 29.1391 75.071 29.8225C74.4596 30.5059 74.1538 31.3871 74.1538 32.4661C74.1538 33.5451 74.4596 34.4263 75.071 35.1097ZM92.8529 39.5067C91.2523 39.5067 90.0025 38.9672 89.1033 37.8882C88.2221 36.8092 87.7815 35.3615 87.7815 33.5451V25.7223H91.4771V32.9247C91.4771 35.0647 92.2414 36.1348 93.77 36.1348C94.6332 36.1348 95.3076 35.8111 95.7932 35.1637C96.2967 34.5162 96.5485 33.5631 96.5485 32.3043V25.7223H100.244V39.21H96.5485V37.6724C95.7212 38.8952 94.4894 39.5067 92.8529 39.5067ZM110.033 39.5067C108.001 39.5067 106.311 38.8323 104.962 37.4835C103.613 36.1168 102.939 34.4443 102.939 32.4661C102.939 30.4879 103.613 28.8244 104.962 27.4757C106.311 26.1089 108.001 25.4255 110.033 25.4255C111.832 25.4255 113.333 25.9291 114.538 26.9362C115.761 27.9432 116.561 29.256 116.939 30.8746H113.108C112.515 29.4718 111.49 28.7705 110.033 28.7705C109.044 28.7705 108.235 29.1122 107.605 29.7955C106.976 30.4609 106.661 31.3511 106.661 32.4661C106.661 33.5811 106.976 34.4803 107.605 35.1637C108.235 35.829 109.044 36.1617 110.033 36.1617C111.49 36.1617 112.515 35.4604 113.108 34.0577H116.939C116.561 35.6762 115.761 36.989 114.538 37.9961C113.333 39.0031 111.832 39.5067 110.033 39.5067ZM124.926 39.5067C123.145 39.5067 121.644 38.8143 120.421 37.4296C119.198 36.0448 118.587 34.3904 118.587 32.4661C118.587 30.5419 119.198 28.8874 120.421 27.5026C121.644 26.1179 123.145 25.4255 124.926 25.4255C125.789 25.4255 126.562 25.6054 127.246 25.965C127.929 26.3247 128.451 26.7473 128.81 27.2329V25.7223H132.506V39.21H128.81V37.6993C128.451 38.1849 127.929 38.6075 127.246 38.9672C126.562 39.3269 125.789 39.5067 124.926 39.5067ZM123.226 35.1097C123.856 35.7931 124.683 36.1348 125.708 36.1348C126.733 36.1348 127.551 35.7931 128.163 35.1097C128.792 34.4263 129.107 33.5451 129.107 32.4661C129.107 31.3871 128.792 30.5059 128.163 29.8225C127.551 29.1391 126.733 28.7975 125.708 28.7975C124.683 28.7975 123.856 29.1391 123.226 29.8225C122.615 30.5059 122.309 31.3871 122.309 32.4661C122.309 33.5451 122.615 34.4263 123.226 35.1097ZM142.627 39.3718C141.116 39.3718 139.875 38.9582 138.904 38.1309C137.951 37.2857 137.474 36.0718 137.474 34.4893V28.9593H134.75V25.7223H137.474V21.9727H141.17V25.7223H144.974V28.9593H141.17V33.7609C141.17 34.5882 141.35 35.1816 141.71 35.5413C142.069 35.883 142.654 36.0538 143.463 36.0538C144.038 36.0538 144.542 35.9729 144.974 35.8111V39.0751C144.326 39.2729 143.544 39.3718 142.627 39.3718ZM153.631 39.5067C151.562 39.5067 149.863 38.8413 148.532 37.5105C147.219 36.1797 146.563 34.4893 146.563 32.4391C146.563 30.425 147.228 28.7525 148.559 27.4217C149.908 26.0909 151.607 25.4255 153.658 25.4255C155.726 25.4255 157.443 26.1359 158.81 27.5566C160.177 28.9593 160.806 30.8836 160.698 33.3293H150.178C150.25 34.1746 150.6 34.8849 151.23 35.4604C151.859 36.0179 152.722 36.2966 153.819 36.2966C154.485 36.2966 155.069 36.1707 155.573 35.919C156.094 35.6492 156.463 35.2805 156.679 34.813H160.536C160.141 36.1977 159.313 37.3307 158.055 38.2119C156.796 39.0751 155.321 39.5067 153.631 39.5067ZM153.55 28.4198C152.704 28.4198 151.994 28.6446 151.419 29.0942C150.861 29.5258 150.492 30.1282 150.313 30.9015H156.652C156.454 30.0563 156.058 29.4359 155.465 29.0402C154.889 28.6266 154.251 28.4198 153.55 28.4198Z" fill="white"/>
<defs>
<clipPath id="clip0_1_2694">
<rect width="45.5252" height="44.3999" fill="white"/>
</clipPath>
</defs>
</svg>
