<svg width="239" height="41" viewBox="0 0 239 41" fill="none" xmlns="http://www.w3.org/2000/svg">
<path fill-rule="evenodd" clip-rule="evenodd" d="M4.91278 22.3081C7.86599 17.209 11.2638 11.0713 14.4393 6.245C16.5563 3.09743 18.9802 0.338055 21.4148 0.30658C25.49 0.30658 27.1201 3.69547 28.8772 6.67517C31.5763 11.2391 33.9262 15.6982 36.636 20.4825C32.1373 19.0032 29.7451 19.3284 24.9925 20.7973C23.1507 17.4189 21.0655 13.1697 17.583 19.5278L13.9735 27.3023C9.49607 29.1803 3.30386 28.8026 4.91278 22.3081Z" fill="url(#paint0_linear_88_3087)"/>
<path fill-rule="evenodd" clip-rule="evenodd" d="M4.9127 22.2033C2.07592 26.5155 0.678702 29.768 0.350567 32.4854C-0.0199069 36.0841 1.58901 39.4835 5.50545 40.0606C12.1422 41.0363 22.6531 33.2933 27.0776 30.6178C34.413 26.1483 40.8381 29.8834 43.0398 37.7838C46.2153 27.2919 37.2921 17.398 23.7328 23.0952L13.9734 27.2185C9.08318 29.2854 3.37788 28.425 4.9127 22.2033Z" fill="url(#paint1_linear_88_3087)"/>
<path d="M61.3092 25.6132H53.9258L52.7041 29.1455H48.7999L55.4662 10.5808H59.7953L66.4616 29.1455H62.5309L61.3092 25.6132ZM60.2999 22.6386L57.6175 14.8834L54.935 22.6386H60.2999ZM67.9972 21.7887C67.9972 20.266 68.3071 18.938 68.9268 17.8048C69.5465 16.654 70.4053 15.7687 71.503 15.1489C72.6008 14.5115 73.8579 14.1928 75.2744 14.1928C77.0981 14.1928 78.6031 14.6532 79.7894 15.5739C80.9934 16.4769 81.799 17.7517 82.2063 19.3984H78.1959C77.9834 18.761 77.6204 18.2652 77.107 17.9111C76.6112 17.5393 75.9915 17.3533 75.2478 17.3533C74.1855 17.3533 73.3444 17.7429 72.7247 18.5219C72.105 19.2833 71.7952 20.3722 71.7952 21.7887C71.7952 23.1875 72.105 24.2764 72.7247 25.0554C73.3444 25.8168 74.1855 26.1975 75.2478 26.1975C76.7528 26.1975 77.7355 25.5246 78.1959 24.179H82.2063C81.799 25.7725 80.9934 27.0385 79.7894 27.9769C78.5854 28.9153 77.0804 29.3845 75.2744 29.3845C73.8579 29.3845 72.6008 29.0747 71.503 28.455C70.4053 27.8176 69.5465 26.9323 68.9268 25.7991C68.3071 24.6482 67.9972 23.3114 67.9972 21.7887ZM83.9741 21.7356C83.9741 20.2483 84.2663 18.9292 84.8506 17.7783C85.4526 16.6274 86.2582 15.7421 87.2674 15.1224C88.2944 14.5027 89.4364 14.1928 90.6935 14.1928C91.7913 14.1928 92.7474 14.4141 93.5619 14.8568C94.3941 15.2994 95.058 15.8572 95.5538 16.53V14.4319H99.2986V29.1455H95.5538V26.9942C95.0757 27.6848 94.4118 28.2602 93.5619 28.7206C92.7297 29.1632 91.7647 29.3845 90.667 29.3845C89.4275 29.3845 88.2944 29.0658 87.2674 28.4284C86.2582 27.791 85.4526 26.8969 84.8506 25.746C84.2663 24.5774 83.9741 23.2406 83.9741 21.7356ZM95.5538 21.7887C95.5538 20.8857 95.3767 20.1155 95.0226 19.4781C94.6685 18.8229 94.1904 18.3272 93.5884 17.9908C92.9864 17.6366 92.3402 17.4596 91.6496 17.4596C90.9591 17.4596 90.3217 17.6278 89.7374 17.9642C89.1531 18.3006 88.675 18.7964 88.3032 19.4515C87.9491 20.0889 87.772 20.8503 87.772 21.7356C87.772 22.6209 87.9491 23.3999 88.3032 24.0728C88.675 24.7279 89.1531 25.2325 89.7374 25.5866C90.3394 25.9407 90.9768 26.1178 91.6496 26.1178C92.3402 26.1178 92.9864 25.9496 93.5884 25.6132C94.1904 25.259 94.6685 24.7633 95.0226 24.1259C95.3767 23.4707 95.5538 22.6917 95.5538 21.7887ZM101.974 21.7356C101.974 20.2483 102.266 18.9292 102.85 17.7783C103.452 16.6274 104.267 15.7421 105.294 15.1224C106.321 14.5027 107.463 14.1928 108.72 14.1928C109.676 14.1928 110.588 14.4053 111.456 14.8302C112.323 15.2375 113.014 15.7864 113.527 16.4769V9.49189H117.299V29.1455H113.527V26.9677C113.067 27.6936 112.421 28.2779 111.588 28.7206C110.756 29.1632 109.791 29.3845 108.693 29.3845C107.454 29.3845 106.321 29.0658 105.294 28.4284C104.267 27.791 103.452 26.8969 102.85 25.746C102.266 24.5774 101.974 23.2406 101.974 21.7356ZM113.554 21.7887C113.554 20.8857 113.377 20.1155 113.023 19.4781C112.668 18.8229 112.19 18.3272 111.588 17.9908C110.986 17.6366 110.34 17.4596 109.65 17.4596C108.959 17.4596 108.322 17.6278 107.737 17.9642C107.153 18.3006 106.675 18.7964 106.303 19.4515C105.949 20.0889 105.772 20.8503 105.772 21.7356C105.772 22.6209 105.949 23.3999 106.303 24.0728C106.675 24.7279 107.153 25.2325 107.737 25.5866C108.339 25.9407 108.977 26.1178 109.65 26.1178C110.34 26.1178 110.986 25.9496 111.588 25.6132C112.19 25.259 112.668 24.7633 113.023 24.1259C113.377 23.4707 113.554 22.6917 113.554 21.7887ZM134.608 21.47C134.608 22.0012 134.572 22.4792 134.502 22.9042H123.745C123.834 23.9665 124.206 24.7987 124.861 25.4007C125.516 26.0027 126.322 26.3037 127.278 26.3037C128.659 26.3037 129.641 25.7106 130.226 24.5243H134.236C133.811 25.9407 132.997 27.1093 131.793 28.03C130.589 28.933 129.11 29.3845 127.357 29.3845C125.941 29.3845 124.666 29.0747 123.533 28.455C122.417 27.8176 121.541 26.9234 120.903 25.7725C120.284 24.6216 119.974 23.2937 119.974 21.7887C119.974 20.266 120.284 18.9292 120.903 17.7783C121.523 16.6274 122.391 15.7421 123.506 15.1224C124.622 14.5027 125.905 14.1928 127.357 14.1928C128.756 14.1928 130.004 14.4938 131.102 15.0958C132.218 15.6978 133.076 16.5566 133.678 17.672C134.298 18.7698 134.608 20.0358 134.608 21.47ZM130.757 20.4076C130.739 19.4515 130.394 18.6901 129.721 18.1235C129.048 17.5393 128.225 17.2471 127.251 17.2471C126.33 17.2471 125.551 17.5304 124.914 18.097C124.294 18.6459 123.913 19.4161 123.772 20.4076H130.757ZM155.594 14.2194C157.4 14.2194 158.852 14.7771 159.95 15.8926C161.066 16.9904 161.623 18.5308 161.623 20.5139V29.1455H157.905V21.0185C157.905 19.8676 157.613 18.9911 157.029 18.3891C156.444 17.7694 155.648 17.4596 154.638 17.4596C153.629 17.4596 152.823 17.7694 152.221 18.3891C151.637 18.9911 151.345 19.8676 151.345 21.0185V29.1455H147.627V21.0185C147.627 19.8676 147.335 18.9911 146.75 18.3891C146.166 17.7694 145.369 17.4596 144.36 17.4596C143.333 17.4596 142.519 17.7694 141.917 18.3891C141.332 18.9911 141.04 19.8676 141.04 21.0185V29.1455H137.322V14.4319H141.04V16.2113C141.518 15.5916 142.129 15.1047 142.873 14.7506C143.634 14.3964 144.466 14.2194 145.369 14.2194C146.52 14.2194 147.547 14.4673 148.45 14.963C149.353 15.4411 150.052 16.1316 150.548 17.0346C151.026 16.1847 151.717 15.5031 152.62 14.9896C153.541 14.4761 154.532 14.2194 155.594 14.2194ZM179.228 14.4319L170.118 36.1039H166.161L169.348 28.7737L163.452 14.4319H167.622L171.42 24.7102L175.271 14.4319H179.228ZM191.279 26.1975H197.388V29.1455H187.561V10.6074H191.279V26.1975ZM219.962 10.6074V29.1455H216.244V17.0877L211.278 29.1455H208.462L203.469 17.0877V29.1455H199.751V10.6074H203.974L209.87 24.3915L215.766 10.6074H219.962ZM230.039 29.3314C228.747 29.3314 227.578 29.1101 226.533 28.6674C225.506 28.2248 224.692 27.5874 224.09 26.7552C223.488 25.923 223.178 24.9403 223.16 23.8072H227.144C227.197 24.5685 227.463 25.1705 227.941 25.6132C228.437 26.0558 229.11 26.2771 229.959 26.2771C230.827 26.2771 231.509 26.0735 232.004 25.6663C232.5 25.2413 232.748 24.6925 232.748 24.0196C232.748 23.4707 232.58 23.0192 232.244 22.6651C231.907 22.311 231.482 22.0366 230.969 21.8418C230.473 21.6293 229.782 21.3992 228.897 21.1513C227.693 20.7971 226.71 20.4519 225.949 20.1155C225.205 19.7613 224.559 19.239 224.01 18.5485C223.479 17.8403 223.213 16.9018 223.213 15.7332C223.213 14.6355 223.488 13.6794 224.037 12.8649C224.586 12.0504 225.356 11.4307 226.347 11.0058C227.339 10.5631 228.472 10.3418 229.747 10.3418C231.659 10.3418 233.208 10.811 234.395 11.7494C235.599 12.6701 236.263 13.9626 236.387 15.627H232.297C232.261 14.9896 231.987 14.4673 231.473 14.06C230.978 13.6351 230.314 13.4226 229.481 13.4226C228.755 13.4226 228.171 13.6085 227.729 13.9804C227.304 14.3522 227.091 14.8922 227.091 15.6004C227.091 16.0962 227.25 16.5123 227.569 16.8487C227.906 17.1674 228.313 17.433 228.791 17.6455C229.287 17.8403 229.977 18.0704 230.862 18.336C232.066 18.6901 233.049 19.0443 233.811 19.3984C234.572 19.7525 235.227 20.2837 235.776 20.9919C236.325 21.7002 236.599 22.6297 236.599 23.7806C236.599 24.7721 236.342 25.6928 235.829 26.5427C235.316 27.3926 234.563 28.0743 233.571 28.5878C232.58 29.0835 231.402 29.3314 230.039 29.3314Z" fill="white"/>
<defs>
<linearGradient id="paint0_linear_88_3087" x1="49.3062" y1="-26.857" x2="16.0443" y2="30.2658" gradientUnits="userSpaceOnUse">
<stop stop-color="#8D76FF"/>
<stop offset="0.64" stop-color="#754FFE"/>
<stop offset="0.74" stop-color="#6E4AF5"/>
<stop offset="0.9" stop-color="#593BDB"/>
<stop offset="1" stop-color="#4B31C9"/>
</linearGradient>
<linearGradient id="paint1_linear_88_3087" x1="-5.12187" y1="22.8014" x2="36.0465" y2="36.3616" gradientUnits="userSpaceOnUse">
<stop stop-color="#8D76FF"/>
<stop offset="0.64" stop-color="#754FFE"/>
<stop offset="0.74" stop-color="#6E4AF5"/>
<stop offset="0.9" stop-color="#593BDB"/>
<stop offset="1" stop-color="#4B31C9"/>
</linearGradient>
</defs>
</svg>
