<svg width="154" height="44" viewBox="0 0 154 44" fill="none" xmlns="http://www.w3.org/2000/svg">
<g clip-path="url(#clip0_1_2642)">
<path d="M12.0039 30.4813C12.5013 27.8236 10.313 26.7977 10.2149 26.7605C10.1631 26.734 10.1141 26.7087 10.065 26.6808C10.0368 26.6648 10.0149 26.6399 10.0031 26.6102C9.99117 26.5805 9.98997 26.5478 9.99963 26.5173C10.1359 26.0443 10.0787 25.5871 9.78026 25.2975C9.4369 24.9626 8.86872 24.932 8.30736 25.1646C8.27811 25.1772 8.24537 25.18 8.2143 25.1726C8.18323 25.1651 8.15557 25.1478 8.13568 25.1234C4.46772 20.3993 12.335 12.0301 12.335 12.0301L12.2546 12.058L12.2982 12.0102C12.3101 11.9963 12.3248 11.985 12.3413 11.9768C12.3578 11.9686 12.3759 11.9638 12.3944 11.9627C12.4129 11.9616 12.4314 11.9642 12.4488 11.9703C12.4663 11.9764 12.4823 11.9859 12.4958 11.9982C12.5108 12.0097 12.5231 12.0242 12.532 12.0406C12.5408 12.057 12.5461 12.0751 12.5474 12.0936C12.5487 12.1121 12.5459 12.1307 12.5394 12.1482C12.5329 12.1656 12.5227 12.1815 12.5094 12.1949C11.9017 12.8593 8.60848 16.5801 7.72147 20.2438C7.71057 20.271 7.70913 20.3009 7.71739 20.3289C7.72565 20.357 7.74314 20.3816 7.76716 20.3989C7.79119 20.4163 7.82041 20.4255 7.85032 20.4251C7.88023 20.4247 7.90916 20.4147 7.93266 20.3966L8.1275 20.285L16.0779 15.7337C16.0992 15.7222 16.1166 15.7052 16.1283 15.6845L20.795 7.9266L25.4413 0.209913C25.4671 0.184713 25.4816 0.150536 25.4816 0.114899C25.4816 0.0792622 25.4671 0.0450848 25.4413 0.0198857C25.4285 0.00740831 25.4133 -0.00248927 25.3966 -0.00924196C25.3799 -0.0159946 25.362 -0.0194702 25.3439 -0.0194702C25.3073 -0.0194702 25.2723 -0.00531348 25.2464 0.0198857L9.37831 9.09733C9.35767 9.10948 9.34036 9.12636 9.3279 9.14649L0.0203948 24.6224C-0.00544297 24.6476 -0.0199585 24.6818 -0.0199585 24.7174C-0.0199585 24.753 -0.00544297 24.7872 0.0203948 24.8124C0.0462326 24.8376 0.0812762 24.8518 0.117816 24.8518C0.154357 24.8518 0.1894 24.8376 0.215238 24.8124L5.49917 21.7933C5.52131 21.7784 5.54745 21.7703 5.5743 21.77C5.60115 21.7696 5.62752 21.777 5.65008 21.7912C5.67264 21.8054 5.6904 21.8258 5.70113 21.8498C5.71185 21.8738 5.71506 21.9004 5.71036 21.9261C5.48418 23.6935 6.13138 25.0862 6.94891 26.2954C6.96213 26.3149 6.96985 26.3375 6.97129 26.3608C6.97272 26.3841 6.96782 26.4074 6.95708 26.4283C6.68457 26.9971 6.71046 27.5804 7.06745 27.9286C7.33996 28.1944 7.75826 28.2701 8.20108 28.1718C8.22932 28.165 8.259 28.1667 8.28623 28.1767C8.31345 28.1866 8.33697 28.2044 8.35369 28.2276C8.42999 28.3352 8.5022 28.4415 8.57169 28.5478C9.51866 29.9923 8.93821 31.8301 8.65208 32.5344C8.63859 32.5595 8.63368 32.5881 8.63806 32.6161C8.64243 32.6442 8.65587 32.6701 8.67641 32.6901C8.69695 32.7101 8.72351 32.7232 8.75222 32.7275C8.78094 32.7318 8.8103 32.727 8.83602 32.7138L10.264 32.1756C12.0067 31.5218 12.0039 30.4813 12.0039 30.4813Z" fill="url(#paint0_linear_1_2642)"/>
<path d="M18.3301 12.5975L16.3286 15.9197L16.2645 15.9569L12.9168 17.8771L8.50079 20.4019C8.48099 20.4117 8.46395 20.4261 8.45115 20.4438C8.43836 20.4615 8.43019 20.482 8.42737 20.5035C8.42455 20.525 8.42716 20.5468 8.43497 20.5671C8.44278 20.5874 8.45555 20.6055 8.47217 20.6199L10.9588 23.045C11.1473 23.2163 11.3934 23.3146 11.651 23.3214C13.1893 23.437 16.2768 21.6192 19.2226 18.7462C22.1684 15.8732 24.0324 12.862 23.9138 11.3617C23.9062 11.1106 23.8055 10.8708 23.6304 10.6866L21.1438 8.26279C21.1291 8.24657 21.1105 8.23412 21.0897 8.2265C21.0689 8.21889 21.0465 8.21634 21.0245 8.21909C21.0025 8.22185 20.9815 8.22981 20.9633 8.24229C20.9451 8.25477 20.9304 8.27138 20.9203 8.29069L18.3301 12.5975Z" fill="url(#paint1_linear_1_2642)"/>
<path d="M43.1134 12.5935C43.1134 12.401 43.0744 12.2104 42.9987 12.0326C42.9229 11.8548 42.8119 11.6934 42.672 11.5576C42.5321 11.4217 42.3661 11.3142 42.1834 11.2411C42.0008 11.1681 41.8052 11.1309 41.6078 11.1318H25.1074C25.1074 11.1836 25.1238 11.2354 25.1279 11.2913C25.3118 13.6141 22.5281 17.2166 20.0865 19.5966C17.6448 21.9766 13.9551 24.6915 11.5706 24.5134C11.5134 24.5134 11.4602 24.5001 11.4071 24.4935V26.0376C11.4072 26.0586 11.4121 26.0793 11.4216 26.0982C11.431 26.117 11.4447 26.1336 11.4616 26.1466C12.4821 26.9067 13.6022 28.4056 13.2138 30.6381C13.1311 31.2693 12.8274 31.8533 12.3541 32.2912C12.0935 32.543 11.7992 32.7593 11.4793 32.9344C11.4574 32.9461 11.4392 32.9634 11.4267 32.9845C11.4142 33.0056 11.4079 33.0296 11.4085 33.054V40.6936C11.4085 41.0531 11.5549 41.3978 11.8155 41.652C12.0762 41.9062 12.4297 42.049 12.7983 42.049H24.854C25.2191 42.0487 25.5691 41.907 25.8272 41.6551C26.0852 41.4032 26.2302 41.0616 26.2302 40.7056V25.93C26.2301 25.9119 26.2339 25.8941 26.2412 25.8775C26.2484 25.861 26.2591 25.846 26.2725 25.8336C26.2858 25.8211 26.3017 25.8115 26.319 25.8052C26.3363 25.799 26.3548 25.7962 26.3732 25.7971H38.1878C38.2063 25.7962 38.2247 25.799 38.2421 25.8052C38.2594 25.8115 38.2752 25.8211 38.2886 25.8336C38.302 25.846 38.3126 25.861 38.3199 25.8775C38.3272 25.8941 38.3309 25.9119 38.3309 25.93V29.102C38.3309 29.12 38.3272 29.1378 38.3199 29.1544C38.3126 29.171 38.302 29.1859 38.2886 29.1984C38.2752 29.2108 38.2594 29.2204 38.2421 29.2267C38.2247 29.233 38.2063 29.2357 38.1878 29.2348H29.9049C29.8865 29.2348 29.8682 29.2385 29.8512 29.2456C29.8342 29.2526 29.8188 29.263 29.8061 29.2761C29.7934 29.2891 29.7835 29.3046 29.777 29.3215C29.7706 29.3384 29.7678 29.3564 29.7687 29.3744V32.5437C29.7687 32.579 29.783 32.6128 29.8086 32.6377C29.8341 32.6626 29.8688 32.6766 29.9049 32.6766H35.4259C35.4621 32.6766 35.4967 32.6906 35.5223 32.7155C35.5478 32.7404 35.5622 32.7742 35.5622 32.8095V35.9788C35.5622 36.0141 35.5478 36.0479 35.5223 36.0728C35.4967 36.0977 35.4621 36.1117 35.4259 36.1117H29.9049C29.8688 36.1117 29.8341 36.1257 29.8086 36.1506C29.783 36.1755 29.7687 36.2093 29.7687 36.2446V39.4006C29.7687 39.4359 29.783 39.4697 29.8086 39.4946C29.8341 39.5195 29.8688 39.5335 29.9049 39.5335H38.1878C38.2069 39.5326 38.2259 39.5355 38.2437 39.5422C38.2615 39.5489 38.2777 39.5591 38.2911 39.5723C38.3046 39.5854 38.3151 39.6012 38.322 39.6185C38.3288 39.6359 38.3319 39.6545 38.3309 39.673V41.8829C38.3309 41.9182 38.3452 41.952 38.3708 41.9769C38.3963 42.0018 38.431 42.0158 38.4671 42.0158H41.725C41.9066 42.016 42.0865 41.9812 42.2544 41.9135C42.4223 41.8458 42.5748 41.7464 42.7033 41.6212C42.8317 41.4959 42.9336 41.3471 43.003 41.1834C43.0725 41.0197 43.1081 40.8442 43.1079 40.667L43.1134 12.5935Z" fill="url(#paint2_linear_1_2642)"/>
</g>
<path d="M53.7543 36.5631V18.4252H65.0458V21.9506H57.4585V25.6804H63.513V29.2058H57.4585V33.0377H65.0458V36.5631H53.7543ZM72.7035 36.8441C71.0175 36.8441 69.5954 36.1884 68.4373 34.877C67.2792 33.5657 66.7001 31.9988 66.7001 30.1765C66.7001 28.3542 67.2792 26.7874 68.4373 25.476C69.5954 24.1646 71.0175 23.5089 72.7035 23.5089C73.521 23.5089 74.2533 23.6792 74.9005 24.0198C75.5477 24.3605 76.0416 24.7607 76.3822 25.2205V17.4033H79.8821V36.5631H76.3822V35.1325C76.0416 35.5923 75.5477 35.9926 74.9005 36.3332C74.2533 36.6738 73.521 36.8441 72.7035 36.8441ZM71.0941 32.6801C71.6902 33.3272 72.4736 33.6508 73.4444 33.6508C74.4151 33.6508 75.19 33.3272 75.7691 32.6801C76.3652 32.0329 76.6632 31.1984 76.6632 30.1765C76.6632 29.1547 76.3652 28.3201 75.7691 27.673C75.19 27.0258 74.4151 26.7022 73.4444 26.7022C72.4736 26.7022 71.6902 27.0258 71.0941 27.673C70.5151 28.3201 70.2255 29.1547 70.2255 30.1765C70.2255 31.1984 70.5151 32.0329 71.0941 32.6801ZM87.934 36.8441C86.4182 36.8441 85.2346 36.3332 84.383 35.3113C83.5485 34.2895 83.1312 32.9185 83.1312 31.1984V23.7899H86.6311V30.6108C86.6311 32.6375 87.3549 33.6508 88.8025 33.6508C89.62 33.6508 90.2587 33.3443 90.7185 32.7312C91.1954 32.118 91.4338 31.2154 91.4338 30.0232V23.7899H94.9337V36.5631H91.4338V35.107C90.6504 36.2651 89.4838 36.8441 87.934 36.8441ZM104.204 36.8441C102.28 36.8441 100.679 36.2055 99.4015 34.9281C98.1242 33.6338 97.4855 32.0499 97.4855 30.1765C97.4855 28.3031 98.1242 26.7278 99.4015 25.4504C100.679 24.1561 102.28 23.5089 104.204 23.5089C105.907 23.5089 107.329 23.9858 108.47 24.9395C109.629 25.8932 110.386 27.1365 110.744 28.6693H107.116C106.554 27.3409 105.584 26.6767 104.204 26.6767C103.268 26.6767 102.501 27.0003 101.905 27.6474C101.309 28.2776 101.011 29.1206 101.011 30.1765C101.011 31.2324 101.309 32.084 101.905 32.7312C102.501 33.3613 103.268 33.6764 104.204 33.6764C105.584 33.6764 106.554 33.0122 107.116 31.6838H110.744C110.386 33.2165 109.629 34.4598 108.47 35.4135C107.329 36.3673 105.907 36.8441 104.204 36.8441ZM118.308 36.8441C116.622 36.8441 115.2 36.1884 114.042 34.877C112.883 33.5657 112.304 31.9988 112.304 30.1765C112.304 28.3542 112.883 26.7874 114.042 25.476C115.2 24.1646 116.622 23.5089 118.308 23.5089C119.125 23.5089 119.858 23.6792 120.505 24.0198C121.152 24.3605 121.646 24.7607 121.986 25.2205V23.7899H125.486V36.5631H121.986V35.1325C121.646 35.5923 121.152 35.9926 120.505 36.3332C119.858 36.6738 119.125 36.8441 118.308 36.8441ZM116.698 32.6801C117.294 33.3272 118.078 33.6508 119.049 33.6508C120.019 33.6508 120.794 33.3272 121.373 32.6801C121.969 32.0329 122.267 31.1984 122.267 30.1765C122.267 29.1547 121.969 28.3201 121.373 27.673C120.794 27.0258 120.019 26.7022 119.049 26.7022C118.078 26.7022 117.294 27.0258 116.698 27.673C116.119 28.3201 115.83 29.1547 115.83 30.1765C115.83 31.1984 116.119 32.0329 116.698 32.6801ZM135.071 36.7164C133.64 36.7164 132.465 36.3247 131.546 35.5413C130.643 34.7408 130.192 33.5912 130.192 32.0925V26.8555H127.611V23.7899H130.192V20.239H133.692V23.7899H137.294V26.8555H133.692V31.4027C133.692 32.1862 133.862 32.7482 134.202 33.0888C134.543 33.4124 135.097 33.5742 135.863 33.5742C136.408 33.5742 136.885 33.4975 137.294 33.3443V36.4354C136.68 36.6227 135.94 36.7164 135.071 36.7164ZM145.492 36.8441C143.533 36.8441 141.924 36.214 140.664 34.9537C139.42 33.6934 138.799 32.0925 138.799 30.151C138.799 28.2435 139.429 26.6596 140.689 25.3993C141.967 24.1391 143.576 23.5089 145.517 23.5089C147.476 23.5089 149.102 24.1816 150.397 25.5271C151.691 26.8555 152.287 28.6778 152.185 30.994H142.222C142.29 31.7945 142.622 32.4672 143.218 33.0122C143.814 33.5401 144.632 33.8041 145.671 33.8041C146.301 33.8041 146.854 33.6849 147.331 33.4465C147.825 33.191 148.174 32.8419 148.379 32.3991H152.032C151.657 33.7104 150.874 34.7834 149.682 35.6179C148.489 36.4354 147.093 36.8441 145.492 36.8441ZM145.415 26.3446C144.615 26.3446 143.942 26.5574 143.397 26.9832C142.869 27.392 142.52 27.9625 142.35 28.6948H148.353C148.166 27.8944 147.791 27.3068 147.229 26.9321C146.684 26.5404 146.079 26.3446 145.415 26.3446Z" fill="#192335"/>
<defs>
<linearGradient id="paint0_linear_1_2642" x1="-0.0199585" y1="-0.0194702" x2="31.7302" y2="24.7047" gradientUnits="userSpaceOnUse">
<stop stop-color="#2F57EF"/>
<stop offset="0.9375" stop-color="#C464FD"/>
</linearGradient>
<linearGradient id="paint1_linear_1_2642" x1="8.42627" y1="8.21802" x2="23.5301" y2="23.706" gradientUnits="userSpaceOnUse">
<stop stop-color="#2F57EF"/>
<stop offset="0.9375" stop-color="#C464FD"/>
</linearGradient>
<linearGradient id="paint2_linear_1_2642" x1="11.4071" y1="11.1318" x2="42.3146" y2="42.828" gradientUnits="userSpaceOnUse">
<stop stop-color="#2F57EF"/>
<stop offset="0.9375" stop-color="#C464FD"/>
</linearGradient>
<clipPath id="clip0_1_2642">
<rect width="43.1135" height="42.0478" fill="white"/>
</clipPath>
</defs>
</svg>
