<svg width="46" height="47" viewBox="0 0 46 47" fill="none" xmlns="http://www.w3.org/2000/svg">
<path d="M23 0.742188C35.682 0.742188 46 11.0602 46 23.7422C46 36.4242 35.682 46.7422 23 46.7422C10.318 46.7422 0 36.4242 0 23.7422C0 11.0602 10.318 0.742188 23 0.742188ZM23 43.8672C34.0971 43.8672 43.125 34.8393 43.125 23.7422C43.125 12.645 34.0971 3.61719 23 3.61719C11.9029 3.61719 2.875 12.645 2.875 23.7422C2.875 34.8393 11.9029 43.8672 23 43.8672ZM13.3587 22.7259C12.797 23.2876 12.797 24.1972 13.3587 24.7585L20.5462 31.946C20.8269 32.2267 21.1949 32.3672 21.5625 32.3672C21.9301 32.3672 22.2981 32.2267 22.5788 31.946C23.1405 31.3843 23.1405 30.4747 22.5788 29.9134L17.8451 25.1797H31.625C32.4189 25.1797 33.0625 24.5368 33.0625 23.7422C33.0625 22.9476 32.4189 22.3047 31.625 22.3047H17.8451L22.5788 17.571C23.1405 17.0093 23.1405 16.0997 22.5788 15.5384C22.0171 14.977 21.1075 14.9767 20.5462 15.5384L13.3587 22.7259Z" fill="#201F22"/>
</svg>
