<svg width="46" height="47" viewBox="0 0 46 47" fill="none" xmlns="http://www.w3.org/2000/svg">
<g clip-path="url(#clip0_226_805)">
<path d="M23 0.742188C10.318 0.742188 0 11.0602 0 23.7422C0 36.4242 10.318 46.7422 23 46.7422C35.682 46.7422 46 36.4242 46 23.7422C46 11.0602 35.682 0.742188 23 0.742188ZM23 43.8672C11.9029 43.8672 2.875 34.8393 2.875 23.7422C2.875 12.645 11.9029 3.61719 23 3.61719C34.0971 3.61719 43.125 12.645 43.125 23.7422C43.125 34.8393 34.0971 43.8672 23 43.8672ZM32.6413 22.7259C33.203 23.2876 33.203 24.1972 32.6413 24.7585L25.4538 31.946C25.1731 32.2267 24.8051 32.3672 24.4375 32.3672C24.0699 32.3672 23.7019 32.2267 23.4212 31.946C22.8595 31.3843 22.8595 30.4747 23.4212 29.9134L28.1549 25.1797H14.375C13.5811 25.1797 12.9375 24.5368 12.9375 23.7422C12.9375 22.9476 13.5811 22.3047 14.375 22.3047H28.1549L23.4212 17.571C22.8595 17.0093 22.8595 16.0997 23.4212 15.5384C23.9829 14.977 24.8925 14.9767 25.4538 15.5384L32.6413 22.7259Z" fill="#201F22"/>
</g>
<defs>
<clipPath id="clip0_226_805">
<rect width="46" height="46" fill="white" transform="translate(0 0.742188)"/>
</clipPath>
</defs>
</svg>
