<svg width="21" height="20" viewBox="0 0 21 20" fill="none" xmlns="http://www.w3.org/2000/svg">
<path d="M16.3605 6.84165C16.2815 6.76355 16.1875 6.70155 16.0839 6.65924C15.9804 6.61694 15.8693 6.59515 15.7571 6.59515C15.645 6.59515 15.5339 6.61694 15.4304 6.65924C15.3268 6.70155 15.2328 6.76355 15.1538 6.84165L11.2621 10.6583C11.1831 10.7364 11.0891 10.7984 10.9855 10.8407C10.882 10.883 10.7709 10.9048 10.6588 10.9048C10.5466 10.9048 10.4355 10.883 10.332 10.8407C10.2284 10.7984 10.1344 10.7364 10.0554 10.6583L6.16368 6.84165C6.08468 6.76355 5.9907 6.70155 5.88715 6.65924C5.78361 6.61694 5.67254 6.59515 5.56037 6.59515C5.44819 6.59515 5.33713 6.61694 5.23358 6.65924C5.13003 6.70155 5.03605 6.76355 4.95706 6.84165C4.79879 6.99779 4.70996 7.209 4.70996 7.42915C4.70996 7.64931 4.79879 7.86052 4.95706 8.01665L8.85732 11.8417C9.3353 12.3098 9.98322 12.5728 10.6588 12.5728C11.3343 12.5728 11.9822 12.3098 12.4602 11.8417L16.3605 8.01665C16.5187 7.86052 16.6076 7.64931 16.6076 7.42915C16.6076 7.209 16.5187 6.99779 16.3605 6.84165Z" fill="#00907F"/>
</svg>
