<svg width="18" height="18" viewBox="0 0 18 18" fill="none" xmlns="http://www.w3.org/2000/svg">
<path d="M13.2763 0.570144L6.52291 0.458367C6.36085 0.455854 6.20064 0.485449 6.0515 0.545446C5.90237 0.605442 5.76726 0.69465 5.65399 0.807928C5.54071 0.921206 5.4515 1.05631 5.3915 1.20545C5.33151 1.35458 5.30191 1.5148 5.30442 1.67685C5.30909 2.00116 5.44189 2.31337 5.67381 2.5453C5.90574 2.77722 6.21795 2.91002 6.54226 2.91469L12.7487 3.01155L0.400813 15.3594C0.173233 15.587 0.0474678 15.8978 0.0511831 16.2233C0.054898 16.5489 0.187789 16.8626 0.420622 17.0954C0.653455 17.3283 0.967157 17.4612 1.29272 17.4649C1.61828 17.4686 1.92903 17.3428 2.15661 17.1152L14.556 4.71586L14.6189 10.9913C14.6201 11.1534 14.6534 11.3143 14.7168 11.4649C14.7802 11.6154 14.8725 11.7526 14.9884 11.8685C15.1043 11.9844 15.2415 12.0767 15.392 12.1401C15.5426 12.2035 15.7035 12.2368 15.8655 12.238C16.0276 12.2405 16.1878 12.2109 16.3369 12.1509C16.4861 12.0909 16.6212 12.0017 16.7345 11.8884C16.8477 11.7751 16.9369 11.64 16.9969 11.4909C17.0569 11.3417 17.0865 11.1815 17.084 11.0195L16.9986 4.29243C16.9868 3.31654 16.5882 2.37637 15.8903 1.67844C15.1924 0.980504 14.2522 0.581888 13.2763 0.570144Z" fill="#F3C54C"/>
</svg>
