<svg width="18" height="18" viewBox="0 0 18 18" fill="none" xmlns="http://www.w3.org/2000/svg">
<g clip-path="url(#clip0_2_4162)">
<path d="M17.1863 2.88824V12.3687C17.1863 13.8677 16.1795 15.2027 14.7379 15.6152L10.1962 16.9124C9.46829 17.1204 8.69851 17.1204 7.9706 16.9124L3.42891 15.6152C1.98726 15.2033 0.980469 13.8684 0.980469 12.3687V3.56348C0.98452 2.68026 2.32691 2.68094 2.33096 3.56348V12.3687C2.33096 13.2688 2.9353 14.0696 3.80029 14.3167L8.34198 15.6139C8.82748 15.7523 9.34 15.7523 9.82617 15.6139L14.3672 14.3167C15.2322 14.0696 15.8365 13.2688 15.8365 12.3687V2.88824C15.8406 2.00502 17.1823 2.00569 17.1863 2.88824ZM3.68145 10.9486V3.56348C3.68145 2.70795 4.07309 1.92196 4.75576 1.40742C5.43843 0.892213 6.30139 0.731505 7.12452 0.96649L8.28999 1.29939C8.59115 1.38514 8.86057 1.53842 9.08408 1.73897C9.30758 1.53842 9.57701 1.38514 9.87817 1.29939L11.043 0.96649C12.7047 0.44115 14.5346 1.8227 14.486 3.56348V10.9486C14.486 12.1479 13.6805 13.2161 12.5271 13.5456L10.1969 14.2114C9.46829 14.4194 8.69851 14.4194 7.97127 14.2114L5.64101 13.5456C4.48769 13.2161 3.68145 12.1479 3.68145 10.9486ZM9.75865 12.9311C9.78093 12.9251 12.1551 12.2471 12.1551 12.2471C12.7317 12.0824 13.1349 11.5482 13.1349 10.9486V3.56348C13.1349 3.13605 12.939 2.74306 12.598 2.48512C12.255 2.22582 11.8208 2.14817 11.4137 2.26431L10.2489 2.59721C9.96054 2.67959 9.75865 2.94631 9.75865 3.24612V12.9311ZM5.03194 10.9486C5.03194 11.5482 5.43506 12.0824 6.01172 12.2471C6.01172 12.2471 8.38587 12.9251 8.40816 12.9311V3.24679C8.40816 2.94698 8.20693 2.68026 7.91861 2.59788L6.75313 2.26499C6.34596 2.14817 5.9111 2.2265 5.56875 2.48579C5.22776 2.74306 5.03194 3.13605 5.03194 3.56416V10.9486Z" fill="#F3C54C"/>
</g>
<defs>
<clipPath id="clip0_2_4162">
<rect width="16.2059" height="16.2059" fill="white" transform="translate(0.980469 0.862305)"/>
</clipPath>
</defs>
</svg>
