<svg width="20" height="20" viewBox="0 0 20 20" fill="none" xmlns="http://www.w3.org/2000/svg">
<circle cx="10" cy="10" r="10" fill="#121314"/>
<mask id="mask0_108_769" style="mask-type:alpha" maskUnits="userSpaceOnUse" x="0" y="0" width="20" height="20">
<rect width="20" height="20" fill="#D9D9D9"/>
</mask>
<g mask="url(#mask0_108_769)">
<path d="M8.22899 12.2421L13.8652 6.62668C13.9753 6.51664 14.0981 6.46375 14.2338 6.46801C14.3695 6.47229 14.495 6.53212 14.6104 6.64751C14.7258 6.76289 14.7835 6.88708 14.7835 7.0201C14.7835 7.1531 14.7258 7.27729 14.6104 7.39268L8.71455 13.2885C8.5778 13.4252 8.41942 13.4936 8.2394 13.4936C8.05939 13.4936 7.90101 13.4252 7.76426 13.2885L5.38926 10.9135C5.27922 10.8035 5.22152 10.6806 5.21617 10.5449C5.21084 10.4092 5.26586 10.2837 5.38124 10.1683C5.49663 10.053 5.62082 9.99526 5.75382 9.99526C5.88683 9.99526 6.01103 10.053 6.1264 10.1683L8.22899 12.2421Z" fill="white"/>
</g>
</svg>
