<svg width="38" height="40" viewBox="0 0 38 40" fill="none" xmlns="http://www.w3.org/2000/svg">
<g clip-path="url(#clip0_2_2340)">
<path d="M31.6613 10.6768H34.828C36.5744 10.6768 37.9946 9.21913 37.9946 7.42676V4.17676C37.9946 2.38438 36.5744 0.926758 34.828 0.926758H31.6613C29.9149 0.926758 28.4946 2.38438 28.4946 4.17676H9.49463C9.49463 2.38438 8.07438 0.926758 6.32796 0.926758H3.1613C1.41488 0.926758 -0.00537109 2.38438 -0.00537109 4.17676V7.42676C-0.00537109 9.21913 1.41488 10.6768 3.1613 10.6768V30.1768C1.41488 30.1768 -0.00537109 31.6344 -0.00537109 33.4268V36.6768C-0.00537109 38.4691 1.41488 39.9268 3.1613 39.9268H6.32796C8.07438 39.9268 9.49463 38.4691 9.49463 36.6768H28.4946C28.4946 38.4691 29.9149 39.9268 31.6613 39.9268H34.828C36.5744 39.9268 37.9946 38.4691 37.9946 36.6768V33.4268C37.9946 31.6344 36.5744 30.1768 34.828 30.1768H31.6613C31.286 30.1768 30.9266 30.245 30.5925 30.3685L24.5569 24.174C25.0366 23.6036 25.328 22.8626 25.328 22.0518V18.8018C25.328 17.9909 25.0366 17.2499 24.5569 16.6795L30.5925 10.485C30.9266 10.6085 31.286 10.6768 31.6613 10.6768ZM30.078 4.17676C30.078 3.28138 30.7889 2.55176 31.6613 2.55176H34.828C35.7004 2.55176 36.4113 3.28138 36.4113 4.17676V7.42676C36.4113 8.32213 35.7004 9.05176 34.828 9.05176H31.6613C30.7889 9.05176 30.078 8.32213 30.078 7.42676V4.17676ZM1.57796 7.42676V4.17676C1.57796 3.28138 2.28888 2.55176 3.1613 2.55176H6.32796C7.20038 2.55176 7.9113 3.28138 7.9113 4.17676V7.42676C7.9113 8.32213 7.20038 9.05176 6.32796 9.05176H3.1613C2.28888 9.05176 1.57796 8.32213 1.57796 7.42676ZM7.9113 36.6768C7.9113 37.5721 7.20038 38.3018 6.32796 38.3018H3.1613C2.28888 38.3018 1.57796 37.5721 1.57796 36.6768V33.4268C1.57796 32.5314 2.28888 31.8018 3.1613 31.8018H6.32796C7.20038 31.8018 7.9113 32.5314 7.9113 33.4268V36.6768ZM9.49463 35.0518V33.4268C9.49463 31.6344 8.07438 30.1768 6.32796 30.1768H4.74463V10.6768H6.32796C8.07438 10.6768 9.49463 9.21913 9.49463 7.42676V5.80176H28.4946V7.42676C28.4946 8.23763 28.786 8.97863 29.2657 9.54901L23.23 15.7435C22.896 15.62 22.5365 15.5518 22.1613 15.5518H18.9946C17.2482 15.5518 15.828 17.0094 15.828 18.8018V22.0518C15.828 23.8441 17.2482 25.3018 18.9946 25.3018H22.1613C22.5365 25.3018 22.896 25.2335 23.23 25.11L29.2657 31.3045C28.786 31.8749 28.4946 32.6159 28.4946 33.4268V35.0518H9.49463ZM23.7446 18.8018V22.0518C23.7446 22.9471 23.0337 23.6768 22.1613 23.6768H18.9946C18.1222 23.6768 17.4113 22.9471 17.4113 22.0518V18.8018C17.4113 17.9064 18.1222 17.1768 18.9946 17.1768H22.1613C23.0337 17.1768 23.7446 17.9064 23.7446 18.8018ZM34.828 31.8018C35.7004 31.8018 36.4113 32.5314 36.4113 33.4268V36.6768C36.4113 37.5721 35.7004 38.3018 34.828 38.3018H31.6613C30.7889 38.3018 30.078 37.5721 30.078 36.6768V33.4268C30.078 32.5314 30.7889 31.8018 31.6613 31.8018H34.828Z" fill="#1D242D"/>
</g>
<defs>
<clipPath id="clip0_2_2340">
<rect width="38" height="39" fill="white" transform="translate(-0.00537109 0.926758)"/>
</clipPath>
</defs>
</svg>
