<svg width="51" height="51" viewBox="0 0 51 51" fill="none" xmlns="http://www.w3.org/2000/svg">
<g clip-path="url(#clip0_2_2346)">
<path d="M28.773 16.2806L24.6063 35.0306C24.5021 35.5098 24.0646 35.8431 23.5855 35.8431C23.5021 35.8431 23.4396 35.8431 23.3563 35.8223C22.7938 35.6973 22.4396 35.1348 22.5646 34.5723L26.7313 15.8223C26.8563 15.2598 27.4188 14.9056 27.9813 15.0306C28.5438 15.1556 28.898 15.7181 28.773 16.2806ZM19.2521 21.0931C19.6688 20.6764 19.6688 20.0306 19.2521 19.6139C18.8355 19.1973 18.1896 19.1973 17.773 19.6139L14.0646 23.3223C12.8563 24.5306 12.8563 26.4889 14.0646 27.6973L17.6688 31.3014C17.8771 31.5098 18.148 31.6139 18.398 31.6139C18.648 31.6139 18.9396 31.5098 19.1271 31.3014C19.5438 30.8848 19.5438 30.2389 19.1271 29.8223L15.523 26.2181C15.1271 25.8223 15.1271 25.1764 15.523 24.7806L19.2313 21.0723L19.2521 21.0931ZM33.5646 19.6139C33.148 19.1973 32.5021 19.1973 32.0855 19.6139C31.6688 20.0306 31.6688 20.6764 32.0855 21.0931L35.7938 24.8014C36.1896 25.1973 36.1896 25.8431 35.7938 26.2389L32.1896 29.8431C31.773 30.2598 31.773 30.9056 32.1896 31.3223C32.398 31.5306 32.6688 31.6348 32.9188 31.6348C33.1688 31.6348 33.4605 31.5306 33.648 31.3223L37.2521 27.7181C38.4605 26.5098 38.4605 24.5514 37.2521 23.3431L33.5438 19.6348L33.5646 19.6139ZM47.0021 38.4889C46.1271 39.9056 44.7521 40.9056 43.1271 41.3014C41.5021 41.6973 39.8355 41.4264 38.398 40.5514L37.4813 39.9889C35.8146 41.3431 33.9396 42.3848 31.9188 43.1139V44.1764C31.9188 47.6139 29.1063 50.4264 25.6688 50.4264C22.2313 50.4264 19.4188 47.6139 19.4188 44.1764V43.1139C17.398 42.4056 15.523 41.3639 13.8563 39.9889L12.9396 40.5514C11.523 41.4264 9.83546 41.6973 8.21046 41.3014C6.58546 40.9056 5.21046 39.9056 4.33546 38.4889C2.54379 35.5514 3.46046 31.6973 6.39796 29.8848L7.31462 29.3223C7.04379 28.0514 6.89796 26.7389 6.89796 25.4056C6.89796 24.0723 7.04379 22.7806 7.31462 21.4889L6.39796 20.9264C3.46046 19.1348 2.54379 15.2806 4.33546 12.3223C5.21046 10.9056 6.58546 9.9056 8.21046 9.50977C9.83546 9.11393 11.5021 9.38476 12.9396 10.2598L13.8563 10.8223C15.523 9.4681 17.398 8.42643 19.4188 7.69727V6.63477C19.4188 3.19727 22.2313 0.384766 25.6688 0.384766C29.1063 0.384766 31.9188 3.19727 31.9188 6.63477V7.69727C33.9396 8.4056 35.8146 9.44726 37.4813 10.8223L38.398 10.2598C39.8146 9.38476 41.5021 9.13477 43.1271 9.50977C44.7521 9.9056 46.1271 10.9056 47.0021 12.3223C48.7938 15.2598 47.8771 19.1139 44.9396 20.9264L44.023 21.4889C44.2938 22.7598 44.4396 24.0723 44.4396 25.4056C44.4396 26.7389 44.2938 28.0306 44.023 29.3223L44.9396 29.8848C47.8771 31.6764 48.7938 35.5306 47.0021 38.4889ZM43.8563 31.6764L42.2938 30.7181C41.898 30.4889 41.7105 30.0098 41.8355 29.5723C42.1896 28.2181 42.3563 26.8223 42.3563 25.4264C42.3563 24.0306 42.1896 22.6348 41.8355 21.2806C41.7313 20.8431 41.9188 20.3639 42.2938 20.1348L43.8563 19.1764C45.8146 17.9681 46.4396 15.4056 45.2313 13.4473C44.023 11.4889 41.4605 10.8639 39.5021 12.0723L37.9396 13.0306C37.5438 13.2598 37.0438 13.2181 36.7105 12.9264C34.9188 11.3431 32.8563 10.1973 30.5855 9.48893C30.148 9.36393 29.8563 8.94726 29.8563 8.48893V6.67643C29.8563 4.38477 27.9813 2.50977 25.6896 2.50977C23.398 2.50977 21.523 4.38477 21.523 6.67643V8.48893C21.523 8.94726 21.2313 9.3431 20.7938 9.48893C18.523 10.1764 16.4605 11.3431 14.6688 12.9264C14.3355 13.2389 13.8355 13.2806 13.4396 13.0306L11.8771 12.0723C9.91879 10.8639 7.35629 11.4889 6.14796 13.4473C4.93962 15.4056 5.56462 17.9681 7.52296 19.1764L9.08546 20.1348C9.48129 20.3639 9.66879 20.8431 9.54379 21.2806C9.18962 22.6348 9.02296 24.0306 9.02296 25.4264C9.02296 26.8223 9.18962 28.2181 9.54379 29.5723C9.64796 30.0098 9.46046 30.4889 9.08546 30.7181L7.52296 31.6764C5.56462 32.8848 4.93962 35.4473 6.14796 37.4056C7.35629 39.3639 9.91879 39.9889 11.8771 38.7806L13.4396 37.8223C13.6063 37.7181 13.7938 37.6764 13.9813 37.6764C14.2313 37.6764 14.4813 37.7598 14.6688 37.9264C16.4605 39.5098 18.523 40.6556 20.7938 41.3639C21.2313 41.4889 21.523 41.9056 21.523 42.3639V44.1764C21.523 46.4681 23.398 48.3431 25.6896 48.3431C27.9813 48.3431 29.8563 46.4681 29.8563 44.1764V42.3639C29.8563 41.9056 30.148 41.5098 30.5855 41.3639C32.8563 40.6764 34.9188 39.5098 36.7105 37.9264C37.0646 37.6139 37.5646 37.5723 37.9396 37.8223L39.5021 38.7806C41.4605 39.9889 44.023 39.3639 45.2313 37.4056C46.4396 35.4473 45.8146 32.8848 43.8563 31.6764Z" fill="#1D242D"/>
</g>
<defs>
<clipPath id="clip0_2_2346">
<rect width="50" height="50" fill="white" transform="translate(0.668945 0.426758)"/>
</clipPath>
</defs>
</svg>
