<svg width="17" height="12" viewBox="0 0 17 12" fill="none" xmlns="http://www.w3.org/2000/svg">
<path id="Vector" d="M0.75 11.2692C0.5375 11.2692 0.359375 11.1973 0.215625 11.0535C0.071875 10.9097 0 10.7315 0 10.5189C0 10.3063 0.071875 10.1282 0.215625 9.9846C0.359375 9.84102 0.5375 9.76923 0.75 9.76923H16.25C16.4625 9.76923 16.6406 9.84113 16.7843 9.98495C16.9281 10.1287 17 10.3069 17 10.5195C17 10.7321 16.9281 10.9102 16.7843 11.0538C16.6406 11.1974 16.4625 11.2692 16.25 11.2692H0.75ZM0.75 6.38457C0.5375 6.38457 0.359375 6.31267 0.215625 6.16887C0.071875 6.02506 0 5.84686 0 5.63427C0 5.42167 0.071875 5.24358 0.215625 5.1C0.359375 4.95642 0.5375 4.88462 0.75 4.88462H16.25C16.4625 4.88462 16.6406 4.95652 16.7843 5.10032C16.9281 5.24414 17 5.42234 17 5.63492C17 5.84752 16.9281 6.02562 16.7843 6.1692C16.6406 6.31278 16.4625 6.38457 16.25 6.38457H0.75ZM0.75 1.49997C0.5375 1.49997 0.359375 1.42807 0.215625 1.28425C0.071875 1.14045 0 0.962249 0 0.749649C0 0.537066 0.071875 0.358983 0.215625 0.215399C0.359375 0.0717992 0.5375 0 0.75 0H16.25C16.4625 0 16.6406 0.0719075 16.7843 0.215724C16.9281 0.359541 17 0.537742 17 0.750325C17 0.962925 16.9281 1.14102 16.7843 1.2846C16.6406 1.42818 16.4625 1.49997 16.25 1.49997H0.75Z" fill="black"/>
</svg>
