<svg xmlns="http://www.w3.org/2000/svg" version="1.1" xmlns:xlink="http://www.w3.org/1999/xlink" width="14" height="14" x="0" y="0" viewBox="0 0 32 32" style="enable-background:new 0 0 512 512" xml:space="preserve" class=""><g><path d="M27.734 27H4.266A3.27 3.27 0 0 1 1 23.734V8.266A3.27 3.27 0 0 1 4.266 5h23.468A3.27 3.27 0 0 1 31 8.266v15.468A3.27 3.27 0 0 1 27.734 27zM4.266 7C3.568 7 3 7.568 3 8.266v15.468C3 24.432 3.568 25 4.266 25h23.468c.698 0 1.266-.568 1.266-1.266V8.266C29 7.568 28.432 7 27.734 7z" fill="#838B95" opacity="1" data-original="#000000" class=""></path><path d="M16 18.584a7.478 7.478 0 0 1-4.24-1.331l-6.334-4.434a1.005 1.005 0 0 1-.245-1.392c.314-.45.943-.561 1.393-.246l6.333 4.433a5.41 5.41 0 0 0 6.186 0l6.333-4.433a1 1 0 0 1 1.148 1.638l-6.334 4.434A7.478 7.478 0 0 1 16 18.584z" fill="#838B95" opacity="1" data-original="#000000" class=""></path></g></svg>