<svg width="48" height="47" viewBox="0 0 48 47" fill="none" xmlns="http://www.w3.org/2000/svg">
<g clip-path="url(#clip0_2_2357)">
<path d="M31 0H17C12.038 0 8 3.95388 8 8.8125V38.1875C8 43.0461 12.038 47 17 47H31C35.962 47 40 43.0461 40 38.1875V8.8125C40 3.95388 35.962 0 31 0ZM29.614 1.95833L28.964 3.86575C28.554 5.06817 27.41 5.875 26.118 5.875H21.884C20.592 5.875 19.448 5.06817 19.038 3.86575L18.388 1.95833H29.614ZM38 38.1875C38 41.9671 34.86 45.0417 31 45.0417H17C13.14 45.0417 10 41.9671 10 38.1875V8.8125C10 5.26792 12.774 2.37546 16.302 2.02688L17.138 4.48458C17.82 6.486 19.726 7.83138 21.882 7.83138H26.116C28.272 7.83138 30.178 6.486 30.86 4.48458L31.696 2.02688C35.224 2.37546 37.998 5.26596 37.998 8.8125L38 38.1875Z" fill="#1D242D"/>
<path d="M27 39.167H21C20.448 39.167 20 39.6057 20 40.1462C20 40.6867 20.448 41.1253 21 41.1253H27C27.552 41.1253 28 40.6867 28 40.1462C28 39.6057 27.552 39.167 27 39.167Z" fill="#1D242D"/>
</g>
<defs>
<clipPath id="clip0_2_2357">
<rect width="48" height="47" fill="white"/>
</clipPath>
</defs>
</svg>
