<svg width="43" height="37" viewBox="0 0 43 37" fill="none" xmlns="http://www.w3.org/2000/svg">
<g opacity="0.48">
<path d="M2.68968 34.2407C-4.64097 14.3187 4.50437 4.64315 12.3153 1.23147C14.0445 0.476152 15.8007 1.87003 15.8007 3.75704V5.44341C15.8007 7.07106 14.408 8.28759 12.9389 8.98837C10.5709 10.118 9.57502 12.6575 9.26471 14.938C9.05899 16.45 10.3615 17.6265 11.8874 17.6265H16.1579C17.7856 17.6265 19.105 18.946 19.105 20.5737V33.1514C19.105 34.7791 17.7856 36.0986 16.1579 36.0986H5.39271C4.19367 36.0986 3.10375 35.3659 2.68968 34.2407Z" fill="#FF375E"/>
<path d="M26.571 34.2407C19.2404 14.3187 28.3857 4.64315 36.1966 1.23147C37.9259 0.476152 39.682 1.87003 39.682 3.75704V5.44341C39.682 7.07106 38.2893 8.28759 36.8203 8.98837C34.4522 10.118 33.4564 12.6575 33.1461 14.938C32.9403 16.45 34.2428 17.6265 35.7687 17.6265H40.0393C41.6669 17.6265 42.9864 18.946 42.9864 20.5737V33.1514C42.9864 34.7791 41.6669 36.0986 40.0393 36.0986H29.2741C28.075 36.0986 26.9851 35.3659 26.571 34.2407Z" fill="#FF375E"/>
</g>
</svg>
