<svg width="44" height="37" viewBox="0 0 44 37" fill="none" xmlns="http://www.w3.org/2000/svg">
<g opacity="0.68">
<path d="M3.50716 34.3682C-3.84876 14.4357 5.33366 4.75979 13.1688 1.35197C14.8986 0.59962 16.6535 1.99352 16.6535 3.87983V5.56841C16.6535 7.19606 15.2617 8.41288 13.7909 9.11002C11.4109 10.2381 10.4107 12.7808 10.0994 15.0637C9.8932 16.5753 11.1956 17.7515 12.7212 17.7515H17.0199C18.6476 17.7515 19.9671 19.071 19.9671 20.6987V33.2764C19.9671 34.9041 18.6476 36.2236 17.0199 36.2236H6.20917C5.01117 36.2236 3.92193 35.4921 3.50716 34.3682Z" fill="#1D242D" fill-opacity="0.26"/>
<path d="M27.4549 34.3682C20.099 14.4357 29.2814 4.75979 37.1166 1.35197C38.8463 0.59962 40.6013 1.99352 40.6013 3.87983V5.56841C40.6013 7.19606 39.2094 8.41288 37.7386 9.11002C35.3587 10.2381 34.3585 12.7808 34.0471 15.0637C33.841 16.5753 35.1434 17.7515 36.669 17.7515H40.9677C42.5953 17.7515 43.9148 19.071 43.9148 20.6987V33.2764C43.9148 34.9041 42.5953 36.2236 40.9677 36.2236H30.1569C28.9589 36.2236 27.8697 35.4921 27.4549 34.3682Z" fill="#1D242D" fill-opacity="0.26"/>
</g>
</svg>
