<svg width="41" height="41" viewBox="0 0 41 41" fill="none" xmlns="http://www.w3.org/2000/svg">
<path d="M40.3433 39.5934C40.3433 40.0534 39.9699 40.4268 39.5099 40.4268H7.84326C3.70826 40.4268 0.343262 37.0618 0.343262 32.9268V1.26009C0.343262 0.800091 0.716595 0.426758 1.1766 0.426758C1.6366 0.426758 2.00993 0.800091 2.00993 1.26009V32.9268C2.00993 36.1434 4.6266 38.7601 7.84326 38.7601H39.5099C39.9699 38.7601 40.3433 39.1334 40.3433 39.5934ZM31.1766 33.7601C31.6366 33.7601 32.0099 33.3868 32.0099 32.9268V11.2601C32.0099 10.8001 31.6366 10.4268 31.1766 10.4268C30.7166 10.4268 30.3433 10.8001 30.3433 11.2601V32.9268C30.3433 33.3868 30.7166 33.7601 31.1766 33.7601ZM24.5099 33.7601C24.9699 33.7601 25.3433 33.3868 25.3433 32.9268V19.5934C25.3433 19.1334 24.9699 18.7601 24.5099 18.7601C24.0499 18.7601 23.6766 19.1334 23.6766 19.5934V32.9268C23.6766 33.3868 24.0499 33.7601 24.5099 33.7601ZM17.8433 33.7601C18.3033 33.7601 18.6766 33.3868 18.6766 32.9268V11.2601C18.6766 10.8001 18.3033 10.4268 17.8433 10.4268C17.3833 10.4268 17.0099 10.8001 17.0099 11.2601V32.9268C17.0099 33.3868 17.3833 33.7601 17.8433 33.7601ZM11.1766 33.7601C11.6366 33.7601 12.0099 33.3868 12.0099 32.9268V19.5934C12.0099 19.1334 11.6366 18.7601 11.1766 18.7601C10.7166 18.7601 10.3433 19.1334 10.3433 19.5934V32.9268C10.3433 33.3868 10.7166 33.7601 11.1766 33.7601Z" fill="black"/>
</svg>
