<svg width="20" height="20" viewBox="0 0 20 20" fill="none" xmlns="http://www.w3.org/2000/svg">
<g id="search (1) 1" clip-path="url(#clip0_1_833)">
<path id="Vector" d="M19.7558 18.5778L14.7816 13.6036C16.1371 11.9458 16.8036 9.83038 16.6431 7.69494C16.4827 5.5595 15.5076 3.56742 13.9196 2.13074C12.3316 0.694065 10.2521 -0.0772832 8.11131 -0.0237567C5.97052 0.0297698 3.93219 0.904076 2.41795 2.41832C0.90371 3.93256 0.0294036 5.97088 -0.0241229 8.11168C-0.0776494 10.2525 0.693699 12.3319 2.13037 13.92C3.56705 15.508 5.55913 16.4831 7.69458 16.6435C9.83002 16.804 11.9454 16.1375 13.6033 14.782L18.5774 19.7561C18.7346 19.9079 18.9451 19.9919 19.1636 19.99C19.3821 19.9881 19.5911 19.9005 19.7456 19.746C19.9001 19.5915 19.9878 19.3825 19.9897 19.164C19.9916 18.9455 19.9076 18.735 19.7558 18.5778ZM8.33327 15.0003C7.01473 15.0003 5.7258 14.6093 4.62947 13.8768C3.53314 13.1442 2.67866 12.103 2.17408 10.8849C1.66949 9.66669 1.53747 8.32625 1.79471 7.03304C2.05194 5.73983 2.68688 4.55195 3.61923 3.61959C4.55158 2.68724 5.73947 2.05231 7.03267 1.79507C8.32588 1.53784 9.66632 1.66986 10.8845 2.17444C12.1027 2.67903 13.1439 3.53351 13.8764 4.62984C14.6089 5.72617 14.9999 7.0151 14.9999 8.33364C14.998 10.1011 14.2949 11.7957 13.0451 13.0455C11.7953 14.2953 10.1008 14.9983 8.33327 15.0003Z" fill="#6B7385"/>
</g>
<defs>
<clipPath id="clip0_1_833">
<rect width="20" height="20" fill="white"/>
</clipPath>
</defs>
</svg>
