<svg width="18" height="18" viewBox="0 0 18 18" fill="none" xmlns="http://www.w3.org/2000/svg">
<g clip-path="url(#clip0_226_778)">
<path d="M6.28798 5.42605L1.57158 6.10985L1.48805 6.12686C1.36159 6.16043 1.24631 6.22696 1.15397 6.31965C1.06164 6.41235 0.995563 6.52789 0.962488 6.65448C0.929413 6.78106 0.930526 6.91416 0.965715 7.04018C1.0009 7.16619 1.06891 7.28061 1.16278 7.37175L4.57958 10.6976L3.7738 15.3955L3.76419 15.4769C3.75645 15.6076 3.78361 15.7381 3.84288 15.855C3.90216 15.9718 3.99142 16.0708 4.10153 16.1418C4.21165 16.2128 4.33865 16.2533 4.46954 16.2591C4.60043 16.2648 4.73051 16.2357 4.84645 16.1747L9.06459 13.957L13.2731 16.1747L13.3471 16.2087C13.4691 16.2568 13.6017 16.2715 13.7313 16.2514C13.8609 16.2313 13.9828 16.1771 14.0845 16.0943C14.1862 16.0116 14.2641 15.9032 14.3102 15.7804C14.3562 15.6576 14.3688 15.5248 14.3465 15.3955L13.54 10.6976L16.9583 7.37101L17.0159 7.30817C17.0983 7.20672 17.1523 7.08526 17.1724 6.95614C17.1926 6.82702 17.1781 6.69488 17.1306 6.57316C17.083 6.45145 17.0041 6.34451 16.9017 6.26326C16.7994 6.182 16.6773 6.12932 16.548 6.11059L11.8316 5.42605L9.72326 1.1532C9.66226 1.0294 9.56781 0.925153 9.45062 0.852256C9.33343 0.779358 9.19817 0.740723 9.06016 0.740723C8.92214 0.740723 8.78688 0.779358 8.66969 0.852256C8.5525 0.925153 8.45806 1.0294 8.39705 1.1532L6.28798 5.42605Z" fill="#FFC107"/>
</g>
<defs>
<clipPath id="clip0_226_778">
<rect width="17.7419" height="17.7419" fill="white" transform="translate(0.193359)"/>
</clipPath>
</defs>
</svg>
