<svg width="24" height="24" viewBox="0 0 24 24" fill="none" xmlns="http://www.w3.org/2000/svg">
<path d="M17.2964 14.1907C17.1858 14.2984 17.1028 14.4315 17.0545 14.5786C17.0063 14.7256 16.9942 14.8823 17.0194 15.035L17.7898 19.3175C17.8215 19.4953 17.8017 19.6784 17.7326 19.8452C17.6635 20.0119 17.5481 20.155 17.4003 20.2576C17.2552 20.364 17.0831 20.4271 16.9039 20.4394C16.7247 20.4517 16.5456 20.4128 16.3875 20.3272L12.5528 18.3165C12.4191 18.2457 12.271 18.207 12.12 18.2034H11.8862C11.8044 18.2154 11.7252 18.242 11.6525 18.2817L7.8178 20.3011C7.62737 20.3968 7.41356 20.4316 7.20321 20.3968C6.95692 20.3497 6.73862 20.2079 6.59474 20.0014C6.45087 19.795 6.39277 19.5402 6.4328 19.2914L7.20321 15.0089C7.22843 14.8548 7.21643 14.6969 7.16822 14.5484C7.12001 14.4 7.03701 14.2653 6.92621 14.1559L3.8013 11.1094C3.67318 10.9849 3.58312 10.8262 3.54171 10.6519C3.5003 10.4777 3.50928 10.2952 3.56758 10.1259C3.68444 9.78117 3.98049 9.52961 4.33799 9.47304L8.64015 8.84633C8.96735 8.81152 9.25474 8.61132 9.4019 8.31538L11.2976 4.40719C11.3418 4.32015 11.3998 4.24007 11.4707 4.17217L11.5486 4.11124C11.5887 4.06658 11.6355 4.02841 11.6871 3.99809L11.7824 3.96327L11.9295 3.90234H12.2931C12.6194 3.93716 12.9059 4.13213 13.0548 4.4246L14.9765 8.31538C15.115 8.60001 15.3834 8.79759 15.695 8.84633L19.9971 9.47304C20.3607 9.52526 20.6637 9.77768 20.7849 10.1259C20.8974 10.4749 20.7996 10.8579 20.5338 11.1094L17.2964 14.1907Z" fill="#F3C54C"/>
</svg>
