<svg width="15" height="14" viewBox="0 0 15 14" fill="none" xmlns="http://www.w3.org/2000/svg">
<path d="M9.77634 3.93749L13.4141 4.48781C13.7219 4.53445 13.9737 4.74898 14.067 5.04746C14.1602 5.34594 14.0856 5.6724 13.8711 5.90559L11.2314 8.57324L11.8564 12.3975C11.9123 12.7053 11.7817 13.0224 11.5299 13.2183C11.2781 13.4049 10.9516 13.4235 10.6811 13.2743L7.43515 11.4927L4.1892 13.2743C3.9187 13.4235 3.58291 13.3955 3.33107 13.2183C3.07923 13.0318 2.94864 12.7146 3.00461 12.3975L3.62955 8.57324L0.999207 5.90559C0.784676 5.68173 0.70073 5.34594 0.803332 5.04746C0.896606 4.74898 1.14844 4.53445 1.45625 4.48781L5.08463 3.93749L6.71694 0.486336C6.89416 0.0852556 7.36986 -0.0919661 7.77094 0.0852556C7.94816 0.169203 8.08807 0.309115 8.17202 0.486336L9.79499 3.93749H9.77634Z" fill="#FFBC34"/>
</svg>
