<svg width="18" height="18" viewBox="0 0 18 18" fill="none" xmlns="http://www.w3.org/2000/svg">
<g clip-path="url(#clip0_1_3293)">
<path d="M6.22353 5.42605L1.50713 6.10985L1.42359 6.12686C1.29714 6.16043 1.18186 6.22696 1.08952 6.31965C0.997188 6.41235 0.931109 6.52789 0.898034 6.65448C0.86496 6.78106 0.866073 6.91416 0.901262 7.04018C0.93645 7.16619 1.00445 7.28061 1.09832 7.37175L4.51513 10.6976L3.70935 15.3955L3.69974 15.4769C3.69199 15.6076 3.71915 15.7381 3.77843 15.855C3.8377 15.9718 3.92697 16.0708 4.03708 16.1418C4.14719 16.2128 4.2742 16.2533 4.40509 16.2591C4.53598 16.2648 4.66605 16.2357 4.78199 16.1747L9.00014 13.957L13.2087 16.1747L13.2826 16.2087C13.4046 16.2568 13.5372 16.2715 13.6668 16.2514C13.7964 16.2313 13.9183 16.1771 14.0201 16.0943C14.1218 16.0116 14.1997 15.9032 14.2457 15.7804C14.2918 15.6576 14.3043 15.5248 14.2821 15.3955L13.4755 10.6976L16.8938 7.37101L16.9515 7.30817C17.0338 7.20672 17.0879 7.08526 17.108 6.95614C17.1281 6.82702 17.1137 6.69488 17.0661 6.57316C17.0186 6.45145 16.9396 6.34451 16.8373 6.26326C16.7349 6.182 16.6129 6.12932 16.4835 6.11059L11.7671 5.42605L9.65881 1.1532C9.5978 1.0294 9.50336 0.925153 9.38617 0.852256C9.26898 0.779358 9.13372 0.740723 8.9957 0.740723C8.85769 0.740723 8.72243 0.779358 8.60524 0.852256C8.48805 0.925153 8.3936 1.0294 8.3326 1.1532L6.22353 5.42605Z" fill="#FFC107"/>
</g>
<defs>
<clipPath id="clip0_1_3293">
<rect width="17.7419" height="17.7419" fill="white" transform="translate(0.129028)"/>
</clipPath>
</defs>
</svg>
