<svg width="18" height="18" viewBox="0 0 18 18" fill="none" xmlns="http://www.w3.org/2000/svg">
<g clip-path="url(#clip0_1_3295)">
<path d="M6.35255 5.42605L1.63616 6.10985L1.55262 6.12686C1.42617 6.16043 1.31088 6.22696 1.21855 6.31965C1.12622 6.41235 1.06014 6.52789 1.02706 6.65448C0.993988 6.78106 0.995102 6.91416 1.03029 7.04018C1.06548 7.16619 1.13348 7.28061 1.22735 7.37175L4.64415 10.6976L3.83837 15.3955L3.82876 15.4769C3.82102 15.6076 3.84818 15.7381 3.90746 15.855C3.96673 15.9718 4.056 16.0708 4.16611 16.1418C4.27622 16.2128 4.40322 16.2533 4.53412 16.2591C4.66501 16.2648 4.79508 16.2357 4.91102 16.1747L9.12917 13.957L13.3377 16.1747L13.4116 16.2087C13.5336 16.2568 13.6663 16.2715 13.7959 16.2514C13.9255 16.2313 14.0474 16.1771 14.1491 16.0943C14.2508 16.0116 14.3287 15.9032 14.3747 15.7804C14.4208 15.6576 14.4333 15.5248 14.4111 15.3955L13.6046 10.6976L17.0228 7.37101L17.0805 7.30817C17.1629 7.20672 17.2169 7.08526 17.237 6.95614C17.2572 6.82702 17.2427 6.69488 17.1952 6.57316C17.1476 6.45145 17.0686 6.34451 16.9663 6.26326C16.8639 6.182 16.7419 6.12932 16.6126 6.11059L11.8962 5.42605L9.78784 1.1532C9.72683 1.0294 9.63239 0.925153 9.51519 0.852256C9.398 0.779358 9.26275 0.740723 9.12473 0.740723C8.98672 0.740723 8.85146 0.779358 8.73427 0.852256C8.61708 0.925153 8.52263 1.0294 8.46163 1.1532L6.35255 5.42605Z" fill="#D8D8D8"/>
</g>
<defs>
<clipPath id="clip0_1_3295">
<rect width="17.7419" height="17.7419" fill="white" transform="translate(0.258057)"/>
</clipPath>
</defs>
</svg>
