<svg width="18" height="18" viewBox="0 0 18 18" fill="none" xmlns="http://www.w3.org/2000/svg">
<g clip-path="url(#clip0_226_779)">
<path d="M6.35243 5.42605L1.63603 6.10985L1.5525 6.12686C1.42604 6.16043 1.31076 6.22696 1.21843 6.31965C1.12609 6.41235 1.06002 6.52789 1.02694 6.65448C0.993866 6.78106 0.994979 6.91416 1.03017 7.04018C1.06536 7.16619 1.13336 7.28061 1.22723 7.37175L4.64403 10.6976L3.83825 15.3955L3.82864 15.4769C3.8209 15.6076 3.84806 15.7381 3.90733 15.855C3.96661 15.9718 4.05587 16.0708 4.16599 16.1418C4.2761 16.2128 4.4031 16.2533 4.53399 16.2591C4.66488 16.2648 4.79496 16.2357 4.9109 16.1747L9.12904 13.957L13.3376 16.1747L13.4115 16.2087C13.5335 16.2568 13.6661 16.2715 13.7957 16.2514C13.9253 16.2313 14.0472 16.1771 14.149 16.0943C14.2507 16.0116 14.3286 15.9032 14.3746 15.7804C14.4207 15.6576 14.4332 15.5248 14.411 15.3955L13.6044 10.6976L17.0227 7.37101L17.0804 7.30817C17.1628 7.20672 17.2168 7.08526 17.2369 6.95614C17.257 6.82702 17.2426 6.69488 17.195 6.57316C17.1475 6.45145 17.0685 6.34451 16.9662 6.26326C16.8638 6.182 16.7418 6.12932 16.6124 6.11059L11.896 5.42605L9.78771 1.1532C9.72671 1.0294 9.63226 0.925153 9.51507 0.852256C9.39788 0.779358 9.26262 0.740723 9.12461 0.740723C8.9866 0.740723 8.85134 0.779358 8.73415 0.852256C8.61696 0.925153 8.52251 1.0294 8.4615 1.1532L6.35243 5.42605Z" fill="#D8D8D8"/>
</g>
<defs>
<clipPath id="clip0_226_779">
<rect width="17.7419" height="17.7419" fill="white" transform="translate(0.257812)"/>
</clipPath>
</defs>
</svg>
