<svg width="16" height="16" viewBox="0 0 16 16" fill="none" xmlns="http://www.w3.org/2000/svg">
<path d="M11.946 9.54675C11.8608 9.62925 11.7969 9.73119 11.7597 9.84382C11.7225 9.95645 11.7133 10.0764 11.7326 10.1934L12.326 13.4734C12.3504 13.6096 12.3351 13.7499 12.2819 13.8776C12.2287 14.0052 12.1399 14.1149 12.026 14.1934C11.9142 14.275 11.7817 14.3233 11.6437 14.3327C11.5057 14.3421 11.3678 14.3123 11.246 14.2467L8.29265 12.7067C8.18972 12.6525 8.07563 12.6228 7.95931 12.6201H7.77931C7.71625 12.6293 7.65531 12.6496 7.59931 12.6801L4.64598 14.2267C4.49931 14.3001 4.33465 14.3267 4.17265 14.3001C3.98297 14.264 3.81484 14.1554 3.70404 13.9972C3.59323 13.8391 3.54848 13.644 3.57931 13.4534L4.17265 10.1734C4.19207 10.0554 4.18283 9.93442 4.1457 9.82072C4.10857 9.70701 4.04465 9.6039 3.95931 9.52008L1.55265 7.18675C1.45398 7.09139 1.38461 6.96981 1.35272 6.83635C1.32083 6.70288 1.32774 6.56308 1.37265 6.43341C1.46265 6.16941 1.69065 5.97675 1.96598 5.93341L5.27931 5.45341C5.53131 5.42675 5.75265 5.27341 5.86598 5.04675L7.32598 2.05341C7.35998 1.98675 7.40465 1.92541 7.45931 1.87341L7.51931 1.82675C7.55019 1.79254 7.58617 1.7633 7.62598 1.74008L7.69931 1.71341L7.81265 1.66675H8.09265C8.34398 1.69341 8.56465 1.84275 8.67931 2.06675L10.1593 5.04675C10.266 5.26475 10.4726 5.41608 10.7126 5.45341L14.026 5.93341C14.306 5.97341 14.5393 6.16675 14.6326 6.43341C14.7193 6.70075 14.644 6.99408 14.4393 7.18675L11.946 9.54675Z" fill="#F3C54C"/>
</svg>
