<svg width="98" height="18" viewBox="0 0 98 18" fill="none" xmlns="http://www.w3.org/2000/svg">
<path d="M7.7347 17.0762C5.69349 17.0762 3.73589 16.2669 2.29254 14.8266C0.849195 13.3862 0.0383301 11.4325 0.0383301 9.39549V1.71484H5.16924V9.39549C5.16924 10.0745 5.43953 10.7257 5.92064 11.2058C6.40176 11.686 7.05429 11.9557 7.7347 11.9557C8.4151 11.9557 9.06763 11.686 9.54875 11.2058C10.0299 10.7257 10.3002 10.0745 10.3002 9.39549V1.71484H15.4311V9.39549C15.4311 11.4325 14.6202 13.3862 13.1769 14.8266C11.7335 16.2669 9.7759 17.0762 7.7347 17.0762Z" fill="#1EC572"/>
<path d="M20.5619 11.9551H7.73462V17.0755H20.5619V11.9551Z" fill="#016938"/>
<g opacity="0.6">
<g opacity="0.6">
<path opacity="0.6" d="M7.7347 17.0762C5.69349 17.0762 3.73589 16.2669 2.29254 14.8266C0.849195 13.3862 0.0383301 11.4325 0.0383301 9.39549V1.71484H5.16924V9.39549C5.16924 10.0745 5.43953 10.7257 5.92064 11.2058C6.40176 11.686 7.05429 11.9557 7.7347 11.9557C8.4151 11.9557 9.06763 11.686 9.54875 11.2058C10.0299 10.7257 10.3002 10.0745 10.3002 9.39549V1.71484H15.4311V9.39549C15.4311 11.4325 14.6202 13.3862 13.1769 14.8266C11.7335 16.2669 9.7759 17.0762 7.7347 17.0762Z" fill="#1EC572"/>
</g>
</g>
<path opacity="0.87" d="M23.6045 8.21608H21.9392V5.62845H23.6045V4.96233C23.6045 3.56176 23.9974 2.47717 24.783 1.70857C25.5687 0.939966 26.6362 0.555664 27.9856 0.555664C30.1547 0.555664 31.4784 1.52069 31.9567 3.45074L29.6509 4.1681C29.3776 3.53614 28.9506 3.22016 28.3699 3.22016C27.6354 3.22016 27.2682 3.70694 27.2682 4.6805V5.62845H30.2145V8.21608H27.2682V17.0038H23.6045V8.21608ZM39.1883 11.4186V5.62845H42.9032V17.0038H39.1883V15.236C38.5222 16.6195 37.318 17.3112 35.5759 17.3112C34.1411 17.3112 33.1078 16.8928 32.4758 16.0558C31.8439 15.2189 31.5279 14.1258 31.5279 12.7765V5.62845H35.2172V11.8798C35.2172 13.5536 35.8491 14.3905 37.1131 14.3905C37.7963 14.3905 38.3087 14.1258 38.6503 13.5963C39.009 13.0668 39.1883 12.3409 39.1883 11.4186ZM49.2373 11.2136V17.0038H45.548V5.62845H49.2373V7.39624C49.5447 6.76427 50.023 6.26041 50.672 5.88465C51.3382 5.50889 52.0982 5.32101 52.9522 5.32101C54.387 5.32101 55.4288 5.74801 56.0779 6.60201C56.7269 7.43894 57.0514 8.53206 57.0514 9.88139V17.0038H53.3621V10.7781C53.3621 9.08716 52.7302 8.2417 51.4663 8.2417C50.7318 8.2417 50.1767 8.50644 49.8009 9.03592C49.4252 9.56541 49.2373 10.2913 49.2373 11.2136ZM67.8397 11.4442V11.188C67.8397 10.2828 67.6006 9.56541 67.1224 9.03592C66.6612 8.48936 66.0463 8.21608 65.2777 8.21608C64.4237 8.21608 63.7747 8.4979 63.3306 9.06154C62.9036 9.60811 62.6901 10.3596 62.6901 11.3161C62.6901 12.2897 62.9036 13.0583 63.3306 13.6219C63.7747 14.1685 64.4237 14.4418 65.2777 14.4418C66.0463 14.4418 66.6612 14.1685 67.1224 13.6219C67.6006 13.0754 67.8397 12.3495 67.8397 11.4442ZM67.8397 17.0038V14.9798C67.5664 15.6801 67.0967 16.2437 66.4306 16.6707C65.7645 17.0977 64.9617 17.3112 64.0223 17.3112C62.3997 17.3112 61.1443 16.7561 60.2562 15.6459C59.3851 14.5186 58.9495 13.0754 58.9495 11.3161C58.9495 9.57395 59.3851 8.13922 60.2562 7.01193C61.1443 5.88465 62.3997 5.32101 64.0223 5.32101C64.9617 5.32101 65.7645 5.54305 66.4306 5.98713C67.0967 6.41413 67.5664 6.97777 67.8397 7.67806V0.863106H71.5546V17.0038H67.8397ZM80.8693 12.1872V11.9566L78.9991 12.3409C78.35 12.4776 77.8718 12.6484 77.5643 12.8533C77.274 13.0412 77.1288 13.3401 77.1288 13.75C77.1288 14.0745 77.2484 14.3393 77.4875 14.5442C77.7266 14.7321 78.0426 14.8261 78.4354 14.8261C79.1357 14.8261 79.7164 14.587 80.1776 14.1087C80.6388 13.6134 80.8693 12.9729 80.8693 12.1872ZM84.5074 9.75329V13.9037C84.5074 14.4674 84.7465 14.7492 85.2248 14.7492C85.5664 14.7492 85.8823 14.6809 86.1727 14.5442V16.517C85.4895 17.0123 84.6867 17.26 83.7644 17.26C83.0812 17.26 82.5005 17.0892 82.0222 16.7476C81.5611 16.3889 81.2451 15.8936 81.0743 15.2616C80.4253 16.5939 79.1528 17.26 77.2569 17.26C76.1125 17.26 75.2073 16.9867 74.5412 16.4401C73.875 15.8936 73.542 15.1335 73.542 14.1599C73.542 13.1351 73.8921 12.3495 74.5924 11.8029C75.3098 11.2393 76.3431 10.8293 77.6924 10.5731L80.8693 10.0095V9.80453C80.8693 8.66016 80.3142 8.08798 79.204 8.08798C78.2305 8.08798 77.6241 8.626 77.385 9.70205L73.9519 9.44585C74.1569 8.18192 74.7205 7.18273 75.6428 6.44829C76.5822 5.69677 77.8376 5.32101 79.409 5.32101C80.9633 5.32101 82.2016 5.68823 83.1239 6.42267C84.0462 7.15711 84.5074 8.26732 84.5074 9.75329ZM87.7241 0.863106H91.4134V17.0038H87.7241V0.863106ZM94.085 0.863106H97.7743V17.0038H94.085V0.863106Z" fill="white"/>
</svg>
