<svg width="75" height="22" viewBox="0 0 75 22" fill="none" xmlns="http://www.w3.org/2000/svg">
<path opacity="0.87" fill-rule="evenodd" clip-rule="evenodd" d="M62.7753 18.1592C62.4719 18.0624 62.2072 17.9504 61.9832 17.8227L60.9267 20.6542C61.399 20.8654 61.8888 21.0347 62.3907 21.1603C62.9026 21.2879 63.4627 21.3518 64.0711 21.3518C65.0311 21.3518 65.8675 21.1509 66.5799 20.751C67.2926 20.3511 67.8568 19.6616 68.2719 18.6863L74.1299 4.81322H69.8094L67.4569 11.6523L65.0811 4.81322H60.5192L65.4886 16.0209L64.8168 17.5353C64.6874 17.8231 64.5308 18.0218 64.3473 18.1338C64.1639 18.2462 63.9206 18.302 63.6154 18.302C63.3605 18.302 63.0802 18.2556 62.7753 18.1592ZM56.0596 11.2814C56.2992 11.2582 56.5407 11.2368 56.78 11.2215V13.4059C56.5715 13.5657 56.3414 13.6951 56.0966 13.7902C55.8471 13.8866 55.573 13.933 55.2678 13.933C54.8527 13.933 54.5282 13.8268 54.2962 13.6104C54.0645 13.3943 53.9467 13.118 53.9467 12.7819C53.9467 12.4614 54.0511 12.17 54.2596 11.9053C54.4684 11.6425 54.8197 11.4688 55.316 11.3894C55.5621 11.3424 55.8102 11.3063 56.0596 11.2814ZM57.0446 15.6138L57.3807 16.527H60.9093V9.13366C60.9093 7.56529 60.4536 6.40841 59.54 5.66484C58.6286 4.91908 57.4039 4.5482 55.8685 4.5482C54.7639 4.5482 53.8154 4.70881 53.0236 5.0293C52.2382 5.34421 51.5119 5.79033 50.8759 6.3486L52.7474 8.43649C53.1106 8.14617 53.5098 7.90392 53.9351 7.71575C54.3489 7.5393 54.7947 7.44995 55.2446 7.45327C55.6601 7.45327 56.0212 7.56529 56.3242 7.78935C56.6277 8.0134 56.78 8.3647 56.78 8.8458V9.13366C56.3752 9.15238 55.9708 9.18006 55.5672 9.21668C55.0896 9.26156 54.6136 9.32201 54.1399 9.39795C53.5981 9.47228 53.0667 9.60915 52.5563 9.80581C52.0596 9.99688 51.6231 10.2459 51.2468 10.549C50.8749 10.8483 50.5723 11.2247 50.36 11.6523C50.144 12.0848 50.0355 12.5909 50.0355 13.1662C50.0355 13.7264 50.1302 14.2227 50.3234 14.6534C50.5092 15.0783 50.783 15.4589 51.1268 15.77C51.4709 16.0829 51.8762 16.3186 52.3399 16.4788C52.8032 16.6369 53.3075 16.7181 53.8521 16.7181C54.5724 16.7181 55.204 16.61 55.7489 16.3936C56.2916 16.1793 56.7241 15.9187 57.0446 15.6134V15.6138ZM31.3667 1.85377L36.5583 16.5267H39.7509L41.5741 10.3808L43.4227 16.5267H46.6385L50.7929 4.81286H46.4953L44.7667 11.0298L42.9667 4.8125H40.2298L38.4298 11.0301L35.4287 1.85414H31.3667V1.85377ZM23.9309 4.8125V7.74076H25.5878V12.878C25.5878 13.469 25.6479 14.0041 25.7676 14.4852C25.8872 14.9659 26.0921 15.3734 26.3803 15.7095C26.6678 16.0456 27.0481 16.3066 27.5194 16.49C27.9925 16.6735 28.5722 16.7663 29.2596 16.7663C30.0768 16.7663 30.7932 16.6695 31.4095 16.4784C32.0255 16.2852 32.5972 16.0071 33.1243 15.6381L32.0447 13.0926C31.824 13.2609 31.5864 13.4058 31.3359 13.5252C31.0788 13.6519 30.796 13.718 30.5093 13.7184C30.204 13.7184 30.009 13.6064 29.9202 13.3823C29.8331 13.1583 29.7889 12.8454 29.7889 12.4455V7.74113H32.6066L31.5697 4.81286H29.7889V1.85994H25.5881V4.81286H23.9309V4.8125ZM19.5275 7.75237C19.8556 8.11128 20.043 8.60434 20.0912 9.22973H16.4429C16.5068 8.62138 16.7192 8.13267 17.0785 7.76397C17.4396 7.39707 17.8587 7.21145 18.3394 7.21145C18.8031 7.21145 19.199 7.39272 19.5275 7.75237ZM17.1035 13.1061C16.6786 12.7141 16.4509 12.1656 16.4179 11.4605H24.0277C24.0121 9.10828 23.4886 7.36807 22.4554 6.23983C21.4239 5.11232 20.0354 4.5482 18.2912 4.5482C17.4436 4.5482 16.6554 4.68343 15.9274 4.9557C15.1991 5.22797 14.5715 5.62786 14.0422 6.15681C13.5129 6.68431 13.0978 7.32746 12.7947 8.08844C12.4894 8.84942 12.3386 9.71627 12.3386 10.6937C12.3386 11.7019 12.497 12.5847 12.8175 13.3457C13.1384 14.1045 13.5709 14.7379 14.1154 15.2403C14.6581 15.7465 15.2937 16.1268 16.0238 16.3816C16.7518 16.6369 17.5302 16.7659 18.3626 16.7659C19.0504 16.7659 19.6703 16.7101 20.2225 16.5981C20.775 16.486 21.2637 16.3258 21.6868 16.1173C22.0884 15.9243 22.4673 15.6872 22.8165 15.4104C23.1449 15.1457 23.4364 14.8539 23.6935 14.5334L21.1245 12.5169C20.8018 12.9168 20.4545 13.2145 20.0796 13.4052C19.7029 13.5988 19.2512 13.6934 18.7237 13.6934C18.0675 13.6934 17.5266 13.4983 17.1031 13.1061H17.1035ZM4.71719 13.6589C4.54897 13.6336 4.37531 13.5991 4.19947 13.5487V7.88397C4.39271 7.82016 4.58377 7.76795 4.77701 7.72953C4.98221 7.68789 5.1912 7.66772 5.40058 7.66934C6.07274 7.66934 6.62924 7.90898 7.06937 8.38791C7.50805 8.869 7.72811 9.61258 7.72811 10.6208C7.72811 11.6617 7.50406 12.4343 7.05596 12.9386C6.60785 13.4425 6.02452 13.6934 5.30414 13.6934C5.08009 13.6934 4.88504 13.6818 4.71682 13.6589H4.71719ZM5.22112 4.63159C4.87566 4.68447 4.53429 4.76127 4.19947 4.86144V0.515625H0.000488281V15.8295C0.719051 16.1021 1.50323 16.3298 2.35122 16.5136C3.20103 16.6989 4.15307 16.7917 5.20771 16.7917C6.16736 16.7917 7.05197 16.6622 7.86153 16.4074C8.66855 16.1503 9.36971 15.762 9.96066 15.2407C10.5538 14.723 11.0135 14.0624 11.342 13.2612C11.6701 12.4614 11.8343 11.517 11.8343 10.4298C11.8343 9.61258 11.7146 8.8458 11.4732 8.12542C11.2339 7.40505 10.8859 6.78111 10.4302 6.25216C9.97444 5.72466 9.40851 5.30773 8.73635 5.00428C8.06419 4.7012 7.30503 4.54856 6.4574 4.54856C5.99189 4.54856 5.58004 4.57539 5.22112 4.63159Z" fill="white"/>
</svg>
