<svg width="85" height="20" viewBox="0 0 85 20" fill="none" xmlns="http://www.w3.org/2000/svg">
<path opacity="0.87" fill-rule="evenodd" clip-rule="evenodd" d="M28.6296 9.99278C28.1555 10.525 27.9184 11.1623 27.9184 11.9052C27.9184 12.6482 28.1555 13.286 28.6296 13.8177C29.1038 14.3499 29.6841 14.6154 30.3718 14.6154C31.0726 14.6154 31.6601 14.3499 32.1348 13.8177C32.6089 13.286 32.846 12.6482 32.846 11.9052C32.846 11.1623 32.6089 10.5255 32.1342 9.99278C31.6601 9.46115 31.0726 9.19506 30.3712 9.19506C29.6841 9.19506 29.1038 9.46115 28.6296 9.99278ZM28.0591 7.90184C28.3312 7.50271 28.7468 7.17858 29.3058 6.92837C29.8648 6.67871 30.4813 6.55388 31.1553 6.55388C32.5602 6.55388 33.7685 7.06032 34.7792 8.07267C35.7899 9.08556 36.2953 10.4122 36.2953 12.0525C36.2953 13.6786 35.7823 15.0047 34.7568 16.0318C33.7318 17.0584 32.5104 17.5719 31.0912 17.5719C30.4451 17.5719 29.8506 17.4509 29.3063 17.2084C28.761 16.9659 28.3383 16.6379 28.0372 16.224V17.0562C28.0386 17.1158 28.0279 17.1751 28.0057 17.2305C27.9834 17.2858 27.9501 17.336 27.9078 17.378C27.8654 17.4201 27.815 17.453 27.7595 17.4749C27.704 17.4967 27.6446 17.507 27.585 17.5051L25.4349 17.5057C25.2914 17.5057 25.1776 17.463 25.0911 17.3776C25.0486 17.3359 25.0152 17.2858 24.993 17.2306C24.9708 17.1754 24.9602 17.1162 24.9618 17.0567V2.7454C24.9618 2.61674 25.0046 2.50997 25.0911 2.42402C25.177 2.3386 25.2914 2.2959 25.4349 2.2959H27.6074C27.7218 2.2959 27.8253 2.3386 27.9189 2.42402C28.012 2.50997 28.0591 2.61674 28.0591 2.7454V7.9013V7.90184ZM40.827 6.66228V12.2085C40.827 12.9148 41.0039 13.4722 41.357 13.8812C41.7101 14.2913 42.233 14.4955 42.9262 14.4955C43.6051 14.4955 44.1307 14.2913 44.5057 13.8812C44.8802 13.4722 45.068 12.9285 45.068 12.2507V6.66228C45.068 6.54895 45.114 6.4504 45.2054 6.36553C45.2876 6.28484 45.398 6.23929 45.5131 6.23851H47.655C47.7957 6.23851 47.909 6.2845 47.9939 6.37594C48.0779 6.46448 48.1237 6.58245 48.1215 6.70444V16.5689C48.1232 16.6278 48.1127 16.6863 48.0908 16.741C48.0688 16.7956 48.0358 16.8451 47.9939 16.8865C47.909 16.9713 47.7957 17.014 47.6545 17.014H45.5131C45.3961 17.0176 45.2823 16.9756 45.1956 16.8969C45.1533 16.8581 45.12 16.8106 45.098 16.7576C45.076 16.7047 45.0657 16.6476 45.068 16.5903V15.7028C44.3048 16.6209 43.2722 17.0792 41.9724 17.0792C40.6858 17.0792 39.6641 16.6806 38.908 15.8823C38.1519 15.0852 37.7736 14.0296 37.7736 12.7166V6.66228C37.7736 6.54895 37.8228 6.4504 37.9214 6.36553C38.0084 6.28553 38.1218 6.24032 38.24 6.23851H40.3605C40.4881 6.23851 40.5971 6.28067 40.689 6.36553C40.732 6.40218 40.7666 6.44766 40.7904 6.49887C40.8142 6.55008 40.8267 6.60581 40.827 6.66228ZM54.2842 6.23851C55.2156 6.23851 56.0374 6.37484 56.7502 6.64586C57.4625 6.91742 58.0095 7.23662 58.3906 7.6029C58.7289 7.88213 58.7432 8.20516 58.4333 8.57145L57.6498 9.49509C57.3957 9.80334 57.0574 9.82524 56.6336 9.56189C55.8014 8.98974 55.0184 8.7034 54.2848 8.7034C53.8889 8.7034 53.5676 8.78005 53.3212 8.93444C53.0748 9.08829 52.9511 9.27554 52.9511 9.49509C52.9511 9.9216 53.3453 10.2145 54.1364 10.376L55.7658 10.7056C57.8967 11.1316 58.9622 12.2096 58.9622 13.9414C58.9622 14.997 58.5313 15.8665 57.6711 16.5487C56.8104 17.2314 55.6881 17.5719 54.3056 17.5719C52.7813 17.5719 51.4761 17.1755 50.3898 16.3839C49.5149 15.7531 49.3665 15.2029 49.9452 14.7337L50.8765 13.9852C51.2149 13.7208 51.5609 13.7432 51.9135 14.0509C52.7041 14.7703 53.5363 15.1295 54.4113 15.1295C54.8624 15.1295 55.2123 15.0414 55.4592 14.8656C55.7056 14.6888 55.8293 14.4769 55.8293 14.2267C55.8293 13.9775 55.7132 13.7832 55.4805 13.6436C55.2473 13.5045 54.8695 13.3835 54.3478 13.2806L52.6549 12.9066C51.7936 12.7303 51.1131 12.3717 50.6121 11.828C50.1111 11.286 49.8604 10.5885 49.8604 9.73764C49.8604 8.74008 50.2628 7.90732 51.0671 7.2399C51.8719 6.57249 52.9434 6.23851 54.2842 6.23851ZM68.2047 17.1422V11.9446C68.2047 11.1853 67.9999 10.5759 67.5898 10.1176C67.1792 9.65935 66.6141 9.42994 65.8925 9.42994C65.1715 9.42994 64.5916 9.66318 64.1531 10.1286C63.7151 10.5939 63.4955 11.1995 63.4955 11.9446V17.1422C63.4976 17.2012 63.4863 17.26 63.4624 17.314C63.4385 17.3681 63.4026 17.416 63.3576 17.4542C63.2663 17.5326 63.1493 17.5745 63.0291 17.5719H60.8867C60.8274 17.5728 60.7687 17.5616 60.7139 17.5392C60.6591 17.5168 60.6094 17.4836 60.5677 17.4415C60.5261 17.3995 60.4933 17.3494 60.4714 17.2944C60.4496 17.2394 60.439 17.1805 60.4404 17.1213V2.74705C60.4404 2.61838 60.4831 2.51162 60.568 2.42456C60.6094 2.38237 60.6591 2.3492 60.7139 2.32715C60.7688 2.3051 60.8276 2.29465 60.8867 2.29645H63.0285C63.1566 2.29645 63.2656 2.33587 63.3576 2.41471C63.4026 2.45274 63.4384 2.50049 63.4623 2.55435C63.4862 2.60822 63.4975 2.6668 63.4955 2.72569V7.96864C64.2593 7.03787 65.3762 6.57249 66.8474 6.57249C68.1904 6.57249 69.2657 7.00174 70.0722 7.86133C70.8781 8.72092 71.2811 9.80225 71.2811 11.1064V17.1422C71.2833 17.2012 71.272 17.26 71.2481 17.3141C71.2242 17.3682 71.1883 17.4161 71.1431 17.4542C71.0519 17.5326 70.9349 17.5746 70.8146 17.5719H68.6717C68.5512 17.5744 68.434 17.5323 68.3426 17.4537C68.2976 17.4155 68.2618 17.3677 68.2379 17.3137C68.214 17.2598 68.2027 17.2011 68.2047 17.1422Z" fill="white"/>
<mask id="mask0_2_4086" style="mask-type:alpha" maskUnits="userSpaceOnUse" x="72" y="6" width="13" height="12">
<path d="M72.7595 6.23828H84.093V17.5717H72.7595V6.23828Z" fill="white"/>
</mask>
<g mask="url(#mask0_2_4086)">
<path fill-rule="evenodd" clip-rule="evenodd" d="M76.4196 9.99255C75.9504 10.5253 75.7161 11.162 75.7161 11.905C75.7161 12.648 75.9504 13.2858 76.4196 13.8175C76.8888 14.3496 77.4758 14.6152 78.1799 14.6152C78.8834 14.6152 79.4703 14.3496 79.9401 13.8175C80.4088 13.2858 80.6437 12.648 80.6437 11.905C80.6437 11.162 80.4088 10.5253 79.9401 9.99255C79.4703 9.46092 78.8834 9.19483 78.1799 9.19483C77.4758 9.19483 76.8888 9.46092 76.4196 9.99255ZM74.3183 15.9878C73.2797 14.9305 72.7595 13.5661 72.7595 11.8941C72.7595 10.2214 73.2791 8.86085 74.3183 7.81182C75.3575 6.7628 76.5877 6.23828 78.0068 6.23828C78.6803 6.23828 79.2864 6.37461 79.8235 6.64563C80.3617 6.91719 80.7592 7.26541 81.0171 7.69082V6.79017C81.0171 6.65877 81.0636 6.54489 81.1572 6.44907C81.2503 6.35435 81.3543 6.30672 81.4693 6.30672H83.6413C83.7705 6.30672 83.8778 6.35435 83.9637 6.44907C84.0489 6.54206 84.0951 6.66413 84.093 6.79017V17.0417C84.0948 17.1026 84.0843 17.1633 84.0621 17.22C84.0399 17.2768 84.0064 17.3284 83.9637 17.3719C83.9221 17.415 83.8719 17.449 83.8164 17.4718C83.7609 17.4945 83.7012 17.5054 83.6413 17.5038H81.4693C81.3543 17.5038 81.2503 17.46 81.1572 17.3724C81.1117 17.3304 81.0757 17.2792 81.0516 17.2222C81.0276 17.1651 81.016 17.1036 81.0176 17.0417V16.1192C80.7592 16.5451 80.3617 16.8934 79.824 17.1649C79.2864 17.4359 78.6743 17.5717 77.9855 17.5717C76.58 17.5717 75.3575 17.0434 74.3183 15.9872" fill="white"/>
</g>
<mask id="mask1_2_4086" style="mask-type:alpha" maskUnits="userSpaceOnUse" x="3" y="0" width="17" height="12">
<path d="M3.77295 0.325195H19.5412V11.1659H3.77295V0.325195Z" fill="white"/>
</mask>
<g mask="url(#mask1_2_4086)">
<path fill-rule="evenodd" clip-rule="evenodd" d="M18.2425 10.5926L17.343 11.1664L15.5017 7.85284C14.9974 6.94847 14.2606 6.19535 13.3674 5.67148C12.4743 5.14761 11.4573 4.87203 10.4219 4.87329H3.77295L10.2839 0.725363C10.7709 0.415599 11.3483 0.279833 11.9223 0.340181C12.4962 0.400529 13.0328 0.653434 13.4447 1.0577L18.7063 6.24261C19.9885 7.50571 19.7629 9.62403 18.2425 10.5931" fill="#67C462"/>
</g>
<mask id="mask2_2_4086" style="mask-type:alpha" maskUnits="userSpaceOnUse" x="0" y="6" width="19" height="14">
<path d="M0.816406 6.23828H18.0629V19.5428H0.816406V6.23828Z" fill="white"/>
</mask>
<g mask="url(#mask2_2_4086)">
<path fill-rule="evenodd" clip-rule="evenodd" d="M15.4448 19.5428H7.70298C7.32046 19.541 6.94652 19.4292 6.62584 19.2206C6.30516 19.0121 6.05129 18.7156 5.89456 18.3667L0.965337 7.56325L0.891971 7.40064C0.843223 7.29496 0.817477 7.18013 0.816439 7.06375C0.815401 6.94737 0.839093 6.8321 0.885948 6.72556C0.891424 6.71078 0.899089 6.69819 0.906206 6.68231C0.972178 6.54937 1.07386 6.43742 1.19986 6.35899C1.32586 6.28057 1.4712 6.23877 1.61961 6.23828H10.0622C11.6697 6.23828 13.1502 7.12853 13.9254 8.56191L15.7902 12.0052L17.7339 15.5919C18.6948 17.3675 17.4355 19.5428 15.4453 19.5428" fill="#74DF70"/>
</g>
</svg>
