<svg width="17" height="16" viewBox="0 0 17 16" fill="none" xmlns="http://www.w3.org/2000/svg">
<path d="M6.8207 7.74671C6.8007 7.74671 6.78736 7.74671 6.76736 7.74671C6.73403 7.74004 6.68736 7.74004 6.64736 7.74671C4.71403 7.68671 3.25403 6.16671 3.25403 4.29337C3.25403 2.38671 4.80736 0.833374 6.71403 0.833374C8.6207 0.833374 10.174 2.38671 10.174 4.29337C10.1674 6.16671 8.7007 7.68671 6.8407 7.74671C6.83403 7.74671 6.82736 7.74671 6.8207 7.74671ZM6.71403 1.83337C5.3607 1.83337 4.25403 2.94004 4.25403 4.29337C4.25403 5.62671 5.29403 6.70004 6.6207 6.74671C6.6607 6.74004 6.74736 6.74004 6.83403 6.74671C8.1407 6.68671 9.16736 5.61337 9.17403 4.29337C9.17403 2.94004 8.06736 1.83337 6.71403 1.83337Z" fill="#13BE95"/>
<path d="M11.7407 7.83329C11.7207 7.83329 11.7007 7.83329 11.6807 7.82663C11.4074 7.85329 11.1274 7.65996 11.1007 7.38663C11.074 7.11329 11.2407 6.86663 11.514 6.83329C11.594 6.82663 11.6807 6.82663 11.754 6.82663C12.7274 6.77329 13.4874 5.97329 13.4874 4.99329C13.4874 3.97996 12.6674 3.15996 11.654 3.15996C11.3807 3.16663 11.154 2.93996 11.154 2.66663C11.154 2.39329 11.3807 2.16663 11.654 2.16663C13.214 2.16663 14.4874 3.43996 14.4874 4.99996C14.4874 6.53329 13.2874 7.77329 11.7607 7.83329C11.754 7.83329 11.7474 7.83329 11.7407 7.83329Z" fill="#13BE95"/>
<path d="M6.82737 15.0333C5.5207 15.0333 4.20737 14.7 3.21403 14.0333C2.28737 13.42 1.7807 12.58 1.7807 11.6666C1.7807 10.7533 2.28737 9.90663 3.21403 9.28663C5.21403 7.95996 8.45403 7.95996 10.4407 9.28663C11.3607 9.89996 11.874 10.74 11.874 11.6533C11.874 12.5666 11.3674 13.4133 10.4407 14.0333C9.4407 14.7 8.13403 15.0333 6.82737 15.0333ZM3.76737 10.1266C3.12737 10.5533 2.7807 11.1 2.7807 11.6733C2.7807 12.24 3.13403 12.7866 3.76737 13.2066C5.42737 14.32 8.22737 14.32 9.88737 13.2066C10.5274 12.78 10.874 12.2333 10.874 11.66C10.874 11.0933 10.5207 10.5466 9.88737 10.1266C8.22737 9.01996 5.42737 9.01996 3.76737 10.1266Z" fill="#13BE95"/>
<path d="M12.9407 13.8333C12.7074 13.8333 12.5007 13.6733 12.454 13.4333C12.4007 13.16 12.574 12.9 12.8407 12.84C13.2607 12.7533 13.6474 12.5867 13.9474 12.3533C14.3274 12.0667 14.534 11.7067 14.534 11.3267C14.534 10.9467 14.3274 10.5867 13.954 10.3067C13.6607 10.08 13.294 9.92001 12.8607 9.82001C12.594 9.76001 12.4207 9.49335 12.4807 9.22001C12.5407 8.95335 12.8074 8.78001 13.0807 8.84001C13.654 8.96668 14.154 9.19335 14.5607 9.50668C15.1807 9.97335 15.534 10.6333 15.534 11.3267C15.534 12.02 15.174 12.68 14.554 13.1533C14.1407 13.4733 13.6207 13.7067 13.0474 13.82C13.0074 13.8333 12.974 13.8333 12.9407 13.8333Z" fill="#13BE95"/>
</svg>
