<svg width="17" height="16" viewBox="0 0 17 16" fill="none" xmlns="http://www.w3.org/2000/svg">
<path d="M6.82057 7.74659C6.80057 7.74659 6.78724 7.74659 6.76724 7.74659C6.73391 7.73992 6.68724 7.73992 6.64724 7.74659C4.71391 7.68659 3.25391 6.16659 3.25391 4.29325C3.25391 2.38659 4.80724 0.833252 6.71391 0.833252C8.62057 0.833252 10.1739 2.38659 10.1739 4.29325C10.1672 6.16659 8.70057 7.68659 6.84057 7.74659C6.83391 7.74659 6.82724 7.74659 6.82057 7.74659ZM6.71391 1.83325C5.36057 1.83325 4.25391 2.93992 4.25391 4.29325C4.25391 5.62659 5.29391 6.69992 6.62057 6.74659C6.66057 6.73992 6.74724 6.73992 6.83391 6.74659C8.14057 6.68659 9.16724 5.61325 9.17391 4.29325C9.17391 2.93992 8.06724 1.83325 6.71391 1.83325Z" fill="#201F22"/>
<path d="M11.7404 7.83342C11.7204 7.83342 11.7004 7.83342 11.6804 7.82675C11.4071 7.85342 11.1271 7.66008 11.1004 7.38675C11.0738 7.11342 11.2404 6.86675 11.5138 6.83342C11.5938 6.82675 11.6804 6.82675 11.7538 6.82675C12.7271 6.77342 13.4871 5.97342 13.4871 4.99341C13.4871 3.98008 12.6671 3.16008 11.6538 3.16008C11.3804 3.16675 11.1538 2.94008 11.1538 2.66675C11.1538 2.39341 11.3804 2.16675 11.6538 2.16675C13.2138 2.16675 14.4871 3.44008 14.4871 5.00008C14.4871 6.53342 13.2871 7.77342 11.7604 7.83342C11.7538 7.83342 11.7471 7.83342 11.7404 7.83342Z" fill="#201F22"/>
<path d="M6.82694 15.0334C5.52027 15.0334 4.20694 14.7001 3.21361 14.0334C2.28694 13.4201 1.78027 12.5801 1.78027 11.6667C1.78027 10.7534 2.28694 9.90675 3.21361 9.28675C5.21361 7.96008 8.45361 7.96008 10.4403 9.28675C11.3603 9.90008 11.8736 10.7401 11.8736 11.6534C11.8736 12.5667 11.3669 13.4134 10.4403 14.0334C9.44027 14.7001 8.13361 15.0334 6.82694 15.0334ZM3.76694 10.1267C3.12694 10.5534 2.78027 11.1001 2.78027 11.6734C2.78027 12.2401 3.13361 12.7867 3.76694 13.2067C5.42694 14.3201 8.22694 14.3201 9.88694 13.2067C10.5269 12.7801 10.8736 12.2334 10.8736 11.6601C10.8736 11.0934 10.5203 10.5467 9.88694 10.1267C8.22694 9.02008 5.42694 9.02008 3.76694 10.1267Z" fill="#201F22"/>
<path d="M12.9406 13.8333C12.7073 13.8333 12.5006 13.6733 12.454 13.4333C12.4006 13.16 12.574 12.9 12.8406 12.84C13.2606 12.7533 13.6473 12.5867 13.9473 12.3533C14.3273 12.0667 14.534 11.7067 14.534 11.3267C14.534 10.9467 14.3273 10.5867 13.954 10.3067C13.6606 10.08 13.294 9.92001 12.8606 9.82001C12.594 9.76001 12.4206 9.49335 12.4806 9.22001C12.5406 8.95335 12.8073 8.78001 13.0806 8.84001C13.654 8.96668 14.154 9.19335 14.5606 9.50668C15.1806 9.97335 15.534 10.6333 15.534 11.3267C15.534 12.02 15.174 12.68 14.554 13.1533C14.1406 13.4733 13.6206 13.7067 13.0473 13.82C13.0073 13.8333 12.974 13.8333 12.9406 13.8333Z" fill="#201F22"/>
</svg>
