<svg width="17" height="18" viewBox="0 0 17 18" fill="none" xmlns="http://www.w3.org/2000/svg">
<g clip-path="url(#clip0_2_4166)">
<path d="M8.45299 9.20474C9.24829 9.20474 10.0257 8.95649 10.687 8.49139C11.3483 8.02629 11.8637 7.36523 12.168 6.5918C12.4723 5.81837 12.552 4.9673 12.3968 4.14623C12.2417 3.32516 11.8587 2.57096 11.2963 1.979C10.734 1.38704 10.0175 0.983912 9.23746 0.820591C8.45745 0.657269 7.64894 0.741092 6.91418 1.06146C6.17942 1.38182 5.55141 1.92434 5.10956 2.62041C4.66772 3.31648 4.43188 4.13484 4.43188 4.972C4.43295 6.09425 4.85694 7.17021 5.61081 7.96376C6.36469 8.75731 7.38685 9.20362 8.45299 9.20474ZM8.45299 2.15017C8.98319 2.15017 9.50148 2.31567 9.94232 2.62574C10.3832 2.9358 10.7268 3.37651 10.9297 3.89213C11.1326 4.40775 11.1856 4.97513 11.0822 5.52251C10.9788 6.06989 10.7235 6.57269 10.3486 6.96733C9.97364 7.36197 9.49598 7.63072 8.97597 7.7396C8.45596 7.84848 7.91695 7.7926 7.42711 7.57903C6.93727 7.36545 6.5186 7.00377 6.22404 6.53972C5.92947 6.07567 5.77225 5.5301 5.77225 4.972C5.77225 4.2236 6.05469 3.50586 6.55742 2.97667C7.06016 2.44747 7.74201 2.15017 8.45299 2.15017Z" fill="#F3C54C"/>
<path d="M8.4528 10.6152C6.85365 10.6171 5.3205 11.2866 4.18973 12.4769C3.05896 13.6672 2.42292 15.281 2.42114 16.9643C2.42114 17.1514 2.49175 17.3309 2.61743 17.4632C2.74312 17.5955 2.91358 17.6698 3.09133 17.6698C3.26907 17.6698 3.43953 17.5955 3.56522 17.4632C3.6909 17.3309 3.76151 17.1514 3.76151 16.9643C3.76151 15.6547 4.25577 14.3986 5.13556 13.4725C6.01534 12.5464 7.20859 12.0261 8.4528 12.0261C9.697 12.0261 10.8902 12.5464 11.77 13.4725C12.6498 14.3986 13.1441 15.6547 13.1441 16.9643C13.1441 17.1514 13.2147 17.3309 13.3404 17.4632C13.4661 17.5955 13.6365 17.6698 13.8143 17.6698C13.992 17.6698 14.1625 17.5955 14.2882 17.4632C14.4138 17.3309 14.4844 17.1514 14.4844 16.9643C14.4827 15.281 13.8466 13.6672 12.7159 12.4769C11.5851 11.2866 10.0519 10.6171 8.4528 10.6152Z" fill="#F3C54C"/>
</g>
<defs>
<clipPath id="clip0_2_4166">
<rect width="16.0844" height="16.931" fill="white" transform="translate(0.410889 0.739258)"/>
</clipPath>
</defs>
</svg>
