<svg width="41" height="41" viewBox="0 0 41 41" fill="none" xmlns="http://www.w3.org/2000/svg">
<g clip-path="url(#clip0_2_2334)">
<path d="M32.8198 3.75977H7.81982C3.68482 3.75977 0.319824 7.12477 0.319824 11.2598V29.5931C0.319824 33.7281 3.68482 37.0931 7.81982 37.0931H32.8198C36.9548 37.0931 40.3198 33.7281 40.3198 29.5931V11.2598C40.3198 7.12477 36.9548 3.75977 32.8198 3.75977ZM7.81982 5.42643H32.8198C36.0365 5.42643 38.6532 8.0431 38.6532 11.2598V12.0931H1.98649V11.2598C1.98649 8.0431 4.60316 5.42643 7.81982 5.42643ZM32.8198 35.4264H7.81982C4.60316 35.4264 1.98649 32.8098 1.98649 29.5931V13.7598H8.65316V26.2598C8.65316 27.6381 9.77482 28.7598 11.1532 28.7598H19.4865C19.9465 28.7598 20.3198 28.3864 20.3198 27.9264C20.3198 27.4664 19.9465 27.0931 19.4865 27.0931H11.1532C10.6948 27.0931 10.3198 26.7181 10.3198 26.2598V22.0931H16.1532C16.6132 22.0931 16.9865 21.7198 16.9865 21.2598C16.9865 20.7998 16.6132 20.4264 16.1532 20.4264H10.3198V13.7598H38.6532V29.5931C38.6532 32.8098 36.0365 35.4264 32.8198 35.4264ZM30.3198 27.9264C30.3198 28.3864 29.9465 28.7598 29.4865 28.7598H24.4865C24.0265 28.7598 23.6532 28.3864 23.6532 27.9264C23.6532 27.4664 24.0265 27.0931 24.4865 27.0931H29.4865C29.9465 27.0931 30.3198 27.4664 30.3198 27.9264ZM26.1532 22.0931H21.1532C20.6932 22.0931 20.3198 21.7198 20.3198 21.2598C20.3198 20.7998 20.6932 20.4264 21.1532 20.4264H26.1532C26.6132 20.4264 26.9865 20.7998 26.9865 21.2598C26.9865 21.7198 26.6132 22.0931 26.1532 22.0931Z" fill="#1D242D"/>
</g>
<defs>
<clipPath id="clip0_2_2334">
<rect width="40" height="40" fill="white" transform="translate(0.319824 0.426758)"/>
</clipPath>
</defs>
</svg>
