<svg width="36" height="25" viewBox="0 0 36 25" fill="none" xmlns="http://www.w3.org/2000/svg">
<path d="M2.84308 7.54612C1.57411 9.1872 1.86174 9.98236 1.64179 12.4524C1.60795 12.757 2.31858 14.0766 2.87692 14.4488C3.50295 14.8549 4.19665 15.0748 5.02572 14.9394C6.63308 14.6688 8.17277 10.1346 10.0847 8.73041C11.2691 7.64763 14.1623 5.14371 15.0083 5.38057C15.0083 5.38057 15.9389 -0.0333106 15.6174 0.0174445C8.29121 1.37091 5.60098 5.10987 4.29817 6.64945C4.28125 6.64945 3.19839 7.07241 2.84308 7.54612Z" fill="#F73555"/>
<path d="M2.42002 14.399C2.42002 14.399 2.26774 15.1096 1.89551 16.2938L4.33193 17.715C4.09506 16.3108 4.70417 14.9573 4.70417 14.9573C2.84301 14.8389 2.55537 13.7392 2.04778 13.4177L2.42002 14.399Z" fill="#E2A379"/>
<path d="M3.09812 21.031C3.45343 22.0461 4.40093 22.2153 4.9762 22.2492C6.76968 22.3507 7.46339 21.6063 8.19093 20.5235C9.15535 19.1023 5.7545 16.0232 5.04388 15.7187C3.18272 14.9235 1.00009 16.7676 0.357141 17.6812C-0.370404 18.6794 0.171026 18.6625 0.594017 18.9162C0.610937 18.9332 0.644774 19.0177 0.644774 19.0177C0.780131 19.1193 0.983169 19.2377 1.10161 19.4576C1.10161 19.4576 1.25388 19.5084 1.32156 19.5422C1.37232 19.5761 1.38924 19.593 1.37232 19.6606C1.32156 19.8467 1.2708 20.0159 1.30464 20.1174C1.37232 20.422 2.94584 20.5573 3.09812 21.031Z" fill="#F4B382"/>
<path d="M1.32575 18.7126C1.32575 18.7126 1.20731 18.7634 0.885838 19.2371C0.868918 19.3048 0.868918 19.4571 1.05503 19.4571C1.19039 19.4571 1.15655 19.0679 1.32575 18.7126Z" fill="#D6876B"/>
<path d="M1.31773 18.7122C1.31773 18.7122 1.01318 18.6445 0.624029 18.9998C0.59019 19.0675 0.60711 19.1521 0.624029 19.169C0.725547 19.3212 0.877824 19.2197 0.877824 19.2197C1.1993 18.7629 1.31773 18.7122 1.31773 18.7122Z" fill="#CC785E"/>
<path d="M8.49526 20.5724C9.66272 18.8298 8.73214 14.8202 4.18075 15.2093C3.8762 15.2431 3.40245 15.4461 3.43629 16.2582C3.47013 16.8335 3.67316 17.3579 3.67316 17.3579C3.74084 17.5102 3.80852 17.6794 3.8762 17.8486C3.9608 18.0347 4.89138 18.5084 4.80678 18.7114C3.92696 20.5893 4.33303 21.9259 4.78986 22.2304C6.02499 22.7549 7.24321 22.4334 8.49526 20.5724Z" fill="#602F0F"/>
<path d="M4.36556 17.392C3.41806 17.1382 3.16427 17.4258 2.89355 17.9165L4.26405 18.4748L4.90699 18.5594C5.17771 18.0687 5.31306 17.6458 4.36556 17.392Z" fill="#F4B382"/>
<path d="M7.68593 16.0735C8.31196 15.9043 9.02258 16.6487 9.27638 17.7653C9.53017 18.882 9.24254 19.8971 8.61651 20.0662C7.99049 20.2354 7.51674 19.5756 7.26294 18.4759C7.00915 17.3593 7.07683 16.2427 7.68593 16.0735Z" fill="#4C230C"/>
<path d="M4.50055 18.7469C4.65282 18.8146 4.78818 18.8992 4.8897 18.9669C5.04198 19.0684 5.10966 19.153 5.10966 19.153L5.26193 18.527C5.19425 18.4762 5.10965 18.4255 5.04198 18.3747C5.04198 18.3747 5.02506 18.4424 4.99122 18.5608V18.5439C4.83894 18.5439 4.60207 18.5101 4.28059 18.4086C4.29751 18.4255 4.0268 18.527 4.50055 18.7469ZM7.93524 15.82C8.5951 15.6339 9.35648 16.4629 9.6272 17.6811C9.91483 18.8823 9.61028 20.0158 8.95041 20.185C8.29055 20.3711 7.78296 19.6267 7.51224 18.4255C7.22461 17.2243 7.27537 15.9892 7.93524 15.82Z" fill="#602F0F"/>
<path d="M9.29152 17.1399C9.3592 17.123 9.49456 17.4106 9.57916 17.7658C9.66375 18.1381 9.68068 18.4426 9.59608 18.4764C9.5284 18.4933 9.42688 18.2565 9.34228 17.8843C9.25768 17.529 9.20692 17.1568 9.29152 17.1399Z" fill="#4C230C"/>
<path d="M35.4429 23.8896L30.0624 23.9234C28.8104 24.1602 28.9288 22.756 29.2164 22.4007C29.3856 22.1808 29.2334 19.3554 28.8104 14.6183C28.6581 12.9434 32.2451 13.2141 32.1774 13.8062C31.5852 18.3572 30.7392 20.7089 31.1115 21.5041C31.1115 21.5041 35.1722 22.5361 35.6798 22.9083C35.9843 23.1621 36.3058 23.5681 35.4429 23.8896Z" fill="#F4B382"/>
<path d="M28.713 9.83075C28.6115 10.9643 28.6623 12.2332 28.8146 14.6356C29.5421 14.0942 31.4709 13.925 32.1816 13.8235C32.1985 13.096 32.52 7.90205 32.52 7.90205C31.8093 6.58242 26.8857 3.16491 25.1938 2.26823C23.5187 1.37156 20.6931 0.373376 19.4411 0.238029C17.4615 0.0180899 16.5817 -0.0326657 15.6003 0.0180894L14.9912 5.38121C14.9912 5.38121 16.1079 5.93952 17.6476 6.1087C19.3057 6.29481 20.4055 5.5504 20.4055 5.5504C23.045 7.41142 28.713 9.83075 28.713 9.83075Z" fill="#3D3C3C"/>
<path d="M3.08628 23.6516C3.37391 22.8226 3.72923 21.4184 3.72923 21.4184C4.06762 20.3018 4.57521 18.8468 4.86284 17.8317C5.38735 16.1906 5.64115 14.9894 5.82726 14.6003C6.14873 13.9574 6.45329 12.9761 6.11489 12.3671C5.59039 11.4196 4.10146 10.8106 3.44159 11.7919C2.46025 13.2299 1.36048 20.4541 1.39432 22.129C1.41124 22.8226 1.52967 23.2963 1.66503 23.4486C1.80039 23.6009 2.2403 23.787 2.83249 23.7193C2.90016 23.7024 2.98476 23.6855 3.08628 23.6516Z" fill="#F4B382"/>
<path d="M9.94196 22.2468C6.21964 22.3483 5.05218 22.0607 4.08776 21.8407C3.10642 21.6208 1.92205 21.6546 1.75285 21.6377C1.70209 21.773 1.65134 21.8915 1.6175 21.9761C1.38062 22.6359 1.49906 23.025 1.56674 23.2111C1.56674 23.2111 1.78669 23.8202 2.37888 23.9555C3.5125 24.2431 10.3142 23.6002 10.3142 23.6002L9.94196 22.2468Z" fill="#F4B382"/>
<path d="M9.93732 22.2472C9.90348 22.2641 9.88656 22.4671 10.208 23.6345C10.208 23.6345 10.5464 23.5837 11.1386 23.6683C11.9508 23.7867 13.0844 23.4991 13.6596 23.0931C14.1503 22.7378 14.4379 22.0272 14.3195 21.4182C14.2011 20.7922 11.6293 21.6212 10.8171 21.6212L9.93732 22.2472Z" fill="#F4B382"/>
<path d="M11.6652 21.7061C11.6652 21.7061 12.5112 21.6215 12.5112 21.1647C12.5112 20.7925 12.4774 20.6572 10.8192 21.6046C10.8023 21.6046 10.8869 21.8584 11.6652 21.7061Z" fill="#F4B382"/>
</svg>
