<svg width="46" height="32" viewBox="0 0 46 32" fill="none" xmlns="http://www.w3.org/2000/svg">
<path d="M21.0094 0.608154C20.5473 0.608154 20.7905 2.52945 20.6689 3.11313L20.9851 3.80625C20.7054 8.0258 21.4593 9.86197 21.4593 9.86197C21.1797 12.3791 20.8757 17.231 21.0459 18.1795C21.204 19.1279 23.1495 19.0185 23.2225 18.0457C23.2955 17.0851 23.259 16.2217 23.2468 15.261C23.2468 14.3004 23.1009 10.7132 23.0158 9.87413C23.0036 9.76469 22.0187 3.80625 22.0187 3.80625C22.0187 3.80625 22.0308 3.56305 22.1646 3.16177C22.3592 2.60241 22.3105 1.76336 22.1038 1.31344C21.9214 0.924316 21.4593 0.608154 21.0094 0.608154Z" fill="#E2A379"/>
<path d="M20.8511 2.52919C20.8511 2.52919 20.8997 1.92119 20.5835 1.86039C20.316 1.81175 20.2187 1.82391 20.6565 3.11288C20.6565 3.11288 20.8389 3.10072 20.8511 2.52919Z" fill="#E2A379"/>
<path d="M0.130398 31.1053C0.628948 30.8013 1.95436 30.5094 2.53803 30.0352C2.8785 29.7555 3.55945 29.2448 3.98504 29.2326C4.69031 29.2083 5.00646 29.5974 5.20102 29.6218C6.417 29.792 9.63934 28.7584 10.3689 28.7341C11.5727 28.6976 11.2687 31.0202 10.831 31.0323C7.26818 31.1661 5.46853 31.1053 4.83623 31.0688C4.83623 31.0688 1.16398 31.6403 0.701906 31.6403C0.434391 31.6646 -0.295194 31.3728 0.130398 31.1053Z" fill="#E2A379"/>
<path d="M14.2991 28.6613C12.9008 28.5884 11.5632 28.6127 10.3594 28.7343C10.5418 29.1234 10.6998 30.692 10.6147 31.0568C11.0525 31.0568 14.4451 31.3122 14.4451 31.3122C15.5151 31.3608 21.8382 31.7621 23.7716 31.3487C24.2701 31.2636 24.7079 31.1298 25.0727 31.0082C25.7658 30.765 23.2487 27.5061 23.2487 27.5061C21.3761 27.5304 18.1051 28.3695 17.1445 28.564C16.1717 28.7708 14.2991 28.6613 14.2991 28.6613Z" fill="#333333"/>
<path d="M20.6191 26.8856C20.6191 26.8856 20.1449 27.8219 19.9747 28.6245C19.695 29.9256 20.303 30.7038 20.8502 31.093C21.6162 31.6645 24.5102 31.8347 24.5102 31.0321C24.5102 29.3784 24.9966 28.5272 25.1426 27.7368C25.2398 27.2017 22.7349 26.46 22.7349 26.46L20.6191 26.8856Z" fill="#3D3C3C"/>
<path d="M25.313 18.787C25.3617 17.2913 24.1214 16.9144 23.3067 15.3214C23.2094 15.1269 22.2853 14.5797 21.7989 14.5675C21.2638 14.5553 20.7166 14.6405 20.3032 15.0782C19.9871 15.4187 19.3548 16.4766 19.8776 19.2734C20.0357 20.5746 21.3368 25.4386 20.6315 26.8856C20.6315 26.8856 22.2974 26.7276 23.2702 26.9708C24.243 27.214 25.1306 27.7369 25.1306 27.7369C25.4711 23.2011 24.5591 21.365 24.778 19.8693C24.778 19.8814 25.3009 19.2126 25.313 18.787Z" fill="#F73555"/>
<path d="M22.9297 14.6769C22.9297 14.6769 22.5406 13.5947 22.2974 12.6219L20.668 12.5125C20.9841 13.4853 20.7531 14.7985 20.7531 14.7985C22.2731 14.6405 22.9054 15.1633 23.3066 15.3214L22.9297 14.6769Z" fill="#E2A379"/>
<path d="M21.7647 9.22941C21.6066 8.47549 20.9378 8.28093 20.5365 8.20797C19.2719 7.97693 18.7004 8.45117 18.0924 9.15645C17.2777 10.0928 19.43 12.5734 19.9164 12.8531C21.181 13.5706 22.8834 12.4518 23.4306 11.856C24.0264 11.1993 23.6494 11.175 23.3698 10.9561C23.3576 10.944 23.3454 10.8832 23.3454 10.8832C23.2603 10.7981 23.1266 10.7008 23.0536 10.5305C23.0536 10.5305 22.9442 10.4819 22.9077 10.4454C22.8712 10.4211 22.859 10.4089 22.8834 10.3603C22.932 10.2265 22.9806 10.1171 22.9806 10.0441C22.9563 9.8131 21.8376 9.58206 21.7647 9.22941Z" fill="#F4B382"/>
<path d="M22.8311 11.0412C22.8311 11.0412 22.9283 11.0047 23.1958 10.7129C23.208 10.6642 23.2323 10.5548 23.0986 10.5426C22.9891 10.5305 22.9891 10.798 22.8311 11.0412Z" fill="#D6876B"/>
<path d="M22.8311 11.041C22.8311 11.041 23.0378 11.114 23.3539 10.8951C23.3904 10.8464 23.3782 10.7856 23.3661 10.7735C23.3053 10.664 23.1958 10.7127 23.1958 10.7127C22.9283 11.0045 22.8311 11.041 22.8311 11.041Z" fill="#CC785E"/>
<path d="M17.8723 9.08322C16.8873 10.2263 17.2035 13.1568 20.4866 13.2906C20.7055 13.3028 21.0703 13.1933 21.1068 12.6096C21.1311 12.1962 21.0338 11.8071 21.0338 11.8071C20.9973 11.6976 20.973 11.5639 20.9244 11.4301C20.8757 11.2842 20.2556 10.8707 20.3407 10.737C21.1311 9.47234 20.9487 8.47521 20.6568 8.21985C19.83 7.74561 18.9302 7.87937 17.8723 9.08322Z" fill="#602F0F"/>
<path d="M20.5479 11.722C21.2045 11.9895 21.4112 11.7949 21.6423 11.4788L20.706 10.968L20.2561 10.8464C20.025 11.1626 19.8913 11.4544 20.5479 11.722Z" fill="#F4B382"/>
<path d="M18.067 12.3788C17.605 12.4517 17.1672 11.8437 17.0821 11.0412C16.997 10.2386 17.2888 9.52114 17.7509 9.44818C18.213 9.37522 18.4926 9.8981 18.5778 10.7007C18.6629 11.5154 18.517 12.3058 18.067 12.3788Z" fill="#4C230C"/>
<path d="M20.5704 10.7371C20.461 10.6763 20.3759 10.6034 20.3151 10.5426C20.2178 10.4575 20.1692 10.3845 20.1692 10.3845L19.9989 10.8223C20.0476 10.8709 20.0962 10.9074 20.1448 10.956C20.1448 10.956 20.1692 10.9074 20.1935 10.8344V10.8466C20.3029 10.8709 20.4732 10.9074 20.6799 11.0047C20.692 10.9925 20.8987 10.9439 20.5704 10.7371ZM17.871 12.5368C17.3846 12.6098 16.9225 11.9531 16.8252 11.0655C16.7279 10.1778 17.0441 9.39953 17.5183 9.32657C18.0047 9.25361 18.2966 9.82513 18.3938 10.7007C18.4911 11.5883 18.3452 12.4639 17.871 12.5368Z" fill="#602F0F"/>
<path d="M17.019 11.4668C16.9703 11.4789 16.8974 11.2601 16.8731 10.9925C16.8488 10.725 16.8609 10.494 16.9217 10.494C16.9703 10.4818 17.019 10.6642 17.0555 10.9317C17.0919 11.1993 17.0676 11.4546 17.019 11.4668Z" fill="#4C230C"/>
<path d="M45.8518 30.0836C45.329 30.3389 43.9792 30.5092 43.3469 30.9226C42.9821 31.1658 42.2526 31.6158 41.827 31.5914C41.1217 31.555 40.842 31.1293 40.6475 31.0929C39.4558 30.8132 36.1484 31.5428 35.4188 31.5063C34.2149 31.4334 34.7257 29.1473 35.1634 29.1716C38.7262 29.354 40.5137 29.585 41.1339 29.6823C41.1339 29.6823 44.8426 29.4391 45.3047 29.4877C45.6086 29.5121 46.3018 29.8647 45.8518 30.0836Z" fill="#F4B382"/>
<path d="M31.5246 31.2268C32.9108 31.4335 34.2484 31.5187 35.4522 31.5065C35.3063 31.1052 35.2941 29.5366 35.4036 29.1718C34.9658 29.1353 31.6097 28.5759 31.6097 28.5759C30.5397 28.4178 24.2895 27.445 22.3318 27.6882C21.8211 27.7369 21.3834 27.8098 21.0064 27.9071C20.289 28.0895 22.5021 31.5551 22.5021 31.5551C24.3625 31.7011 27.6943 31.166 28.6792 31.0566C29.6642 30.9471 31.5246 31.2268 31.5246 31.2268Z" fill="#3D3C3C"/>
<path d="M20.3444 0C19.8823 0 20.1255 1.92129 20.0039 2.50498L20.3201 3.1981C20.0404 7.41764 20.7943 9.25382 20.7943 9.25382C20.5146 11.771 20.2106 16.6228 20.3809 17.5713C20.5389 18.5198 22.4845 18.4104 22.5575 17.4375C22.6304 16.4769 22.5939 15.6135 22.5818 14.6529C22.5818 13.6922 22.4359 10.105 22.3507 9.26598C22.3386 9.15654 21.3536 3.1981 21.3536 3.1981C21.3536 3.1981 21.3658 2.9549 21.4996 2.55362C21.6941 1.99425 21.6455 1.15521 21.4388 0.705284C21.2564 0.316161 20.7943 0 20.3444 0Z" fill="#F4B382"/>
<path d="M20.186 1.92128C20.186 1.92128 20.2347 1.31328 19.9185 1.25248C19.651 1.20384 19.5537 1.216 19.9915 2.50497C19.9915 2.50497 20.1739 2.49281 20.186 1.92128Z" fill="#F4B382"/>
</svg>
