<svg width="44" height="45" viewBox="0 0 44 45" fill="none" xmlns="http://www.w3.org/2000/svg">
<path d="M43.9957 11.7656C43.8873 11.2644 40.5144 12.4971 40.5144 12.4971C35.8547 13.2015 33.7415 14.0549 33.7415 14.0549C30.9376 14.3529 25.8714 15.5857 24.8826 15.992C23.8937 16.3984 24.4762 18.4845 25.5463 18.3355C26.6165 18.1865 27.5376 17.9292 28.5806 17.6989C29.6236 17.4686 33.1997 16.0598 34.0937 15.7618C34.2156 15.7211 40.7447 13.6215 40.7447 13.6215C40.7447 13.6215 41.0156 13.5673 41.4897 13.6215C42.1399 13.7163 44.1041 12.2668 43.9957 11.7656Z" fill="#E2A379"/>
<path d="M15.0885 19.365C14.8041 19.216 13.9913 18.2813 12.6368 17.9427C11.824 17.7395 10.7945 17.6582 9.85986 17.6311C8.53237 17.5905 8.47819 22.9277 9.37221 23.3205C10.8216 23.9572 13.7475 24.1333 14.6415 24.1468C15.2511 24.1468 16.0909 21.3834 16.0909 21.3834C16.0909 21.3834 15.373 19.514 15.0885 19.365Z" fill="#3D3C3C"/>
<path d="M3.29036 14.4888C3.29036 14.4888 0.29674 13.6083 0.0258245 15.0577C-0.258637 16.5614 6.12143 21.2619 7.5031 22.2372C8.89832 23.199 9.48079 23.5241 12.7182 24.4995C13.1923 23.7544 12.9621 23.497 12.8943 21.0452C12.8266 17.9973 3.29036 14.4888 3.29036 14.4888Z" fill="#3D3C3C"/>
<path d="M11.4572 0.0752089C11.8636 0.454503 10.5226 2.40516 10.4819 2.83864C10.4548 3.05538 10.6309 3.36694 10.4142 3.78688C10.1297 4.34227 9.53372 4.41 9.4389 4.59965C8.97834 5.62916 7.79986 7.75592 7.21739 9.00217C7.08193 9.28664 6.93293 9.58466 6.78393 9.86913C6.14727 11.0612 4.12895 9.02927 4.39987 8.62288C5.48353 6.99733 8.1656 3.94943 8.61261 3.40758C8.61261 3.40758 9.70982 1.5382 10.0078 1.13181C10.1975 0.860889 11.0509 -0.304085 11.4572 0.0752089Z" fill="#E2A379"/>
<path d="M4.3049 13.987C4.84674 13.3774 6.16068 11.0475 6.79733 9.85539C6.33677 9.78765 4.71128 8.90715 4.41327 8.60913C4.14235 9.01552 -0.246484 13.8244 0.0108864 15.2739C0.186982 16.3305 1.69056 15.8835 2.92323 15.2332C2.90969 15.2332 3.76307 14.5966 4.3049 13.987Z" fill="#3D3C3C"/>
<path d="M14.3281 44.5883C13.7863 44.4664 11.7409 44.5883 11.5377 44.5748C11.05 44.5612 10.5759 44.2903 10.6707 43.8297C10.7385 43.4775 10.9146 43.166 10.8875 42.9492C10.7791 41.8249 10.454 38.4519 10.3456 37.0973C10.3186 36.7857 10.305 36.4606 10.2915 36.1219C10.2508 34.7809 13.0142 35.5394 12.9735 36.0271C12.8381 37.9778 12.3369 42.5835 12.2014 43.2879C12.2014 43.2879 15.5472 43.4504 15.493 43.9517C15.466 44.2632 14.8699 44.7238 14.3281 44.5883Z" fill="#F4B382"/>
<path d="M10.6707 31.733C10.4811 33.2908 10.2508 34.7673 10.2914 36.122C10.7384 35.9594 12.5671 35.9052 12.9735 36.0271C13.0006 35.5395 13.6237 31.7872 13.6237 31.7872C13.7727 30.5951 14.9783 23.6052 14.6667 21.4243C14.6125 20.8689 14.5042 20.3677 14.3958 19.9613C14.1791 19.1621 9.77668 19.6227 9.60059 20.7199C9.74959 23.104 10.1153 26.7615 10.3185 28.5225C10.4675 29.7417 10.6707 31.733 10.6707 31.733Z" fill="#3D3C3C"/>
<path d="M25.438 19.3378C26.007 17.8341 25.56 16.7911 25.1265 14.7456C25.0452 14.5153 24.1783 13.7838 23.65 13.7025C23.054 13.6077 22.4173 13.6754 21.9974 14.1225C21.6046 14.4476 21.0086 15.2333 19.6675 18.0509C19.2882 18.8366 16.4978 19.7035 15.0891 19.3513C15.0891 19.3513 14.0596 20.4757 14.0596 21.9928C14.0596 23.1172 14.642 24.1331 14.642 24.1331C20.6157 24.0383 22.8237 22.9411 24.2596 20.4079C24.2596 20.4215 25.1671 20.0693 25.438 19.3378Z" fill="#F73555"/>
<path d="M25.3941 14.8405C25.3941 14.8405 25.6922 13.6755 26.3288 12.7815L24.8388 11.7249C24.5814 12.8356 23.2539 13.6891 23.2539 13.6891C24.2563 16.3035 25.2045 15.7345 25.2993 15.6397L25.3941 14.8405Z" fill="#E2A379"/>
<path d="M27.7938 10.3025C28.2679 9.5845 27.9157 8.90719 27.6448 8.51435C26.8321 7.32228 26.0193 7.25455 24.9763 7.30874C23.6082 7.39001 23.2966 11.0475 23.4592 11.6435C23.8655 13.2149 26.1006 13.7026 26.9946 13.6755C27.9835 13.6484 27.7126 13.3233 27.6584 12.9304C27.6584 12.9169 27.699 12.8491 27.699 12.8491C27.699 12.7137 27.6719 12.524 27.7532 12.3479C27.7532 12.3479 27.7126 12.226 27.699 12.1583C27.699 12.1176 27.699 12.0906 27.7396 12.0635C27.8751 12.0093 28.0106 11.9551 28.0647 11.8874C28.2544 11.6977 27.5771 10.6411 27.7938 10.3025Z" fill="#F4B382"/>
<path d="M27.1846 12.5653C27.1846 12.5653 27.2794 12.6195 27.7264 12.5924C27.7806 12.5653 27.8754 12.4976 27.7806 12.3757C27.7264 12.2809 27.5097 12.4976 27.1846 12.5653Z" fill="#D6876B"/>
<path d="M27.1846 12.5654C27.1846 12.5654 27.2929 12.7822 27.7129 12.8634C27.767 12.8499 27.8077 12.7957 27.8212 12.7822C27.8619 12.6467 27.7399 12.5925 27.7399 12.5925C27.2929 12.6061 27.1846 12.5654 27.1846 12.5654Z" fill="#CC785E"/>
<path d="M24.8815 7.09225C23.2018 7.20062 21.1158 9.74731 23.5811 12.4566C23.7437 12.6327 24.1094 12.8359 24.6106 12.4159C24.9628 12.1179 25.1931 11.7386 25.1931 11.7386C25.2608 11.6302 25.3285 11.4948 25.4098 11.3593C25.4911 11.2103 25.3285 10.384 25.5046 10.3569C27.1301 10.0047 27.7803 9.08354 27.7532 8.65007C27.4688 7.60701 26.6696 6.98388 24.8815 7.09225Z" fill="#602F0F"/>
<path d="M24.869 11.278C25.167 12.0095 25.4785 12.023 25.912 11.9553L25.5869 10.8174L25.3295 10.3704C24.9096 10.4245 24.571 10.5465 24.869 11.278Z" fill="#F4B382"/>
<path d="M22.4172 9.80156C22.0108 9.49 22.1327 8.67722 22.7152 7.97282C23.2841 7.26841 24.0833 6.95685 24.5032 7.26841C24.9096 7.57998 24.7199 8.20311 24.151 8.90751C23.5686 9.59837 22.8235 10.1131 22.4172 9.80156Z" fill="#4C230C"/>
<path d="M25.6656 10.5198C25.6385 10.3844 25.6249 10.2625 25.6249 10.1676C25.6249 10.0186 25.6385 9.93735 25.6385 9.93735L25.1644 10.1405C25.1644 10.2083 25.1779 10.2896 25.1779 10.3573C25.1779 10.3573 25.2321 10.3437 25.3134 10.3031H25.2998C25.3676 10.4115 25.4624 10.574 25.5572 10.8179C25.5572 10.8179 25.7604 10.9398 25.6656 10.5198ZM22.1301 9.7748C21.6966 9.44969 21.8592 8.55563 22.4823 7.79705C23.1054 7.02491 23.9723 6.67271 24.4058 6.99782C24.8393 7.32293 24.6225 8.00024 23.9859 8.77238C23.3628 9.53096 22.5636 10.0999 22.1301 9.7748Z" fill="#602F0F"/>
<path d="M22.3215 8.27066C22.2673 8.23003 22.3893 8.01329 22.5789 7.783C22.7685 7.55272 22.9717 7.39016 23.0124 7.4308C23.0665 7.47144 22.9582 7.64754 22.755 7.87782C22.5653 8.09456 22.3622 8.3113 22.3215 8.27066Z" fill="#4C230C"/>
<path d="M6.47005 3.05509C6.13141 3.43439 7.87882 4.69419 8.2581 5.23604L9.0573 5.49341C12.2947 8.90706 14.137 10.1669 14.137 10.1669C15.9792 12.2936 19.772 15.626 20.6796 16.2085C21.2214 16.5742 22.9824 14.3391 22.4135 13.7973C21.4517 13.0522 21.0318 12.9709 20.1648 12.2936C19.3792 11.5757 16.1011 9.44891 15.3425 8.89352C15.2342 8.81224 9.8565 4.64 9.8565 4.64C9.8565 4.64 9.66686 4.45036 9.43658 4.03042C9.12503 3.44794 8.4071 2.8519 7.87882 2.6758C7.41826 2.54034 6.8087 2.68935 6.47005 3.05509Z" fill="#F4B382"/>
<path d="M7.91798 4.62644C7.91798 4.62644 7.45743 4.12523 7.17296 4.34197C6.92914 4.51807 6.86141 4.6129 8.25663 5.23602C8.25663 5.23602 8.37854 5.07347 7.91798 4.62644Z" fill="#F4B382"/>
</svg>
