<svg width="35" height="33" viewBox="0 0 35 33" fill="none" xmlns="http://www.w3.org/2000/svg">
<path d="M27.0189 32.763C29.4312 32.9262 33.349 32.5634 34.0745 32.3095C34.7456 32.0737 35.6162 31.0036 34.3647 29.4075C33.5122 28.3192 32.8049 27.6118 29.5763 26.2878C26.4566 25.0181 18.7662 25.399 15.8641 25.8162C15.1205 25.8887 14.4494 26.0338 13.9052 26.1789C12.8351 26.4691 16.4445 31.2213 17.9137 31.457C21.106 31.2575 25.6948 29.1717 27.164 28.9722C27.1277 28.9903 26.8557 32.7448 27.0189 32.763Z" fill="#333333"/>
<path d="M26.1123 29.0994C26.1123 29.0994 28.0349 28.3014 30.4472 28.8092C30.4654 28.7911 27.2006 28.9543 26.1123 29.0994Z" fill="#1F1C1C"/>
<path d="M21.7952 29.208C21.7952 29.208 19.4372 23.6578 17.8592 23.7122C17.6779 23.7122 17.297 23.6397 17.1881 23.6216C14.2861 23.1318 13.2341 25.1089 12.6537 25.1996C12.037 25.3084 13.7782 31.6204 15.0116 31.5841C17.4421 31.5115 18.0225 31.3301 19.6186 30.7316C20.5255 30.387 21.7952 29.208 21.7952 29.208Z" fill="#3D3C3C"/>
<path d="M12.9261 32.4185C12.9261 31.6748 15.8281 31.4028 16.2816 31.0582C16.4992 30.8768 16.7532 30.514 17.3517 30.3326C18.3312 30.1513 18.8934 31.0219 19.1655 30.9131C20.2356 30.9131 24.1715 29.1718 27.128 28.9904C27.3457 28.9723 27.255 32.7813 27.0192 32.7631C24.2078 32.4185 19.6371 32.7631 18.7483 32.8175C18.7483 32.8175 15.937 32.7631 15.2477 32.8538C14.8487 32.9082 12.9261 33.1621 12.9261 32.4185ZM7.03127 5.59262C7.70237 5.93724 6.66852 8.92999 6.75921 9.49226C6.81362 9.76433 7.1401 10.1089 6.995 10.7438C6.83176 11.56 6.14252 11.8683 6.03369 12.1404C5.45328 13.6277 5.45328 19.0146 5.38073 19.9034C5.23563 21.699 1.20903 19.8127 1.40854 19.1779C2.22475 16.693 4.14736 11.7414 4.54639 10.8707C4.54639 10.8707 5.29004 8.07751 5.54397 7.44268C5.70721 7.06179 6.37831 5.248 7.03127 5.59262Z" fill="#E2A379"/>
<path d="M4.09283 26.197C4.63696 23.7122 5.16296 22.4062 5.39875 19.8851C3.8389 20.0664 2.22463 19.5404 1.40843 19.2502C0.682913 22.3881 -0.985771 30.2962 0.791738 31.1305C2.65994 32.0012 15.1932 31.6203 15.7373 31.5114C17.805 31.1305 20.0541 28.1197 19.2923 26.85C19.2923 26.85 17.2609 25.1995 14.8667 25.145C10.6225 25.0362 4.09283 26.197 4.09283 26.197Z" fill="#3D3C3C"/>
<path d="M23.5725 12.1767C22.847 10.0727 21.5773 9.8188 19.3282 8.40405C19.038 8.22267 17.4419 8.24081 16.8252 8.58543C16.136 8.98446 15.5737 9.5286 15.3016 10.3811C14.7575 12.0498 18.3125 15.7499 18.6934 18.2529C19.1469 19.9216 18.766 23.5854 17.8591 23.7124L21.795 29.2082C26.9824 20.5564 24.3887 15.8587 23.5543 13.7729C23.5543 13.7729 23.8264 12.9022 23.5725 12.1767Z" fill="#F73555"/>
<path d="M17.0972 8.18631C17.0972 8.18631 16.4987 7.69659 15.5555 6.75342L12.998 8.34955C14.4491 8.82113 15.4467 10.0726 15.4467 10.0726C16.4805 8.36769 17.6776 8.63975 18.2217 8.29513L17.0972 8.18631Z" fill="#E2A379"/>
<path d="M10.4587 5.53817C9.31604 5.35679 8.69935 6.19114 8.37287 6.71713C7.39343 8.36768 7.75618 9.40154 8.42728 10.6349C9.2979 12.2492 13.9049 10.5624 14.5397 10.0182C16.2084 8.63974 15.5373 5.66514 14.9932 4.57687C14.3946 3.39791 14.1588 3.90577 13.7054 4.19597C13.6873 4.21411 13.5966 4.17783 13.5966 4.17783C13.4333 4.26852 13.2157 4.39549 12.9436 4.39549C12.9436 4.39549 12.8166 4.52245 12.7441 4.55873C12.6897 4.59501 12.6534 4.59501 12.599 4.55873C12.4539 4.41363 12.3088 4.28666 12.2 4.26852C11.8916 4.17783 10.9847 5.61072 10.4587 5.53817Z" fill="#F4B382"/>
<path d="M13.542 4.99416C13.542 4.99416 13.542 4.84906 13.2699 4.32306C13.1974 4.26865 13.0704 4.1961 12.9797 4.37748C12.9072 4.50444 13.2881 4.64954 13.542 4.99416Z" fill="#D6876B"/>
<path d="M13.543 4.99422C13.543 4.99422 13.7607 4.74029 13.6156 4.19616C13.5611 4.12361 13.4886 4.10547 13.4523 4.10547C13.2528 4.12361 13.2709 4.32312 13.2709 4.32312C13.543 4.84912 13.543 4.99422 13.543 4.99422Z" fill="#CC785E"/>
<path d="M8.20909 10.8887C9.27923 12.8658 13.5598 13.954 15.4461 9.43771C15.5731 9.12936 15.6093 8.58523 14.8294 8.22247C14.2671 7.96854 13.6686 7.89599 13.6686 7.89599C13.4872 7.87785 13.3058 7.85971 13.0882 7.84157C12.8705 7.82344 11.9636 8.4764 11.8185 8.29502C10.4582 6.51751 8.98902 6.24544 8.46302 6.53565C7.37475 7.44254 7.06641 8.78474 8.20909 10.8887Z" fill="#602F0F"/>
<path d="M13.289 8.53091C14.0146 7.76912 13.8513 7.37009 13.5248 6.88037L12.3277 7.91423L11.9287 8.4765C12.2552 8.96622 12.5817 9.31084 13.289 8.53091Z" fill="#F4B382"/>
<path d="M12.9077 12.3579C12.7626 13.029 11.6925 13.3373 10.5135 13.029C9.33454 12.7206 8.50019 11.9407 8.6453 11.2696C8.7904 10.5985 9.66102 10.4715 10.84 10.7799C12.0008 11.0701 13.0528 11.6686 12.9077 12.3579Z" fill="#4C230C"/>
<path d="M11.9288 7.98677C11.7836 8.0956 11.6385 8.18629 11.5297 8.2407C11.3665 8.33139 11.2395 8.36767 11.2395 8.36767L11.7474 8.82111C11.8381 8.78484 11.9106 8.73043 12.0013 8.67601L11.8562 8.53091L11.8743 8.54905C11.965 8.40394 12.1101 8.18629 12.3459 7.93236C12.3459 7.9505 12.3822 7.64215 11.9288 7.98677ZM13.017 12.7026C12.8719 13.41 11.693 13.7183 10.4052 13.3919C9.11738 13.0654 8.19236 12.2129 8.3556 11.5055C8.5007 10.7981 9.46201 10.6712 10.7498 10.9977C12.0376 11.3423 13.1803 11.9952 13.017 12.7026Z" fill="#602F0F"/>
<path d="M11.094 13.3374C11.0759 13.41 10.7494 13.3919 10.3504 13.3012C9.95134 13.1923 9.66113 13.0472 9.66113 12.9747C9.67927 12.9021 9.95134 12.9203 10.3504 13.0291C10.7494 13.1198 11.1122 13.2468 11.094 13.3374Z" fill="#4C230C"/>
<path d="M7.53906 3.74258C7.53906 3.74258 12.9804 1.0219 14.0324 0.332663C14.5765 -0.0119565 15.0844 -0.0482333 15.2658 0.042456C15.4653 0.133145 15.7918 0.532178 16.1545 1.18514C16.9889 2.76313 19.0566 9.58296 18.8027 11.433C18.6213 12.6845 16.9163 12.8115 15.955 12.1585C15.3202 11.7232 15.157 10.635 15.157 9.87317C15.157 9.40159 15.1025 8.83931 14.8305 7.00739C14.631 5.90098 14.4496 4.25044 14.2319 3.01706C14.2319 3.01706 11.6382 3.21658 8.60919 4.88526L7.53906 3.74258Z" fill="#F4B382"/>
<path d="M8.59057 4.88529C8.8445 4.66764 7.53858 3.76074 7.53858 3.76074C7.53858 3.76074 7.26651 4.01467 6.6861 4.2686C5.88803 4.63136 5.01742 5.55639 4.76349 6.24563C4.5277 6.84418 4.6728 7.66038 5.14438 8.1501C5.61597 8.63983 7.44789 6.39073 8.19154 5.93728L8.59057 4.88529Z" fill="#F4B382"/>
<path d="M7.33939 6.31828C7.33939 6.31828 6.63201 6.89869 6.90408 7.29772C7.12174 7.64234 7.23056 7.73303 8.17373 5.91925C8.17373 5.91925 7.97421 5.756 7.33939 6.31828Z" fill="#F4B382"/>
</svg>
