<svg width="32" height="42" viewBox="0 0 32 42" fill="none" xmlns="http://www.w3.org/2000/svg">
<path d="M9.77051 35.479L10.0282 37.6911L15.7195 39.1085L21.4108 37.6911L21.6685 35.479H9.77051Z" fill="#302F2F"/>
<path d="M21.4108 21.0252C21.8188 18.5554 19.8 14.0668 19.8 14.0668C18.8336 13.938 17.8242 13.895 17.0725 13.895H14.3665C13.5933 13.895 12.6054 13.938 11.639 14.0668C11.639 14.0668 9.62017 18.5769 10.0282 21.0252C10.4148 23.3232 11.0591 26.695 9.77051 35.4789H21.6685C20.3799 26.695 21.0242 23.3232 21.4108 21.0252Z" fill="#F73555"/>
<path d="M17.8458 37.0467C14.6673 38.185 11.0592 39.4306 10.1787 39.4306C6.52769 39.4521 3.60688 40.7836 3.77869 41.5568C3.77869 41.5568 12.3693 41.7716 18.7478 41.5568C21.2176 41.4924 20.3156 36.1877 17.8458 37.0467Z" fill="#F4B382"/>
<path d="M17.8477 37.0468C20.3175 36.1663 22.5295 35.3072 23.045 35.2643C27.3188 34.8133 29.8101 35.7582 29.8101 39.0442C29.8101 41.3636 26.9967 41.5784 24.5269 41.5784C23.1953 41.5784 21.2195 41.4925 18.7712 41.5784C18.6638 40.0106 18.3631 38.5072 17.8477 37.0468Z" fill="#3D3C3C"/>
<path d="M13.249 35.3715C16.6209 35.4789 20.4437 35.5648 21.2813 35.3071C24.7604 34.2118 27.939 34.5984 28.0249 35.3715C28.0249 35.3715 19.9068 38.2064 13.786 39.946C11.4235 40.6118 10.6289 35.2856 13.249 35.3715Z" fill="#F4B382"/>
<path d="M13.2489 35.3716C10.6287 35.2857 7.77237 34.5555 6.80593 34.3193C4.83009 33.8253 2.5321 33.1166 1.93076 36.4025C1.35089 39.6455 4.74418 39.9676 7.19251 40.3327C8.69586 40.5475 11.4019 40.6334 13.7643 39.9461C13.3992 38.4428 13.2274 36.8965 13.2489 35.3716Z" fill="#3D3C3C"/>
<path d="M5.08993 34.4266L0.0859047 34.0186L0 33.3743L0.515435 33.3098L1.93289 33.138L2.06174 32.5796L3.09262 32.5367L3.95168 32.7085L4.78926 32.3649L7.1302 29.4656C7.19463 28.4347 7.36644 26.8239 7.08725 23.8387C6.70067 19.93 7.10872 15.4843 8.18255 14.926C9.57852 14.1958 11.6617 14.1098 11.6617 14.1098C11.6617 14.1098 10.7383 19.0065 10.1799 19.028C9.9651 19.028 10.1584 24.2682 9.98658 26.5233C9.85772 28.4347 9.81477 29.8092 9.34228 30.5609C8.8698 31.3125 5.08993 34.4266 5.08993 34.4266ZM26.9101 35.7152L31.9141 35.3072L32 34.6629L31.4846 34.5984L30.0671 34.4266L29.9383 33.8682L28.9074 33.8253L28.0483 33.9971L27.2107 33.6535L24.3114 29.4226C24.247 28.3917 24.0752 26.781 24.3544 23.7958C24.7409 19.887 24.3329 15.4414 23.2591 14.883C21.8631 14.1528 19.7799 14.0669 19.7799 14.0669C19.7799 14.0669 20.7034 18.9635 21.2617 18.985C21.4765 18.985 21.2832 24.2253 21.455 26.4803C21.5839 28.3917 21.6269 29.7662 22.0993 30.5179C22.5718 31.2696 25.6859 34.3622 25.6859 34.3622L26.9101 35.7152Z" fill="#F4B382"/>
<path d="M17.5231 11.4253H13.8936C14.4519 13.1434 13.9365 13.9166 13.9365 13.9166C13.9365 13.9166 14.0439 15.0333 15.7191 15.0333C17.3727 15.0333 17.4801 13.9166 17.4801 13.9166C17.4801 13.9166 16.9647 13.1219 17.5231 11.4253Z" fill="#E2A379"/>
<path d="M19.4377 6.42116C19.4377 2.10438 17.7625 1.11646 15.7223 1.11646C13.6605 1.11646 12.0068 2.10438 12.0068 6.42116C12.0068 7.88156 12.2646 9.01981 12.6511 9.90035C13.5102 11.8332 14.9921 12.5205 15.7223 12.5205C16.4525 12.5205 17.9344 11.8332 18.7934 9.90035C19.18 9.01981 19.4377 7.88156 19.4377 6.42116Z" fill="#F4B382"/>
<path d="M16.7746 10.7596C16.7746 10.7596 16.3021 10.9958 15.7223 10.9958C15.1424 10.9958 14.6699 10.7596 14.6699 10.7596C14.6699 10.6951 15.0135 10.3086 15.2283 10.2871C15.3572 10.2656 15.7223 10.3945 15.7223 10.3945C15.7223 10.3945 16.0659 10.2656 16.2162 10.2871C16.431 10.3086 16.7746 10.7596 16.7746 10.7596Z" fill="#D6876B"/>
<path d="M16.7746 10.7595C16.7746 10.7595 16.3021 11.189 15.7223 11.189C15.1424 11.189 14.6699 10.7595 14.6699 10.7595C14.6699 10.7595 14.7773 10.6306 15.4001 10.5876C15.5075 10.5876 15.6364 10.6736 15.7223 10.6736C15.8082 10.6736 15.9156 10.5876 16.0015 10.5876C16.6458 10.6306 16.7746 10.7595 16.7746 10.7595Z" fill="#CC785E"/>
<path d="M15.72 2.66285C16.7994 2.66285 17.6744 2.06669 17.6744 1.3313C17.6744 0.595908 16.7994 -0.000244141 15.72 -0.000244141C14.6406 -0.000244141 13.7656 0.595908 13.7656 1.3313C13.7656 2.06669 14.6406 2.66285 15.72 2.66285Z" fill="#4C230C"/>
<path d="M19.588 6.61445C19.588 2.29767 18.4068 1.13794 15.7222 1.13794C13.0377 1.13794 11.8564 2.31915 11.8564 6.61445C11.8564 6.61445 17.5907 5.36881 17.5907 3.80103C17.5907 5.36881 19.588 6.61445 19.588 6.61445Z" fill="#602F0F"/>
<path d="M11.6394 7.94602C11.8327 9.12723 12.0904 9.17018 12.4555 9.10576L12.0689 6.55005C11.7038 6.61448 11.4246 6.76481 11.6394 7.94602ZM19.3709 6.55005L18.9843 9.10576C19.3494 9.17018 19.5857 9.10575 19.8004 7.94602C20.0152 6.76481 19.736 6.61448 19.3709 6.55005Z" fill="#F4B382"/>
<path d="M12.286 6.78666C12.2645 6.6578 12.2645 6.55042 12.2645 6.44304C12.2645 6.31418 12.286 6.22827 12.286 6.22827L11.8564 6.40008V6.59337C11.8564 6.59337 11.8994 6.5719 11.9853 6.55042H11.9638C12.0283 6.6578 12.0927 6.80814 12.1786 7.04438C12.1786 7.06586 12.3504 7.19472 12.286 6.78666ZM19.1585 6.46451C19.1585 6.55042 19.1585 6.67928 19.137 6.78666C19.0726 7.17324 19.2444 7.04438 19.2444 7.04438C19.3088 6.80814 19.3947 6.6578 19.4591 6.55042C19.545 6.5719 19.588 6.59337 19.588 6.59337V6.40008L19.1585 6.22827C19.137 6.24975 19.1585 6.33566 19.1585 6.46451Z" fill="#602F0F"/>
</svg>
