<svg width="43" height="43" viewBox="0 0 43 43" fill="none" xmlns="http://www.w3.org/2000/svg">
<circle opacity="0.66" cx="21.5146" cy="21.5762" r="20.7334" fill="#E9DFFF"/>
<path d="M12.9188 13.7979L13.7045 15.4221L15.4869 15.6647C15.8403 15.7121 15.9668 16.1498 15.7242 16.3819L14.4217 17.6317L14.7434 19.4035C14.8067 19.7516 14.4375 20.0153 14.1317 19.8465L12.5444 18.9922L10.957 19.8465C10.6512 20.01 10.2662 19.7569 10.3506 19.3772L10.667 17.6264L9.36447 16.3766C9.11134 16.134 9.24845 15.7016 9.60705 15.6541L11.3842 15.4116L12.1699 13.7873C12.3176 13.4762 12.7711 13.4815 12.9188 13.7979ZM13.0453 15.9916L12.5444 14.9475L12.0381 15.9916C11.9801 16.1129 11.8588 16.2078 11.7164 16.2289L10.5721 16.3819L11.4106 17.1834C11.5055 17.2783 11.5582 17.4155 11.5319 17.5578L11.3262 18.6969L12.3387 18.1537C12.46 18.0905 12.6129 18.0799 12.7395 18.1537L13.7572 18.7022L13.5569 17.5842C13.5252 17.4471 13.5621 17.2942 13.6729 17.1834L14.5113 16.3819L13.3776 16.2289C13.2404 16.2131 13.1086 16.1235 13.0453 15.9916ZM21.8942 9.97464L22.6799 11.5989L24.4676 11.8414C24.8209 11.8889 24.9475 12.3266 24.7049 12.5639L23.4024 13.8137L23.724 15.5856C23.7873 15.9336 23.4182 16.1973 23.1123 16.0285L21.5145 15.1742L19.9272 16.0285C19.6213 16.192 19.2363 15.9389 19.3207 15.5592L19.6371 13.8084L18.3293 12.5586C18.0762 12.316 18.2133 11.8836 18.5719 11.8362L20.349 11.5936L21.1348 9.97464C21.293 9.65296 21.7412 9.65823 21.8942 9.97464ZM22.0207 12.1684L21.5145 11.1242L21.0135 12.1684C20.9555 12.2897 20.8342 12.3846 20.6918 12.4057L19.5422 12.5586L20.3807 13.3602C20.4809 13.4551 20.5283 13.5922 20.502 13.7346L20.2963 14.8737L21.3141 14.3305C21.4354 14.2672 21.583 14.2567 21.7149 14.3305L22.7326 14.8789L22.5322 13.761C22.5006 13.6239 22.5375 13.4709 22.6483 13.3602L23.4867 12.5586L22.3529 12.4004C22.2106 12.3899 22.084 12.3002 22.0207 12.1684ZM30.8643 13.7979L31.65 15.4221L33.4324 15.6647C33.7858 15.7121 33.9176 16.1498 33.6697 16.3819L32.3672 17.6317L32.6889 19.4035C32.7522 19.7516 32.383 20.0153 32.0772 19.8465L30.4899 18.9922L28.9026 19.8465C28.5967 20.01 28.2117 19.7569 28.2908 19.3772L28.6072 17.6264L27.3047 16.3766C27.0516 16.134 27.1887 15.7016 27.5473 15.6541L29.3244 15.4116L30.1102 13.7873C30.2631 13.4762 30.7166 13.4815 30.8643 13.7979ZM30.9908 15.9916L30.4899 14.9475L29.9836 15.9916C29.9256 16.1129 29.8096 16.2078 29.6619 16.2289L28.5176 16.3819L29.3508 17.1834C29.4457 17.2783 29.4985 17.4155 29.4721 17.5578L29.2664 18.6969L30.2842 18.1537C30.4055 18.0905 30.5584 18.0799 30.685 18.1537L31.708 18.7022L31.5076 17.5842C31.476 17.4471 31.5129 17.2942 31.6236 17.1834L32.4569 16.3819L31.3231 16.2289C31.186 16.2131 31.0541 16.1235 30.9908 15.9916ZM19.558 24.5662C19.442 24.3658 19.5106 24.1074 19.711 23.9914C19.9113 23.8754 20.1697 23.944 20.2858 24.1444L20.8395 25.1041L22.8065 23.1371C22.9699 22.9737 23.2389 22.9737 23.4024 23.1371C23.5658 23.3006 23.5658 23.5696 23.4024 23.733L21.0451 26.0903C20.85 26.2854 20.5231 26.2432 20.386 26.0059L19.558 24.5662ZM21.5145 20.1102C23.8084 20.1102 25.6699 21.9717 25.6699 24.2657C25.6699 26.5596 23.8084 28.4211 21.5145 28.4211C19.2205 28.4211 17.359 26.5596 17.359 24.2657C17.359 21.9717 19.2205 20.1102 21.5145 20.1102ZM23.8559 21.9242C22.5639 20.6323 20.4651 20.6323 19.1731 21.9242C17.8811 23.2162 17.8811 25.3151 19.1731 26.6071C20.4651 27.8991 22.5639 27.8991 23.8559 26.6071C25.1479 25.3098 25.1479 23.2162 23.8559 21.9242ZM21.5145 17.4998C25.2481 17.4998 28.275 20.5268 28.275 24.2604C28.275 25.6737 27.8426 26.9867 27.099 28.0731L29.1188 31.5694C29.3139 31.8963 29.0449 32.2655 28.6969 32.2127L26.6297 31.8858L25.5223 33.2463C25.3272 33.4994 24.9633 33.4573 24.8209 33.2041L23.4076 30.7573C22.1736 31.1158 20.85 31.1158 19.6213 30.7573L18.208 33.2041C18.0656 33.4573 17.7018 33.4994 17.5067 33.2463L16.3992 31.8858L14.332 32.2127C13.9787 32.2707 13.7309 31.8858 13.8996 31.5852L15.9299 28.0731C14.0947 25.3889 14.4375 21.7766 16.7367 19.4774C17.9549 18.2592 19.6477 17.4998 21.5145 17.4998ZM26.5401 28.785C25.8967 29.5022 25.1057 30.077 24.2092 30.4672L25.2428 32.2549L26.1287 31.1686C26.2289 31.042 26.3819 30.9946 26.5295 31.0209L27.9533 31.2477L26.5401 28.785ZM18.8145 30.4672C17.9233 30.077 17.1322 29.5022 16.4889 28.7903L15.0703 31.2477L16.4942 31.0209C16.6365 30.9946 16.7947 31.0473 16.8949 31.1686L17.7809 32.2549L18.8145 30.4672ZM25.7016 20.0785C23.3918 17.7688 19.6424 17.7688 17.3326 20.0785C15.0229 22.3883 15.0229 26.1377 17.3326 28.4475C19.6477 30.7573 23.3918 30.7573 25.7016 28.4475C28.0113 26.1377 28.0113 22.3883 25.7016 20.0785Z" fill="#7E43FF"/>
</svg>
