<svg width="42" height="42" viewBox="0 0 42 42" fill="none" xmlns="http://www.w3.org/2000/svg">
<circle opacity="0.66" cx="21.0986" cy="21.2568" r="20.7334" fill="#E3FFDF"/>
<g clip-path="url(#clip0_2_3281)">
<path d="M16.3949 19.2308C16.4577 19.3205 16.551 19.3821 16.6559 19.4033C16.7608 19.4244 16.8696 19.4034 16.9602 19.3446C17.0478 19.2793 17.108 19.1817 17.1284 19.0719C17.1488 18.962 17.1279 18.8483 17.0699 18.7539C16.9024 18.4885 16.6858 18.2601 16.4326 18.0821C16.1794 17.904 15.8947 17.7799 15.5949 17.7168C15.2951 17.6537 14.9862 17.653 14.6861 17.7146C14.386 17.7762 14.1007 17.899 13.8467 18.0758C13.784 18.1482 13.7464 18.2403 13.7398 18.3373C13.7332 18.4344 13.758 18.531 13.8103 18.6118C13.8626 18.6927 13.9394 18.7531 14.0285 18.7836C14.1176 18.8141 14.214 18.8129 14.3024 18.7802C14.4681 18.6666 14.6538 18.5881 14.8489 18.5493C15.044 18.5105 15.2446 18.512 15.439 18.5539C15.6335 18.5958 15.8181 18.6772 15.9822 18.7933C16.1462 18.9095 16.2865 19.0582 16.3949 19.2308Z" fill="#4ED23B"/>
<path d="M14.6272 25.4352C14.4328 25.3936 14.2481 25.3125 14.084 25.1965C13.9199 25.0806 13.7794 24.9322 13.6708 24.7598C13.5622 24.5874 13.4876 24.3944 13.4511 24.192C13.4147 23.9895 13.4173 23.7816 13.4586 23.5802C13.4469 23.4869 13.4066 23.4001 13.3435 23.3325C13.2805 23.2649 13.1981 23.2202 13.1086 23.205C13.0191 23.1898 12.9273 23.2049 12.8467 23.248C12.7661 23.2912 12.7011 23.3601 12.6613 23.4446C12.5986 23.7553 12.5961 24.0758 12.6537 24.3875C12.7114 24.6992 12.8282 24.9959 12.9974 25.2605C13.1665 25.525 13.3847 25.7521 13.6391 25.9285C13.8935 26.105 14.1792 26.2273 14.4796 26.2883H14.5597C14.6507 26.2716 14.7339 26.2245 14.7965 26.154C14.8592 26.0835 14.8978 25.9937 14.9064 25.8983C14.915 25.8029 14.8932 25.7072 14.8443 25.6259C14.7954 25.5446 14.7221 25.4822 14.6357 25.4483L14.6272 25.4352Z" fill="#4ED23B"/>
<path d="M16.8797 23.6198C16.8869 23.5531 16.8792 23.4856 16.8572 23.4225C16.8352 23.3594 16.7994 23.3024 16.7528 23.2559C16.7061 23.2094 16.6498 23.1746 16.5881 23.1543C16.5264 23.134 16.4611 23.1287 16.3971 23.1387C16.3331 23.1488 16.2723 23.174 16.2192 23.2124C16.1661 23.2508 16.1222 23.3013 16.091 23.3601C16.0598 23.4188 16.042 23.4843 16.039 23.5513C16.0361 23.6183 16.048 23.6852 16.0739 23.7466C16.1463 24.3213 16.417 24.8493 16.8358 25.2329C17.2546 25.6166 17.7933 25.8299 18.3521 25.8335C18.4649 25.835 18.5778 25.8276 18.6896 25.8116C18.7955 25.7923 18.8904 25.7317 18.9547 25.6422C19.019 25.5528 19.0479 25.4412 19.0355 25.3304C19.0169 25.2205 18.9584 25.1222 18.8722 25.0555C18.7859 24.9888 18.6783 24.9588 18.5714 24.9716C18.1742 25.025 17.7729 24.9125 17.4556 24.659C17.1384 24.4055 16.9312 24.0317 16.8797 23.6198Z" fill="#4ED23B"/>
<path d="M33.0586 24.2885C32.7222 24.2894 32.3953 24.4045 32.1278 24.6162C31.8604 24.8279 31.6673 25.1247 31.5778 25.461H30.1646L28.0214 22.9104C27.9825 22.8656 27.935 22.8297 27.882 22.8048C27.829 22.78 27.7716 22.7668 27.7135 22.766H22.0055V21.9479V19.7604H27.7135C27.7716 19.7597 27.829 19.7465 27.882 19.7216C27.935 19.6968 27.9825 19.6608 28.0214 19.616L30.1646 17.0654H31.5778C31.6769 17.4391 31.9033 17.7629 32.2151 17.9767C32.5268 18.1905 32.9028 18.2797 33.2732 18.2279C33.6435 18.1761 33.9832 17.9867 34.2292 17.6949C34.4752 17.4031 34.6108 17.0286 34.6108 16.641C34.6108 16.2534 34.4752 15.879 34.2292 15.5872C33.9832 15.2954 33.6435 15.106 33.2732 15.0542C32.9028 15.0023 32.5268 15.0916 32.2151 15.3054C31.9033 15.5191 31.6769 15.8429 31.5778 16.2167H29.9789C29.9208 16.2174 29.8634 16.2306 29.8104 16.2555C29.7574 16.2803 29.7099 16.3163 29.671 16.361L27.5278 18.9117H22.0055V17.3192H27.3549C27.4136 17.3196 27.4717 17.3064 27.525 17.2807C27.5783 17.255 27.6253 17.2173 27.6628 17.1704L29.1563 15.3504C29.2202 15.274 29.2547 15.1759 29.2533 15.0748V13.3817C29.6102 13.279 29.9192 13.0457 30.1229 12.725C30.3267 12.4042 30.4115 12.0177 30.3615 11.6371C30.3116 11.2566 30.1303 10.9076 29.8513 10.655C29.5723 10.4024 29.2145 10.2632 28.8441 10.2632C28.4737 10.2632 28.1159 10.4024 27.8369 10.655C27.5579 10.9076 27.3766 11.2566 27.3267 11.6371C27.2767 12.0177 27.3615 12.4042 27.5652 12.725C27.769 13.0457 28.078 13.279 28.4349 13.3817V14.9304L27.1693 16.4704H22.0055V14.4404H23.8744C23.9421 14.4408 24.0088 14.4243 24.069 14.3923C24.1292 14.3603 24.1811 14.3138 24.2203 14.2567L24.7435 13.3817C24.8804 13.4247 25.0223 13.4482 25.1653 13.4517C25.4705 13.4534 25.7694 13.3613 26.0241 13.1869C26.2789 13.0126 26.4781 12.7639 26.5966 12.4723C26.7151 12.1806 26.7476 11.859 26.69 11.5482C26.6324 11.2374 26.4873 10.9513 26.273 10.7259C26.0586 10.5006 25.7847 10.3462 25.4858 10.2822C25.1869 10.2183 24.8764 10.2476 24.5936 10.3665C24.3107 10.4854 24.0682 10.6886 23.8967 10.9504C23.7251 11.2122 23.6322 11.5208 23.6297 11.8373C23.6315 12.2403 23.7825 12.6272 24.0516 12.9179L23.6297 13.5917H22.0055V10.3673C22.0055 10.3454 22.0055 10.3323 22.0055 10.3148C22.0096 10.2843 22.0096 10.2534 22.0055 10.2229C21.7618 9.49735 21.3054 8.86898 20.7002 8.42574C20.095 7.98251 19.3714 7.7466 18.6305 7.75104C17.9448 7.75626 17.2748 7.96505 16.6999 8.35271C16.1249 8.74037 15.6691 9.29068 15.3863 9.93854C14.8542 9.76642 14.2905 9.72643 13.7407 9.82179C13.1909 9.91715 12.6705 10.1452 12.2213 10.4875C11.7721 10.8298 11.4069 11.2768 11.1549 11.7925C10.903 12.3081 10.7715 12.878 10.771 13.456C10.7689 13.795 10.8144 14.1325 10.906 14.4579C10.4042 14.6247 9.94421 14.9046 9.55896 15.2774C9.17371 15.6502 8.87273 16.1067 8.67759 16.6143C8.48245 17.1219 8.39798 17.668 8.43022 18.2134C8.46246 18.7588 8.61063 19.2901 8.86409 19.7692C8.4148 20.1313 8.06526 20.6097 7.85058 21.1562C7.63589 21.7027 7.5636 22.2982 7.64096 22.8829C7.71833 23.4675 7.94262 24.0208 8.29134 24.4871C8.64006 24.9535 9.10092 25.3165 9.62769 25.5398C9.3052 26.069 9.1176 26.6745 9.08247 27.2995C9.04733 27.9245 9.16582 28.5485 9.42682 29.113C9.68782 29.6775 10.0828 30.164 10.5747 30.5269C11.0666 30.8898 11.6393 31.1173 12.2391 31.1879C12.2603 31.7522 12.4181 32.3019 12.6981 32.7863C12.978 33.2707 13.371 33.6743 13.8409 33.9598C14.3108 34.2452 14.8424 34.4035 15.3867 34.4199C15.931 34.4362 16.4706 34.3103 16.9557 34.0535C17.5255 34.5149 18.2282 34.7645 18.9511 34.7623C19.608 34.7591 20.2487 34.5508 20.7897 34.1645C21.3308 33.7782 21.7471 33.2319 21.9844 32.5967C21.9881 32.5632 21.9881 32.5295 21.9844 32.496C21.9864 32.4786 21.9864 32.461 21.9844 32.4435V28.9435H23.6297L24.0516 29.6173C23.7825 29.908 23.6315 30.2949 23.6297 30.6979C23.6289 31.0148 23.7187 31.3248 23.8879 31.5887C24.057 31.8526 24.2979 32.0585 24.58 32.1804C24.862 32.3023 25.1726 32.3346 25.4724 32.2733C25.7722 32.212 26.0477 32.0599 26.2641 31.8361C26.4805 31.6123 26.6279 31.327 26.6879 31.0163C26.7478 30.7056 26.7175 30.3834 26.6007 30.0905C26.484 29.7977 26.2861 29.5473 26.0321 29.3712C25.778 29.1951 25.4793 29.101 25.1738 29.101C25.0308 29.1045 24.8888 29.128 24.7519 29.171L24.2203 28.2567C24.183 28.1963 24.1319 28.1463 24.0716 28.1112C24.0113 28.0762 23.9436 28.057 23.8744 28.0554H22.0055V26.0692H27.165L28.4307 27.6092V29.1317C28.068 29.2344 27.7536 29.4702 27.5458 29.7952C27.3381 30.1202 27.2512 30.5124 27.3012 30.8988C27.3512 31.2853 27.5347 31.6398 27.8177 31.8965C28.1007 32.1532 28.4639 32.2947 28.8399 32.2947C29.2159 32.2947 29.5791 32.1532 29.8621 31.8965C30.1451 31.6398 30.3286 31.2853 30.3786 30.8988C30.4286 30.5124 30.3416 30.1202 30.1339 29.7952C29.9262 29.4702 29.6118 29.2344 29.2491 29.1317V27.4254C29.2505 27.3243 29.216 27.2262 29.1521 27.1498L27.6586 25.3385C27.6211 25.2916 27.574 25.254 27.5208 25.2282C27.4675 25.2025 27.4094 25.1894 27.3507 25.1898H22.0055V23.6148H27.5278L29.671 26.1654C29.7099 26.2102 29.7574 26.2461 29.8104 26.271C29.8634 26.2958 29.9208 26.309 29.9789 26.3098H31.5778C31.6541 26.5968 31.8063 26.856 32.0171 27.0581C32.2279 27.2602 32.4891 27.3971 32.771 27.4534C33.0529 27.5098 33.3443 27.4833 33.6125 27.3769C33.8806 27.2705 34.1148 27.0885 34.2884 26.8514C34.4621 26.6144 34.5684 26.3317 34.5954 26.0353C34.6223 25.7389 34.5688 25.4405 34.4409 25.174C34.313 24.9074 34.1158 24.6833 33.8715 24.5268C33.6273 24.3704 33.3457 24.2878 33.0586 24.2885ZM33.0586 15.8754C33.2021 15.8754 33.3424 15.9195 33.4618 16.0022C33.5811 16.0849 33.6741 16.2024 33.729 16.3399C33.7839 16.4774 33.7983 16.6287 33.7703 16.7747C33.7423 16.9207 33.6732 17.0548 33.5717 17.16C33.4702 17.2653 33.3409 17.3369 33.2002 17.366C33.0594 17.395 32.9135 17.3801 32.7809 17.3231C32.6483 17.2662 32.535 17.1697 32.4553 17.046C32.3756 16.9222 32.333 16.7767 32.333 16.6279C32.333 16.4283 32.4095 16.2369 32.5455 16.0958C32.6816 15.9547 32.8662 15.8754 33.0586 15.8754ZM28.1227 11.8373C28.1219 11.6881 28.1638 11.542 28.2432 11.4176C28.3226 11.2932 28.4359 11.196 28.5687 11.1385C28.7014 11.081 28.8477 11.0658 28.9888 11.0947C29.13 11.1236 29.2597 11.1953 29.3614 11.3008C29.4631 11.4063 29.5323 11.5408 29.5602 11.6872C29.5881 11.8336 29.5733 11.9852 29.5179 12.1229C29.4624 12.2606 29.3688 12.3781 29.2488 12.4604C29.1288 12.5428 28.988 12.5863 28.8441 12.5854C28.6531 12.5843 28.4703 12.5051 28.3352 12.365C28.2002 12.225 28.1238 12.0353 28.1227 11.8373ZM25.1696 11.0848C25.3131 11.0848 25.4534 11.1289 25.5727 11.2116C25.692 11.2943 25.785 11.4118 25.84 11.5493C25.8949 11.6868 25.9092 11.8381 25.8812 11.9841C25.8532 12.1301 25.7841 12.2641 25.6827 12.3694C25.5812 12.4746 25.4519 12.5463 25.3111 12.5753C25.1704 12.6044 25.0245 12.5895 24.8919 12.5325C24.7593 12.4756 24.646 12.3791 24.5662 12.2554C24.4865 12.1316 24.4439 11.9861 24.4439 11.8373C24.4439 11.7381 24.4628 11.6399 24.4996 11.5483C24.5363 11.4567 24.5901 11.3736 24.658 11.3036C24.7258 11.2337 24.8063 11.1784 24.8948 11.1408C24.9833 11.1033 25.0781 11.0842 25.1738 11.0848H25.1696ZM21.1828 14.016V16.0067C20.8218 15.8209 20.4198 15.7373 20.0176 15.7642C19.6154 15.7911 19.2272 15.9275 18.8921 16.1598C18.8044 16.225 18.7442 16.3226 18.7238 16.4325C18.7034 16.5423 18.7244 16.6561 18.7824 16.7504C18.8452 16.8401 18.9385 16.9018 19.0434 16.9229C19.1483 16.944 19.2571 16.923 19.3477 16.8642C19.6254 16.6689 19.9595 16.5789 20.2937 16.6092C20.628 16.6394 20.942 16.7882 21.1828 17.0304V19.3142V21.0642C20.8222 20.876 20.4196 20.7913 20.0167 20.819C19.6139 20.8467 19.2256 20.9857 18.8921 21.2217C18.8283 21.2942 18.7899 21.387 18.7831 21.4849C18.7763 21.5828 18.8014 21.6803 18.8545 21.7616C18.9076 21.8429 18.9855 21.9034 19.0758 21.9332C19.166 21.963 19.2632 21.9605 19.3519 21.926C19.6278 21.7292 19.9608 21.6374 20.2945 21.6661C20.6282 21.6948 20.942 21.8423 21.1828 22.0835V23.1598V25.6317V28.4973V32.3429C21.0507 32.6819 20.8487 32.9868 20.5911 33.2364C20.3334 33.486 20.0263 33.6743 19.6913 33.788C19.3562 33.9018 19.0012 33.9382 18.6511 33.8949C18.301 33.8516 17.9643 33.7296 17.6644 33.5373C18.0393 33.1906 18.2937 32.7255 18.3883 32.2139C18.4828 31.7022 18.4123 31.1726 18.1875 30.7067C18.1747 30.6409 18.1474 30.5791 18.1079 30.526C18.0683 30.4729 18.0175 30.4299 17.9594 30.4005C17.9013 30.371 17.8374 30.3558 17.7727 30.356C17.708 30.3562 17.6442 30.3718 17.5863 30.4017C17.5283 30.4316 17.4778 30.4749 17.4385 30.5282C17.3993 30.5816 17.3725 30.6436 17.36 30.7094C17.3476 30.7753 17.3499 30.8432 17.3669 30.908C17.3838 30.9727 17.4149 31.0326 17.4577 31.0829C17.5441 31.2683 17.5941 31.4696 17.605 31.6752C17.6159 31.8808 17.5873 32.0865 17.521 32.2806C17.4547 32.4747 17.352 32.6532 17.2187 32.8058C17.0855 32.9584 16.9244 33.0821 16.7447 33.1698C16.7126 33.191 16.6829 33.216 16.6561 33.2442C16.2925 33.4585 15.8815 33.5713 15.4632 33.5716C15.045 33.5719 14.6338 33.4597 14.2699 33.2459C13.906 33.032 13.6019 32.724 13.3871 32.3518C13.1724 31.9795 13.0545 31.5559 13.0449 31.1223C13.7621 30.9079 15.1163 30.3698 15.3146 29.311C15.3322 29.2006 15.3084 29.0873 15.248 28.9945C15.1876 28.9018 15.0951 28.8365 14.9897 28.8123C14.8868 28.7957 14.7817 28.8191 14.6944 28.8781C14.6072 28.937 14.5441 29.0273 14.5172 29.1317C14.3949 29.7617 13.1208 30.2298 12.6146 30.3435C12.0876 30.336 11.5739 30.1712 11.135 29.8688C10.696 29.5665 10.3503 29.1393 10.1394 28.6385C9.92841 28.1377 9.86106 27.5845 9.94539 27.045C10.0297 26.5055 10.2621 26.0027 10.6149 25.5967C10.6662 25.5387 10.7015 25.4675 10.7171 25.3905C10.7327 25.3135 10.728 25.2336 10.7035 25.1592C10.6789 25.0887 10.6373 25.0259 10.5826 24.9769C10.528 24.9278 10.4621 24.8942 10.3913 24.8792C9.9096 24.7812 9.46791 24.534 9.12457 24.1702C8.78123 23.8064 8.55239 23.3431 8.46829 22.8416C8.38418 22.3401 8.44877 21.8239 8.65351 21.3613C8.85826 20.8986 9.19353 20.5113 9.61503 20.2504C9.77948 20.1357 9.96423 20.0561 10.1586 20.016C10.3529 19.9759 10.553 19.9762 10.7473 20.0169C10.9415 20.0576 11.126 20.1379 11.2901 20.253C11.4543 20.3682 11.5947 20.516 11.7033 20.6879C11.7417 20.7439 11.7923 20.7897 11.8509 20.8216C11.9095 20.8535 11.9746 20.8707 12.0408 20.8717C12.1235 20.871 12.2042 20.8451 12.2728 20.7973C12.3598 20.7314 12.4192 20.6335 12.4388 20.5237C12.4584 20.4139 12.4367 20.3005 12.3783 20.2067C12.0778 19.7379 11.628 19.3934 11.1075 19.2335C10.5871 19.0736 10.0289 19.1083 9.53066 19.3317C9.33667 18.9566 9.22676 18.5409 9.2091 18.1156C9.19144 17.6904 9.2665 17.2665 9.42867 16.8755C9.59084 16.4844 9.83596 16.1364 10.1458 15.8572C10.4556 15.578 10.8222 15.3749 11.2182 15.2629C11.3789 15.5377 11.6048 15.7652 11.8743 15.9237C12.1439 16.0823 12.4481 16.1665 12.758 16.1685C12.9696 16.1695 13.1797 16.131 13.3782 16.0548C13.4423 16.0485 13.5042 16.0271 13.5591 15.9921C13.614 15.9572 13.6605 15.9097 13.6949 15.8532C13.7294 15.7968 13.7509 15.7329 13.7579 15.6665C13.7649 15.6001 13.757 15.5329 13.7351 15.4701C13.7131 15.4073 13.6776 15.3505 13.6312 15.3042C13.5848 15.2578 13.5288 15.2231 13.4674 15.2027C13.4061 15.1822 13.3411 15.1767 13.2773 15.1863C13.2136 15.196 13.1528 15.2207 13.0997 15.2585C12.8513 15.347 12.5792 15.3305 12.3424 15.2126C12.1055 15.0947 11.9229 14.8849 11.8341 14.6285C11.8357 14.6155 11.8357 14.6022 11.8341 14.5892C11.6153 14.0629 11.5552 13.4804 11.6617 12.9181C11.7681 12.3558 12.0362 11.8401 12.4305 11.4387C12.8249 11.0373 13.3271 10.769 13.8712 10.6692C14.4153 10.5693 14.9758 10.6425 15.4791 10.8792H15.5213H15.5635C16.7321 11.1154 17.078 12.2267 16.8966 13.2198C16.8801 13.3296 16.9045 13.4417 16.9648 13.5336C17.0251 13.6254 17.1169 13.6899 17.2214 13.7142H17.2974C17.3955 13.7164 17.4913 13.6832 17.5683 13.6201C17.6453 13.557 17.6987 13.468 17.7192 13.3685C17.985 11.8898 17.3733 10.6473 16.2089 10.1792C16.4348 9.70153 16.7847 9.29867 17.2191 9.01581C17.6536 8.73296 18.1555 8.58131 18.6685 8.57791C19.2262 8.57695 19.7708 8.75345 20.2287 9.08361C20.6866 9.41376 21.0359 9.88167 21.2293 10.4242L21.1828 14.016ZM25.1696 29.9279C25.3133 29.9279 25.4537 29.9722 25.5731 30.055C25.6926 30.1379 25.7856 30.2557 25.8403 30.3935C25.8951 30.5312 25.9093 30.6827 25.8809 30.8288C25.8526 30.9749 25.7831 31.109 25.6811 31.2141C25.5792 31.3191 25.4496 31.3904 25.3085 31.419C25.1675 31.4475 25.0215 31.432 24.8889 31.3744C24.7564 31.3167 24.6434 31.2196 24.5642 31.0953C24.4849 30.971 24.4431 30.8251 24.4439 30.676C24.4445 30.5772 24.4638 30.4795 24.5008 30.3884C24.5378 30.2973 24.5917 30.2147 24.6594 30.1452C24.7272 30.0757 24.8075 30.0208 24.8958 29.9835C24.984 29.9462 25.0785 29.9273 25.1738 29.9279H25.1696ZM29.5655 30.676C29.5663 30.8251 29.5245 30.971 29.4453 31.0953C29.366 31.2196 29.253 31.3167 29.1205 31.3744C28.988 31.432 28.842 31.4475 28.7009 31.419C28.5599 31.3904 28.4302 31.3191 28.3283 31.2141C28.2264 31.109 28.1569 30.9749 28.1285 30.8288C28.1002 30.6827 28.1143 30.5312 28.1691 30.3935C28.2239 30.2557 28.3169 30.1379 28.4363 30.055C28.5557 29.9722 28.6962 29.9279 28.8399 29.9279C28.9352 29.9273 29.0296 29.9462 29.1179 29.9835C29.2061 30.0208 29.2864 30.0757 29.3542 30.1452C29.422 30.2147 29.4759 30.2973 29.5129 30.3884C29.5499 30.4795 29.5692 30.5772 29.5697 30.676H29.5655ZM33.0544 26.6379C32.9107 26.6388 32.77 26.5954 32.6501 26.5132C32.5302 26.4311 32.4366 26.3139 32.381 26.1764C32.3254 26.039 32.3105 25.8876 32.338 25.7413C32.3655 25.5951 32.4343 25.4606 32.5356 25.3549C32.6369 25.2492 32.7662 25.1771 32.9071 25.1477C33.0479 25.1183 33.1941 25.133 33.3269 25.1898C33.4597 25.2466 33.5733 25.3431 33.6532 25.4669C33.7331 25.5907 33.7758 25.7364 33.7758 25.8854C33.7758 26.0835 33.7005 26.2736 33.5663 26.4144C33.432 26.5553 33.2496 26.6356 33.0586 26.6379H33.0544Z" fill="#4ED23B"/>
</g>
<defs>
<clipPath id="clip0_2_3281">
<rect width="27" height="28" fill="white" transform="translate(7.59863 7.25684)"/>
</clipPath>
</defs>
</svg>
