<svg width="42" height="43" viewBox="0 0 42 43" fill="none" xmlns="http://www.w3.org/2000/svg">
<circle opacity="0.66" cx="21.0986" cy="21.5762" r="20.7334" fill="#FFDFE5"/>
<g clip-path="url(#clip0_2_3274)">
<path d="M34.2649 19.6725L31.4131 16.5012C31.0505 16.0983 30.4893 15.9634 29.9832 16.1576C29.4771 16.3517 29.1501 16.8274 29.1501 17.3695V18.692H25.1299C24.3307 18.692 23.5687 18.8542 22.8751 19.1476V13.6198H24.2693C24.8112 13.6198 25.2869 13.2929 25.4811 12.7869C25.6754 12.2807 25.5406 11.7192 25.1375 11.3562L21.9667 8.50444C21.4718 8.05968 20.7253 8.05973 20.2303 8.50454L17.0594 11.3564C16.6565 11.7192 16.5217 12.2807 16.716 12.7869C16.9102 13.2929 17.3859 13.6198 17.9279 13.6198H19.322V16.4493C19.322 16.6678 19.4991 16.8449 19.7176 16.8449C19.936 16.8449 20.1131 16.6678 20.1131 16.4493V13.2243C20.1131 13.0059 19.936 12.8288 19.7176 12.8288H17.9279C17.6045 12.8288 17.4838 12.5797 17.4545 12.5034C17.4251 12.427 17.3481 12.1608 17.5885 11.9444L20.7591 9.09279C20.9526 8.91888 21.2445 8.91888 21.4379 9.09269L24.6085 11.9442C24.8491 12.1609 24.772 12.4271 24.7427 12.5035C24.7134 12.5798 24.5927 12.8289 24.2693 12.8289H22.4796C22.2612 12.8289 22.0841 13.0059 22.0841 13.2244V19.5567C21.2735 20.058 20.5948 20.7529 20.113 21.5765V18.0313C20.113 17.8128 19.9359 17.6358 19.7175 17.6358C19.4991 17.6358 19.322 17.8128 19.322 18.0313V24.2772C18.6285 23.9839 17.8666 23.8217 17.0675 23.8217H13.0472V22.4992C13.0472 21.9571 12.7202 21.4814 12.214 21.2872C11.7079 21.0931 11.1466 21.2281 10.7841 21.6312L7.93242 24.802C7.4874 25.2969 7.48734 26.0432 7.93242 26.5381L10.7842 29.7089C11.1467 30.112 11.7079 30.2469 12.2141 30.0529C12.7203 29.8587 13.0473 29.383 13.0473 28.8409V27.3745H17.0676C18.3109 27.3745 19.3223 28.3859 19.3223 29.6292V34.5854C19.3223 34.8039 19.4994 34.9809 19.7178 34.9809H22.4796C22.698 34.9809 22.8751 34.8039 22.8751 34.5854V29.6305C22.8751 29.6301 22.8752 29.6298 22.8752 29.6295V24.4993C22.8752 23.256 23.8867 22.2445 25.13 22.2445H29.1502V23.7109C29.1502 24.253 29.4772 24.7287 29.9834 24.9229C30.4894 25.117 31.0507 24.9821 31.4133 24.5791L32.1141 23.7998C32.2601 23.6374 32.2468 23.3873 32.0844 23.2413C31.922 23.0952 31.672 23.1085 31.5259 23.2709L30.8252 24.0502C30.609 24.2906 30.3431 24.2137 30.2667 24.1844C30.1903 24.1551 29.9412 24.0344 29.9412 23.7109V21.849C29.9412 21.6306 29.7641 21.4535 29.5457 21.4535H25.13C23.4506 21.4535 22.0842 22.8198 22.0842 24.4992V26.7062C21.6024 25.8826 20.9238 25.1876 20.1131 24.6863V24.4992C20.1131 21.7332 22.3637 19.4828 25.1299 19.4828H29.5457C29.7641 19.4828 29.9412 19.3058 29.9412 19.0873V17.3693C29.9412 17.0459 30.1903 16.9252 30.2666 16.8959C30.343 16.8665 30.6089 16.7897 30.8251 17.03L33.6769 20.2014C33.8507 20.3945 33.8506 20.686 33.6769 20.8793L32.5811 22.0975C32.435 22.2598 32.4483 22.5099 32.6107 22.656C32.7731 22.802 33.0232 22.7888 33.1692 22.6264L34.2651 21.4082C34.7099 20.9132 34.7098 20.167 34.2649 19.6725ZM22.0841 29.6292V34.19H20.1132V29.6292C20.1132 27.9498 18.7469 26.5835 17.0675 26.5835H12.6518C12.4334 26.5835 12.2563 26.7606 12.2563 26.979V28.8409C12.2563 29.1644 12.0072 29.285 11.9308 29.3144C11.8545 29.3436 11.5885 29.4205 11.3722 29.18L8.52046 26.0092C8.3466 25.8159 8.3466 25.5243 8.52046 25.331L11.3722 22.1602C11.5886 21.9197 11.8545 21.9965 11.9308 22.0258C12.0072 22.0551 12.2563 22.1758 12.2563 22.4992V24.2172C12.2563 24.4356 12.4334 24.6127 12.6518 24.6127H17.0675C19.8337 24.6127 22.0841 26.8631 22.0841 29.6292Z" fill="#FF3258"/>
</g>
<defs>
<clipPath id="clip0_2_3274">
<rect width="27" height="27" fill="white" transform="translate(7.59863 8.07617)"/>
</clipPath>
</defs>
</svg>
