<svg width="22" height="22" viewBox="0 0 22 22" fill="none" xmlns="http://www.w3.org/2000/svg">
<path d="M11 22C17.0751 22 22 17.0751 22 11C22 4.92487 17.0751 0 11 0C4.92487 0 0 4.92487 0 11C0 17.0751 4.92487 22 11 22Z" fill="#ED1C24"/>
<path d="M11 0C4.91333 0 0 4.91333 0 11C0 17.0867 4.91333 22 11 22V0Z" fill="#009245"/>
<path d="M10.9997 0C9.75301 0 8.50634 0.22 7.33301 0.66V21.4133C9.67967 22.2933 12.3197 22.2933 14.6663 21.4133V0.66C13.493 0.22 12.2463 0 10.9997 0Z" fill="#F0F0F0"/>
</svg>
