<svg width="115" height="28" viewBox="0 0 115 28" fill="none" xmlns="http://www.w3.org/2000/svg">
<path opacity="0.87" d="M72.3329 8.44195V26.9519H66.9649V24.2486C66.4169 25.1878 65.6215 25.9585 64.6654 26.4765C63.676 26.9971 62.5717 27.2609 61.4538 27.2436C59.1414 27.2436 57.4133 26.5983 56.2693 25.3075C55.1254 24.0167 54.5546 22.0696 54.5571 19.466V8.44195H60.0627V19.5762C60.0627 21.8151 61.0237 22.9346 62.9458 22.9346C64.0885 22.9346 65.0135 22.5455 65.7206 21.7674C66.4278 20.9893 66.7808 19.9671 66.7796 18.7008V8.44195H72.3329ZM93.3827 0V26.9519H87.9432V24.2137C87.3796 25.1653 86.5573 25.9373 85.5721 26.4398C84.4991 26.9877 83.3081 27.2637 82.1035 27.2436C80.5999 27.2684 79.1232 26.8421 77.8642 26.0196C76.5942 25.1706 75.5887 23.9813 74.9627 22.5877C74.269 21.1196 73.9222 19.4342 73.9222 17.5317C73.9222 15.6292 74.269 13.9561 74.9627 12.5124C75.5877 11.1434 76.5872 9.97906 77.8459 9.15401C79.1181 8.35159 80.5978 7.94003 82.1017 7.9703C83.2801 7.95582 84.4446 8.22523 85.4968 8.75577C86.477 9.24084 87.2997 9.99357 87.8698 10.9268V0H93.3827ZM86.8567 21.6389C87.5908 20.703 87.9579 19.3572 87.9579 17.6015C87.9579 15.8727 87.5865 14.5403 86.8439 13.6044C86.1012 12.6684 85.0613 12.1998 83.724 12.1986C82.3599 12.1986 81.3009 12.6611 80.5473 13.586C79.7936 14.511 79.4168 15.825 79.4168 17.5281C79.4168 19.2801 79.7936 20.6369 80.5473 21.5986C81.3009 22.5602 82.3599 23.041 83.724 23.041C85.0784 23.0435 86.1226 22.5761 86.8567 21.6389ZM114.433 8.44195V26.9519H108.991V24.2137C108.428 25.166 107.604 25.9381 106.618 26.4398C105.546 26.9862 104.355 27.261 103.152 27.24C101.649 27.2806 100.168 26.8737 98.8973 26.0708C97.6264 25.2679 96.623 24.1054 96.0144 22.7309C95.3207 21.2835 94.9739 19.6104 94.9739 17.7116C94.9739 15.8128 95.3207 14.1207 96.0144 12.6354C96.6368 11.2352 97.6427 10.0397 98.9159 9.18705C100.175 8.36782 101.65 7.94406 103.152 7.9703C104.36 7.95091 105.553 8.24022 106.618 8.81083C107.602 9.33341 108.422 10.1162 108.991 11.0736V8.44195H114.433ZM107.897 21.6554C108.631 20.7305 108.999 19.392 108.999 17.64C108.999 15.888 108.631 14.5422 107.897 13.6026C107.163 12.6642 106.117 12.1956 104.757 12.1968C103.398 12.198 102.339 12.6856 101.581 13.6594C100.827 14.6382 100.449 15.9895 100.448 17.7134C100.447 19.4373 100.818 20.7574 101.562 21.6738C102.305 22.5853 103.37 23.0416 104.757 23.0429C106.119 23.0441 107.166 22.5822 107.897 21.6573V21.6554ZM53.4358 27.2125H46.5959L39.2367 18.82V27.2125H33.654V0H39.2367V16.526L46.2619 8.50435H52.9549L45.0048 17.4969L53.4358 27.2125ZM18.3594 27.2216L7.64548 14.889L13.4961 27.2216H9.44031L3.47221 14.6486L5.95342 27.2216H3.4612L0.978166 14.6303V27.2216H0V0H0.978166V13.5805L3.49607 0H5.98094L3.45203 13.6393L9.53574 0H13.5475L7.48765 13.5897L18.4916 0H24.779L13.397 14.0595L24.8322 27.2216H18.3594Z" fill="#0F101A"/>
</svg>
