<svg width="142" height="25" viewBox="0 0 142 25" fill="none" xmlns="http://www.w3.org/2000/svg">
<path d="M11.1678 23.9718C8.20594 23.9718 5.36536 22.7975 3.27098 20.7074C1.17661 18.6174 0 15.7825 0 12.8267V1.68164H7.44523V12.8267C7.44523 13.8119 7.83744 14.7569 8.53555 15.4536C9.23368 16.1503 10.1805 16.5417 11.1678 16.5417C12.1551 16.5417 13.102 16.1503 13.8001 15.4536C14.4982 14.7569 14.8905 13.8119 14.8905 12.8267V1.68164H22.3357V12.8267C22.3357 15.7825 21.159 18.6174 19.0647 20.7074C16.9703 22.7975 14.1297 23.9718 11.1678 23.9718Z" fill="#1EC572"/>
<path d="M29.7809 16.542H11.1678V23.9721H29.7809V16.542Z" fill="#016938"/>
<g opacity="0.6">
<g opacity="0.6">
<path opacity="0.6" d="M11.1678 23.9718C8.20594 23.9718 5.36536 22.7975 3.27098 20.7074C1.17661 18.6174 0 15.7825 0 12.8267V1.68164H7.44523V12.8267C7.44523 13.8119 7.83744 14.7569 8.53555 15.4536C9.23368 16.1503 10.1805 16.5417 11.1678 16.5417C12.1551 16.5417 13.102 16.1503 13.8001 15.4536C14.4982 14.7569 14.8905 13.8119 14.8905 12.8267V1.68164H22.3357V12.8267C22.3357 15.7825 21.159 18.6174 19.0647 20.7074C16.9703 22.7975 14.1297 23.9718 11.1678 23.9718Z" fill="#1EC572"/>
</g>
</g>
<path opacity="0.87" d="M34.1961 11.1157H31.7797V7.36088H34.1961V6.3943C34.1961 4.362 34.7661 2.78821 35.9062 1.67293C37.0463 0.557643 38.5953 0 40.5532 0C43.7008 0 45.6216 1.4003 46.3155 4.20091L42.9697 5.24184C42.5731 4.32483 41.9535 3.86632 41.1109 3.86632C40.0452 3.86632 39.5123 4.57267 39.5123 5.98536V7.36088H43.7876V11.1157H39.5123V23.8671H34.1961V11.1157ZM56.809 15.7627V7.36088H62.1996V23.8671H56.809V21.3019C55.8424 23.3095 54.0952 24.3132 51.5672 24.3132C49.4853 24.3132 47.9859 23.706 47.0689 22.4916C46.1518 21.2772 45.6933 19.691 45.6933 17.733V7.36088H51.0467V16.4319C51.0467 18.8607 51.9637 20.0751 53.7978 20.0751C54.7891 20.0751 55.5326 19.691 56.0283 18.9227C56.5488 18.1544 56.809 17.101 56.809 15.7627ZM71.3907 15.4653V23.8671H66.0373V7.36088H71.3907V9.92604C71.8368 9.00903 72.5307 8.27789 73.4725 7.73264C74.4391 7.18739 75.542 6.91477 76.7812 6.91477C78.8631 6.91477 80.3749 7.53437 81.3167 8.77358C82.2585 9.988 82.7294 11.5742 82.7294 13.5321V23.8671H77.376V14.8333C77.376 12.3797 76.459 11.1529 74.625 11.1529C73.5593 11.1529 72.7538 11.537 72.2085 12.3053C71.6633 13.0736 71.3907 14.1269 71.3907 15.4653ZM98.3838 15.7999V15.4281C98.3838 14.1146 98.0368 13.0736 97.3428 12.3053C96.6737 11.5122 95.7814 11.1157 94.6662 11.1157C93.4269 11.1157 92.4851 11.5246 91.8408 12.3425C91.2212 13.1356 90.9114 14.2261 90.9114 15.614C90.9114 17.0267 91.2212 18.142 91.8408 18.9598C92.4851 19.7529 93.4269 20.1495 94.6662 20.1495C95.7814 20.1495 96.6737 19.7529 97.3428 18.9598C98.0368 18.1668 98.3838 17.1134 98.3838 15.7999ZM98.3838 23.8671V20.9302C97.9872 21.9463 97.3057 22.7642 96.3391 23.3838C95.3725 24.0034 94.2076 24.3132 92.8445 24.3132C90.49 24.3132 88.6684 23.5077 87.3796 21.8968C86.1156 20.261 85.4836 18.1668 85.4836 15.614C85.4836 13.086 86.1156 11.0041 87.3796 9.3684C88.6684 7.73264 90.49 6.91477 92.8445 6.91477C94.2076 6.91477 95.3725 7.23696 96.3391 7.88135C97.3057 8.50095 97.9872 9.31883 98.3838 10.335V0.446114H103.774V23.8671H98.3838ZM117.29 16.878V16.5434L114.577 17.101C113.635 17.2993 112.941 17.5472 112.495 17.8446C112.073 18.1172 111.863 18.5509 111.863 19.1457C111.863 19.6166 112.036 20.0008 112.383 20.2982C112.73 20.5708 113.189 20.7071 113.759 20.7071C114.775 20.7071 115.618 20.3602 116.287 19.6662C116.956 18.9475 117.29 18.0181 117.29 16.878ZM122.569 13.3462V19.3688C122.569 20.1867 122.916 20.5956 123.61 20.5956C124.106 20.5956 124.565 20.4965 124.986 20.2982V23.1608C123.995 23.8795 122.83 24.2389 121.491 24.2389C120.5 24.2389 119.657 23.991 118.963 23.4953C118.294 22.9749 117.836 22.2561 117.588 21.3391C116.646 23.2723 114.8 24.2389 112.049 24.2389C110.388 24.2389 109.075 23.8423 108.108 23.0492C107.141 22.2561 106.658 21.1532 106.658 19.7405C106.658 18.2535 107.166 17.1134 108.182 16.3203C109.223 15.5025 110.723 14.9076 112.681 14.5359L117.29 13.718V13.4206C117.29 11.7601 116.485 10.9298 114.874 10.9298C113.461 10.9298 112.581 11.7105 112.234 13.2719L107.253 12.9001C107.55 11.0661 108.368 9.61624 109.707 8.55052C111.07 7.46002 112.891 6.91477 115.171 6.91477C117.427 6.91477 119.224 7.44763 120.562 8.51334C121.9 9.57906 122.569 11.19 122.569 13.3462ZM127.237 0.446114H132.59V23.8671H127.237V0.446114ZM136.467 0.446114H141.821V23.8671H136.467V0.446114Z" fill="#0F101A"/>
</svg>
