<svg width="121" height="28" viewBox="0 0 121 28" fill="none" xmlns="http://www.w3.org/2000/svg">
<path opacity="0.87" fill-rule="evenodd" clip-rule="evenodd" d="M40.358 14.028C39.67 14.8002 39.326 15.7249 39.326 16.803C39.326 17.8811 39.67 18.8067 40.358 19.5781C41.046 20.3503 41.8882 20.7356 42.886 20.7356C43.9029 20.7356 44.7554 20.3503 45.4442 19.5781C46.1322 18.8067 46.4762 17.8811 46.4762 16.803C46.4762 15.7249 46.1322 14.801 45.4434 14.028C44.7554 13.2565 43.9029 12.8704 42.8852 12.8704C41.8882 12.8704 41.046 13.2565 40.358 14.028ZM39.5302 10.9939C39.925 10.4147 40.528 9.94441 41.3392 9.58134C42.1503 9.21907 43.0449 9.03793 44.0229 9.03793C46.0615 9.03793 47.8149 9.77281 49.2815 11.2418C50.748 12.7115 51.4813 14.6365 51.4813 17.0167C51.4813 19.3763 50.7369 21.3005 49.2489 22.7909C47.7616 24.2805 45.9892 25.0257 43.9299 25.0257C42.9925 25.0257 42.1297 24.8502 41.34 24.4982C40.5487 24.1463 39.9354 23.6704 39.4984 23.0698V24.2774C39.5005 24.3639 39.4849 24.4499 39.4526 24.5302C39.4203 24.6105 39.372 24.6834 39.3106 24.7444C39.2491 24.8054 39.1759 24.8532 39.0954 24.8849C39.0148 24.9166 38.9287 24.9315 38.8422 24.9288L35.7223 24.9296C35.5142 24.9296 35.3489 24.8676 35.2234 24.7437C35.1618 24.6832 35.1133 24.6106 35.0811 24.5305C35.0488 24.4504 35.0334 24.3645 35.0359 24.2782V3.51163C35.0359 3.32493 35.0979 3.17001 35.2234 3.04528C35.3481 2.92134 35.5142 2.85938 35.7223 2.85938H38.8748C39.0408 2.85938 39.191 2.92134 39.3268 3.04528C39.4619 3.17001 39.5302 3.32493 39.5302 3.51163V10.9931V10.9939ZM58.0571 9.19523V17.2432C58.0571 18.268 58.3137 19.0768 58.8262 19.6703C59.3386 20.2653 60.0973 20.5616 61.1031 20.5616C62.0882 20.5616 62.8509 20.2653 63.3951 19.6703C63.9385 19.0768 64.211 18.2879 64.211 17.3043V9.19523C64.211 9.03078 64.2778 8.88778 64.4104 8.76463C64.5297 8.64755 64.6898 8.58145 64.8569 8.58032H67.9649C68.1691 8.58032 68.3335 8.64705 68.4567 8.77973C68.5785 8.90821 68.6449 9.07939 68.6418 9.25641V23.5703C68.6442 23.6557 68.629 23.7407 68.5972 23.82C68.5653 23.8992 68.5175 23.9711 68.4567 24.0311C68.3335 24.1542 68.1691 24.2162 67.9641 24.2162H64.8569C64.6871 24.2213 64.5219 24.1603 64.3961 24.0462C64.3348 23.9899 64.2865 23.921 64.2545 23.8441C64.2226 23.7673 64.2077 23.6844 64.211 23.6013V22.3134C63.1035 23.6458 61.6052 24.3107 59.7191 24.3107C57.8521 24.3107 56.3697 23.7324 55.2725 22.574C54.1754 21.4173 53.6264 19.8856 53.6264 17.9804V9.19523C53.6264 9.03078 53.6979 8.88778 53.8409 8.76463C53.9672 8.64855 54.1317 8.58295 54.3033 8.58032H57.3802C57.5653 8.58032 57.7234 8.64149 57.8569 8.76463C57.9192 8.81782 57.9694 8.8838 58.0039 8.95811C58.0385 9.03241 58.0566 9.11329 58.0571 9.19523ZM77.5843 8.58032C78.9356 8.58032 80.1281 8.77814 81.1625 9.1714C82.1961 9.56545 82.9898 10.0286 83.5428 10.5601C84.0337 10.9653 84.0544 11.434 83.6047 11.9655L82.4678 13.3058C82.0992 13.7531 81.6082 13.7849 80.9933 13.4027C79.7857 12.5725 78.6496 12.157 77.5851 12.157C77.0107 12.157 76.5443 12.2682 76.1868 12.4923C75.8293 12.7155 75.6497 12.9872 75.6497 13.3058C75.6497 13.9247 76.2218 14.3497 77.3698 14.5841L79.7341 15.0624C82.8261 15.6805 84.3722 17.2448 84.3722 19.7576C84.3722 21.2894 83.7469 22.551 82.4988 23.5409C81.2499 24.5316 79.6213 25.0257 77.6152 25.0257C75.4035 25.0257 73.5095 24.4506 71.9332 23.3018C70.6637 22.3865 70.4484 21.5881 71.2881 20.9072L72.6395 19.8212C73.1305 19.4375 73.6326 19.47 74.1442 19.9165C75.2914 20.9605 76.499 21.4816 77.7686 21.4816C78.4232 21.4816 78.9309 21.3537 79.2892 21.0987C79.6467 20.8421 79.8262 20.5346 79.8262 20.1716C79.8262 19.8101 79.6578 19.528 79.3202 19.3255C78.9817 19.1237 78.4336 18.9481 77.6764 18.7987L75.2199 18.2561C73.9702 18.0003 72.9827 17.4799 72.2558 16.691C71.5289 15.9045 71.165 14.8923 71.165 13.6577C71.165 12.2102 71.7489 11.0018 72.916 10.0334C74.0839 9.06494 75.6386 8.58032 77.5843 8.58032ZM97.7835 24.4021V16.8602C97.7835 15.7583 97.4864 14.8741 96.8914 14.2091C96.2955 13.5441 95.4756 13.2113 94.4285 13.2113C93.3822 13.2113 92.5409 13.5497 91.9045 14.225C91.2689 14.9003 90.9503 15.779 90.9503 16.8602V24.4021C90.9534 24.4878 90.9369 24.5731 90.9023 24.6515C90.8676 24.7299 90.8156 24.7995 90.7501 24.8549C90.6177 24.9686 90.448 25.0295 90.2735 25.0257H87.1647C87.0788 25.0269 86.9936 25.0108 86.914 24.9783C86.8345 24.9458 86.7624 24.8976 86.7019 24.8365C86.6415 24.7755 86.594 24.7029 86.5622 24.623C86.5305 24.5432 86.5152 24.4578 86.5172 24.3719V3.51401C86.5172 3.32731 86.5792 3.17239 86.7023 3.04607C86.7624 2.98485 86.8345 2.93672 86.9141 2.90473C86.9936 2.87273 87.079 2.85756 87.1647 2.86017H90.2727C90.4586 2.86017 90.6167 2.91737 90.7501 3.03177C90.8154 3.08697 90.8674 3.15625 90.9021 3.23441C90.9367 3.31257 90.9533 3.39757 90.9503 3.48303V11.0908C92.0586 9.74024 93.6793 9.06494 95.8141 9.06494C97.7629 9.06494 99.3232 9.6878 100.493 10.9351C101.663 12.1824 102.248 13.7515 102.248 15.6439V24.4021C102.251 24.4878 102.234 24.5731 102.2 24.6516C102.165 24.73 102.113 24.7996 102.047 24.8549C101.915 24.9687 101.745 25.0295 101.571 25.0257H98.4612C98.2863 25.0294 98.1163 24.9682 97.9837 24.8541C97.9184 24.7988 97.8665 24.7294 97.8318 24.6511C97.7971 24.5728 97.7806 24.4877 97.7835 24.4021Z" fill="#0F101A"/>
<mask id="mask0_2_5939" style="mask-type:alpha" maskUnits="userSpaceOnUse" x="104" y="8" width="17" height="18">
<path d="M104.393 8.58008H120.838V25.0255H104.393V8.58008Z" fill="white"/>
</mask>
<g mask="url(#mask0_2_5939)">
<path fill-rule="evenodd" clip-rule="evenodd" d="M109.704 14.0277C109.023 14.8007 108.683 15.7247 108.683 16.8028C108.683 17.8809 109.023 18.8064 109.704 19.5779C110.385 20.3501 111.236 20.7354 112.258 20.7354C113.279 20.7354 114.13 20.3501 114.812 19.5779C115.492 18.8064 115.833 17.8809 115.833 16.8028C115.833 15.7247 115.492 14.8007 114.812 14.0277C114.13 13.2563 113.279 12.8702 112.258 12.8702C111.236 12.8702 110.385 13.2563 109.704 14.0277ZM106.655 22.7271C105.147 21.193 104.393 19.2132 104.393 16.7869C104.393 14.3598 105.147 12.3856 106.655 10.8634C108.162 9.34118 109.948 8.58008 112.007 8.58008C112.984 8.58008 113.864 8.7779 114.643 9.17116C115.424 9.56521 116.001 10.0705 116.375 10.6878V9.3809C116.375 9.19023 116.442 9.02498 116.578 8.88595C116.713 8.7485 116.864 8.67939 117.031 8.67939H120.183C120.37 8.67939 120.526 8.7485 120.651 8.88595C120.774 9.02087 120.841 9.19801 120.838 9.3809V24.2565C120.841 24.3448 120.826 24.4328 120.793 24.5152C120.761 24.5975 120.713 24.6724 120.651 24.7355C120.59 24.7981 120.517 24.8475 120.437 24.8805C120.356 24.9134 120.27 24.9293 120.183 24.927H117.031C116.864 24.927 116.713 24.8634 116.578 24.7363C116.512 24.6754 116.46 24.6011 116.425 24.5183C116.39 24.4355 116.373 24.3463 116.376 24.2565V22.9178C116.001 23.5359 115.424 24.0412 114.644 24.4352C113.864 24.8285 112.975 25.0255 111.976 25.0255C109.936 25.0255 108.162 24.2588 106.655 22.7263" fill="#2E2F37"/>
</g>
<mask id="mask1_2_5939" style="mask-type:alpha" maskUnits="userSpaceOnUse" x="4" y="0" width="24" height="16">
<path d="M4.2901 0H27.1707V15.7304H4.2901V0Z" fill="white"/>
</mask>
<g mask="url(#mask1_2_5939)">
<path fill-rule="evenodd" clip-rule="evenodd" d="M25.2862 14.8981L23.9809 15.7307L21.3091 10.9226C20.5774 9.61029 19.5082 8.51748 18.2122 7.75731C16.9162 6.99714 15.4406 6.59727 13.9381 6.59909H4.2901L13.7379 0.580225C14.4444 0.13074 15.2824 -0.0662631 16.1152 0.0213047C16.9481 0.108872 17.7267 0.475851 18.3243 1.06246L25.9591 8.58605C27.8198 10.4189 27.4925 13.4927 25.2862 14.8989" fill="#67C462"/>
</g>
<mask id="mask2_2_5939" style="mask-type:alpha" maskUnits="userSpaceOnUse" x="0" y="8" width="26" height="20">
<path d="M0 8.58008H25.0257V27.8856H0V8.58008Z" fill="white"/>
</mask>
<g mask="url(#mask2_2_5939)">
<path fill-rule="evenodd" clip-rule="evenodd" d="M21.2265 27.8856H9.99279C9.43773 27.8831 8.89513 27.7208 8.4298 27.4182C7.96447 27.1156 7.5961 26.6854 7.36868 26.1791L0.216107 10.5027L0.109649 10.2667C0.038912 10.1134 0.00155402 9.94675 4.74577e-05 9.77788C-0.00145911 9.60901 0.0329201 9.44174 0.100909 9.28715C0.108854 9.2657 0.119977 9.24743 0.130305 9.22439C0.226033 9.03148 0.373574 8.86903 0.556406 8.75524C0.739238 8.64144 0.95014 8.58079 1.16549 8.58008H13.4161C15.7487 8.58008 17.8969 9.87188 19.0219 11.9518L21.7278 16.9482L24.5482 22.1527C25.9425 24.7292 24.1152 27.8856 21.2273 27.8856" fill="#74DF70"/>
</g>
</svg>
