<svg width="108" height="31" viewBox="0 0 108 31" fill="none" xmlns="http://www.w3.org/2000/svg">
<path opacity="0.87" fill-rule="evenodd" clip-rule="evenodd" d="M91.0897 25.6018C90.6494 25.4613 90.2653 25.2987 89.9402 25.1136L88.4073 29.2222C89.0925 29.5286 89.8033 29.7743 90.5315 29.9566C91.2743 30.1418 92.0871 30.2343 92.9699 30.2343C94.3629 30.2343 95.5766 29.9429 96.6103 29.3626C97.6445 28.7824 98.4631 27.7818 99.0655 26.3667L107.566 6.23604H101.297L97.8828 16.1598L94.4355 6.23604H87.8159L95.0268 22.499L94.052 24.6964C93.8642 25.1141 93.6369 25.4024 93.3707 25.5649C93.1045 25.728 92.7515 25.809 92.3086 25.809C91.9388 25.809 91.5321 25.7417 91.0897 25.6018ZM81.3447 15.6217C81.6925 15.588 82.0428 15.557 82.3901 15.5349V18.7044C82.0876 18.9364 81.7537 19.1242 81.3984 19.2621C81.0365 19.402 80.6388 19.4694 80.1958 19.4694C79.5935 19.4694 79.1226 19.3152 78.7859 19.0011C78.4498 18.6876 78.2788 18.2867 78.2788 17.7991C78.2788 17.334 78.4303 16.9111 78.7328 16.527C79.0358 16.1456 79.5456 15.8937 80.2658 15.7784C80.6229 15.7102 80.9829 15.6579 81.3447 15.6217ZM82.7741 21.9082L83.2618 23.2334H88.382V12.5052C88.382 10.2294 87.7207 8.55075 86.395 7.47178C85.0725 6.38966 83.2954 5.85149 81.0675 5.85149C79.4646 5.85149 78.0884 6.08453 76.9394 6.54958C75.7997 7.00653 74.7458 7.65387 73.823 8.46395L76.5386 11.4936C77.0657 11.0723 77.6449 10.7208 78.262 10.4478C78.8625 10.1917 79.5093 10.0621 80.1621 10.0669C80.765 10.0669 81.289 10.2294 81.7288 10.5546C82.1691 10.8797 82.3901 11.3894 82.3901 12.0875V12.5052C81.8027 12.5324 81.216 12.5726 80.6303 12.6257C79.9373 12.6908 79.2465 12.7785 78.5592 12.8887C77.773 12.9966 77.0019 13.1952 76.2613 13.4806C75.5406 13.7578 74.9072 14.1192 74.3612 14.559C73.8215 14.9932 73.3825 15.5394 73.0744 16.1598C72.7609 16.7874 72.6036 17.5218 72.6036 18.3567C72.6036 19.1695 72.7409 19.8897 73.0213 20.5147C73.2908 21.1312 73.6881 21.6835 74.187 22.135C74.6863 22.589 75.2744 22.9309 75.9473 23.1634C76.6196 23.3928 77.3514 23.5106 78.1415 23.5106C79.1868 23.5106 80.1032 23.3539 80.8939 23.0398C81.6814 22.7289 82.309 22.3506 82.7741 21.9077V21.9082ZM45.5141 1.94173L53.0474 23.2329H57.68L60.3256 14.3149L63.008 23.2329H67.6743L73.7025 6.23552H67.4665L64.9582 15.2566L62.3462 6.23499H58.3749L55.763 15.2571L51.4082 1.94225H45.5141V1.94173ZM34.7244 6.23499V10.4841H37.1285V17.9385C37.1285 18.796 37.2158 19.5725 37.3894 20.2706C37.563 20.9681 37.8603 21.5594 38.2785 22.0471C38.6957 22.5348 39.2475 22.9135 39.9314 23.1797C40.6179 23.4459 41.4591 23.5806 42.4565 23.5806C43.6423 23.5806 44.6818 23.4401 45.5761 23.1629C46.4699 22.8825 47.2996 22.479 48.0645 21.9435L46.4978 18.2499C46.1776 18.494 45.8329 18.7044 45.4694 18.8775C45.0962 19.0615 44.6859 19.1574 44.2699 19.1579C43.827 19.1579 43.5439 18.9954 43.4151 18.6703C43.2888 18.3451 43.2246 17.8911 43.2246 17.3109V10.4846H47.3132L45.8087 6.23552H43.2246V1.95067H37.129V6.23552H34.7244V6.23499ZM28.3347 10.5009C28.8108 11.0217 29.0828 11.7372 29.1527 12.6446H23.8589C23.9515 11.7619 24.2598 11.0527 24.7811 10.5177C25.3051 9.98535 25.9132 9.716 26.6108 9.716C27.2836 9.716 27.8581 9.97904 28.3347 10.5009ZM24.8174 18.2694C24.2008 17.7007 23.8705 16.9048 23.8226 15.8815H34.8648C34.8422 12.4684 34.0826 9.94326 32.5833 8.30613C31.0866 6.67005 29.0717 5.85149 26.5408 5.85149C25.3108 5.85149 24.1672 6.04771 23.1108 6.44279C22.0539 6.83787 21.1433 7.41812 20.3752 8.18566C19.6072 8.95109 19.0048 9.88434 18.565 10.9886C18.1221 12.0928 17.9032 13.3506 17.9032 14.7689C17.9032 16.2319 18.1331 17.5129 18.5982 18.6171C19.0638 19.7182 19.6914 20.6372 20.4815 21.3664C21.269 22.1008 22.1912 22.6526 23.2508 23.0224C24.3071 23.3928 25.4366 23.5801 26.6444 23.5801C27.6424 23.5801 28.542 23.4991 29.3432 23.3365C30.1449 23.1739 30.8541 22.9414 31.468 22.6389C32.0507 22.3588 32.6005 22.0147 33.1072 21.6131C33.5838 21.2291 34.0068 20.8056 34.3798 20.3405L30.652 17.4145C30.1838 17.9948 29.6799 18.4267 29.1359 18.7034C28.5893 18.9843 27.9338 19.1216 27.1684 19.1216C26.2162 19.1216 25.4313 18.8386 24.8169 18.2694H24.8174ZM6.84418 19.0716C6.60008 19.0348 6.3481 18.9848 6.09295 18.9117V10.6919C6.37335 10.5993 6.65059 10.5235 6.93098 10.4678C7.22875 10.4073 7.532 10.3781 7.83583 10.3804C8.81116 10.3804 9.61868 10.7282 10.2573 11.4231C10.8939 12.1212 11.2132 13.2002 11.2132 14.6632C11.2132 16.1735 10.8881 17.2946 10.2379 18.0263C9.58764 18.7576 8.74119 19.1216 7.69589 19.1216C7.37078 19.1216 7.08775 19.1048 6.84366 19.0716H6.84418ZM7.57542 5.97248C7.07414 6.04921 6.57879 6.16066 6.09295 6.30601V0H0V22.2212C1.04267 22.6168 2.18056 22.9472 3.41104 23.2139C4.64415 23.4827 6.02562 23.6174 7.55595 23.6174C8.94846 23.6174 10.2321 23.4296 11.4068 23.0598C12.5778 22.6868 13.5953 22.1234 14.4527 21.3669C15.3134 20.6157 15.9805 19.6572 16.4571 18.4945C16.9332 17.334 17.1715 15.9636 17.1715 14.3859C17.1715 13.2002 16.9979 12.0875 16.6475 11.0422C16.3003 9.99692 15.7953 9.09155 15.134 8.32402C14.4727 7.55858 13.6515 6.9536 12.6762 6.51328C11.7009 6.07349 10.5993 5.85201 9.36932 5.85201C8.69385 5.85201 8.09623 5.89094 7.57542 5.97248Z" fill="#0F101A"/>
</svg>
