<svg width="109" height="65" viewBox="0 0 109 65" fill="none" xmlns="http://www.w3.org/2000/svg">
<circle cx="104.933" cy="49.5566" r="3.23341" transform="rotate(-180 104.933 49.5566)" fill="#FF375E" fill-opacity="0.17"/>
<circle cx="104.933" cy="61.1933" r="3.23341" transform="rotate(-180 104.933 61.1933)" fill="#FF375E" fill-opacity="0.17"/>
<circle cx="104.933" cy="38.1738" r="3.23341" transform="rotate(-180 104.933 38.1738)" fill="#FF375E" fill-opacity="0.17"/>
<circle cx="104.933" cy="26.792" r="3.23341" transform="rotate(-180 104.933 26.792)" fill="#FF375E" fill-opacity="0.17"/>
<circle cx="104.933" cy="15.4092" r="3.23341" transform="rotate(-180 104.933 15.4092)" fill="#FF375E" fill-opacity="0.17"/>
<circle cx="104.933" cy="4.02733" r="3.23341" transform="rotate(-180 104.933 4.02733)" fill="#FF375E" fill-opacity="0.17"/>
<circle cx="92.2651" cy="49.5566" r="3.23341" transform="rotate(-180 92.2651 49.5566)" fill="#FF375E" fill-opacity="0.17"/>
<circle cx="92.2651" cy="61.1933" r="3.23341" transform="rotate(-180 92.2651 61.1933)" fill="#FF375E" fill-opacity="0.17"/>
<circle cx="92.2651" cy="38.1738" r="3.23341" transform="rotate(-180 92.2651 38.1738)" fill="#FF375E" fill-opacity="0.17"/>
<circle cx="92.2651" cy="26.792" r="3.23341" transform="rotate(-180 92.2651 26.792)" fill="#FF375E" fill-opacity="0.17"/>
<circle cx="92.2651" cy="15.4092" r="3.23341" transform="rotate(-180 92.2651 15.4092)" fill="#FF375E" fill-opacity="0.17"/>
<circle cx="92.2651" cy="4.02733" r="3.23341" transform="rotate(-180 92.2651 4.02733)" fill="#FF375E" fill-opacity="0.17"/>
<circle cx="79.5972" cy="49.5566" r="3.23341" transform="rotate(-180 79.5972 49.5566)" fill="#FF375E" fill-opacity="0.17"/>
<circle cx="79.5972" cy="61.1933" r="3.23341" transform="rotate(-180 79.5972 61.1933)" fill="#FF375E" fill-opacity="0.17"/>
<circle cx="79.5972" cy="38.1738" r="3.23341" transform="rotate(-180 79.5972 38.1738)" fill="#FF375E" fill-opacity="0.17"/>
<circle cx="79.5972" cy="26.792" r="3.23341" transform="rotate(-180 79.5972 26.792)" fill="#FF375E" fill-opacity="0.17"/>
<circle cx="79.5972" cy="15.4092" r="3.23341" transform="rotate(-180 79.5972 15.4092)" fill="#FF375E" fill-opacity="0.17"/>
<circle cx="79.5972" cy="4.02733" r="3.23341" transform="rotate(-180 79.5972 4.02733)" fill="#FF375E" fill-opacity="0.17"/>
<circle cx="66.9297" cy="49.5566" r="3.23341" transform="rotate(-180 66.9297 49.5566)" fill="#FF375E" fill-opacity="0.17"/>
<circle cx="66.9297" cy="61.1933" r="3.23341" transform="rotate(-180 66.9297 61.1933)" fill="#FF375E" fill-opacity="0.17"/>
<circle cx="66.9297" cy="38.1738" r="3.23341" transform="rotate(-180 66.9297 38.1738)" fill="#FF375E" fill-opacity="0.17"/>
<circle cx="66.9297" cy="26.792" r="3.23341" transform="rotate(-180 66.9297 26.792)" fill="#FF375E" fill-opacity="0.17"/>
<circle cx="66.9297" cy="15.4092" r="3.23341" transform="rotate(-180 66.9297 15.4092)" fill="#FF375E" fill-opacity="0.17"/>
<circle cx="66.9297" cy="4.02733" r="3.23341" transform="rotate(-180 66.9297 4.02733)" fill="#FF375E" fill-opacity="0.17"/>
<circle cx="54.2622" cy="49.5566" r="3.23341" transform="rotate(-180 54.2622 49.5566)" fill="#FF375E" fill-opacity="0.17"/>
<circle cx="54.2622" cy="61.1933" r="3.23341" transform="rotate(-180 54.2622 61.1933)" fill="#FF375E" fill-opacity="0.17"/>
<circle cx="54.2622" cy="38.1738" r="3.23341" transform="rotate(-180 54.2622 38.1738)" fill="#FF375E" fill-opacity="0.17"/>
<circle cx="54.2622" cy="26.792" r="3.23341" transform="rotate(-180 54.2622 26.792)" fill="#FF375E" fill-opacity="0.17"/>
<circle cx="54.2622" cy="15.4092" r="3.23341" transform="rotate(-180 54.2622 15.4092)" fill="#FF375E" fill-opacity="0.17"/>
<circle cx="54.2622" cy="4.02733" r="3.23341" transform="rotate(-180 54.2622 4.02733)" fill="#FF375E" fill-opacity="0.17"/>
<circle cx="41.5947" cy="49.5566" r="3.23341" transform="rotate(-180 41.5947 49.5566)" fill="#FF375E" fill-opacity="0.17"/>
<circle cx="41.5947" cy="61.1933" r="3.23341" transform="rotate(-180 41.5947 61.1933)" fill="#FF375E" fill-opacity="0.17"/>
<circle cx="41.5947" cy="38.1738" r="3.23341" transform="rotate(-180 41.5947 38.1738)" fill="#FF375E" fill-opacity="0.17"/>
<circle cx="41.5947" cy="26.792" r="3.23341" transform="rotate(-180 41.5947 26.792)" fill="#FF375E" fill-opacity="0.17"/>
<circle cx="41.5947" cy="15.4092" r="3.23341" transform="rotate(-180 41.5947 15.4092)" fill="#FF375E" fill-opacity="0.17"/>
<circle cx="41.5947" cy="4.02733" r="3.23341" transform="rotate(-180 41.5947 4.02733)" fill="#FF375E" fill-opacity="0.17"/>
<circle cx="28.9272" cy="49.5566" r="3.23341" transform="rotate(-180 28.9272 49.5566)" fill="#FF375E" fill-opacity="0.17"/>
<circle cx="28.9272" cy="61.1933" r="3.23341" transform="rotate(-180 28.9272 61.1933)" fill="#FF375E" fill-opacity="0.17"/>
<circle cx="28.9272" cy="38.1738" r="3.23341" transform="rotate(-180 28.9272 38.1738)" fill="#FF375E" fill-opacity="0.17"/>
<circle cx="28.9272" cy="26.792" r="3.23341" transform="rotate(-180 28.9272 26.792)" fill="#FF375E" fill-opacity="0.17"/>
<circle cx="28.9272" cy="15.4092" r="3.23341" transform="rotate(-180 28.9272 15.4092)" fill="#FF375E" fill-opacity="0.17"/>
<circle cx="28.9272" cy="4.02733" r="3.23341" transform="rotate(-180 28.9272 4.02733)" fill="#FF375E" fill-opacity="0.17"/>
<circle cx="16.2593" cy="49.5566" r="3.23341" transform="rotate(-180 16.2593 49.5566)" fill="#FF375E" fill-opacity="0.17"/>
<circle cx="16.2593" cy="61.1933" r="3.23341" transform="rotate(-180 16.2593 61.1933)" fill="#FF375E" fill-opacity="0.17"/>
<circle cx="16.2593" cy="38.1738" r="3.23341" transform="rotate(-180 16.2593 38.1738)" fill="#FF375E" fill-opacity="0.17"/>
<circle cx="16.2593" cy="26.792" r="3.23341" transform="rotate(-180 16.2593 26.792)" fill="#FF375E" fill-opacity="0.17"/>
<circle cx="16.2593" cy="15.4092" r="3.23341" transform="rotate(-180 16.2593 15.4092)" fill="#FF375E" fill-opacity="0.17"/>
<circle cx="16.2593" cy="4.02733" r="3.23341" transform="rotate(-180 16.2593 4.02733)" fill="#FF375E" fill-opacity="0.17"/>
<circle cx="3.59178" cy="49.5566" r="3.23341" transform="rotate(-180 3.59178 49.5566)" fill="#FF375E" fill-opacity="0.17"/>
<circle cx="3.59178" cy="61.1933" r="3.23341" transform="rotate(-180 3.59178 61.1933)" fill="#FF375E" fill-opacity="0.17"/>
<circle cx="3.59178" cy="38.1738" r="3.23341" transform="rotate(-180 3.59178 38.1738)" fill="#FF375E" fill-opacity="0.17"/>
<circle cx="3.59178" cy="26.792" r="3.23341" transform="rotate(-180 3.59178 26.792)" fill="#FF375E" fill-opacity="0.17"/>
<circle cx="3.59178" cy="15.4092" r="3.23341" transform="rotate(-180 3.59178 15.4092)" fill="#FF375E" fill-opacity="0.17"/>
<circle cx="3.59178" cy="4.02733" r="3.23341" transform="rotate(-180 3.59178 4.02733)" fill="#FF375E" fill-opacity="0.17"/>
</svg>
