<svg width="790" height="163" viewBox="0 0 790 163" fill="none" xmlns="http://www.w3.org/2000/svg">
<path d="M24.74 10.14L84.97 139.91L144.25 10.14H166.86C165.087 11.4067 163.693 12.99 162.68 14.89C161.793 16.6633 161.097 18.6267 160.59 20.78C160.21 22.9333 159.957 25.15 159.83 27.43C159.83 29.5833 159.83 31.61 159.83 33.51V137.25C159.83 148.143 161.287 155.11 164.2 158.15C164.58 158.53 164.96 158.973 165.34 159.48C165.847 159.86 166.29 160.177 166.67 160.43H138.74C140.26 159.29 141.463 158.023 142.35 156.63C143.49 154.983 144.313 152.64 144.82 149.6C145.453 146.433 145.77 142.317 145.77 137.25V12.04L78.32 158.91L10.87 12.23L11.25 137.25C11.25 148.143 12.58 155.11 15.24 158.15C15.7467 158.53 16.19 158.973 16.57 159.48C16.95 159.86 17.3933 160.177 17.9 160.43H2.13C2.76333 159.797 3.39667 159.227 4.03 158.72C4.66333 158.087 5.23333 157.39 5.74 156.63C7.00667 154.983 7.83 152.64 8.21 149.6C8.71667 146.433 8.97 142.317 8.97 137.25V33.51C8.97 28.6967 8.59 24.39 7.83 20.59C7.07 16.6633 4.66333 13.18 0.61 10.14H24.74ZM175.974 110.65C175.974 103.683 176.861 96.9067 178.634 90.32C180.407 83.7333 183.131 77.9067 186.804 72.84C190.477 67.7733 195.101 63.72 200.674 60.68C206.374 57.64 213.024 56.12 220.624 56.12C225.944 56.12 230.821 57.0067 235.254 58.78C239.814 60.5533 243.741 63.0233 247.034 66.19C250.327 69.23 252.924 72.9667 254.824 77.4C256.851 81.8333 257.991 86.71 258.244 92.03C250.897 92.03 243.487 92.03 236.014 92.03C228.541 91.9033 221.194 92.5367 213.974 93.93C203.081 96.0833 195.861 99.82 192.314 105.14C190.794 107.547 189.844 110.143 189.464 112.93C189.084 115.717 189.147 118.503 189.654 121.29C190.161 123.95 191.047 126.61 192.314 129.27C193.707 131.803 195.227 134.083 196.874 136.11C205.361 146.117 215.621 151.12 227.654 151.12C235.381 151.12 241.271 149.663 245.324 146.75C249.504 143.71 252.671 138.643 254.824 131.55C254.824 131.043 255.141 130.917 255.774 131.17C256.281 131.17 256.407 131.423 256.154 131.93C254.887 136.11 253.051 140.037 250.644 143.71C248.364 147.383 245.577 150.55 242.284 153.21C238.991 155.87 235.317 158.023 231.264 159.67C227.337 161.19 223.157 161.95 218.724 161.95C207.071 161.95 197.064 157.453 188.704 148.46C180.217 138.96 175.974 126.357 175.974 110.65ZM188.134 121.48C187.881 120.467 187.691 119.517 187.564 118.63C187.564 117.743 187.564 116.793 187.564 115.78C187.564 111.6 188.514 108.053 190.414 105.14C192.314 102.227 194.784 99.8833 197.824 98.11C200.864 96.21 204.347 94.7533 208.274 93.74C212.201 92.7267 216.191 91.9667 220.244 91.46C224.297 90.9533 228.224 90.7 232.024 90.7C235.951 90.5733 239.371 90.51 242.284 90.51V88.99C242.031 85.3167 241.714 82.15 241.334 79.49C241.081 76.83 240.574 74.6767 239.814 73.03C237.407 67.71 234.241 63.8467 230.314 61.44C226.387 59.0333 222.144 57.83 217.584 57.83C214.671 57.83 211.694 58.2733 208.654 59.16C205.741 60.0467 202.827 61.3133 199.914 62.96C195.354 65.3667 191.744 68.7233 189.084 73.03C186.551 77.3367 184.841 82.15 183.954 87.47C183.067 92.6633 183.004 98.2367 183.764 104.19C184.524 110.017 185.981 115.78 188.134 121.48ZM266.145 113.69C266.145 98.9967 270.769 85.8233 280.015 74.17C283.309 69.4833 287.552 65.43 292.745 62.01C297.939 58.59 303.449 56.5633 309.275 55.93C313.075 55.55 316.432 55.74 319.345 56.5C322.385 57.1333 325.109 58.1467 327.515 59.54C330.049 60.9333 332.392 62.6433 334.545 64.67C336.825 66.6967 339.169 68.9133 341.575 71.32V41.49C341.575 37.31 341.512 33.8267 341.385 31.04C341.385 28.2533 341.322 25.9733 341.195 24.2C341.069 22.4267 340.942 21.0967 340.815 20.21C340.689 19.3233 340.562 18.6267 340.435 18.12C340.182 16.0933 339.675 14.4467 338.915 13.18C338.282 11.9133 337.459 10.8367 336.445 9.95C335.179 9.06333 334.165 8.49333 333.405 8.24L352.025 0.449995H352.595V120.34C352.595 124.647 352.595 128.257 352.595 131.17C352.722 133.957 352.785 136.3 352.785 138.2C352.912 139.973 352.975 141.303 352.975 142.19C353.102 143.077 353.229 143.773 353.355 144.28C354.369 148.08 355.825 150.74 357.725 152.26C358.359 153.02 359.372 153.653 360.765 154.16L341.955 161.95H341.575V138.96C338.789 146.687 334.292 152.45 328.085 156.25C321.879 159.923 315.165 161.76 307.945 161.76C301.232 161.76 295.279 160.43 290.085 157.77C284.892 155.11 280.522 151.563 276.975 147.13C273.429 142.697 270.705 137.567 268.805 131.74C267.032 125.913 266.145 119.897 266.145 113.69ZM290.465 143.52C294.139 147.953 298.129 151.183 302.435 153.21C306.742 155.237 310.985 156.25 315.165 156.25C318.459 156.25 321.562 155.68 324.475 154.54C327.515 153.4 330.239 151.817 332.645 149.79C335.052 147.637 337.015 145.103 338.535 142.19C340.182 139.15 341.195 135.857 341.575 132.31V87.09C341.195 84.1767 340.625 81.39 339.865 78.73C339.232 76.07 338.219 73.4733 336.825 70.94C334.165 65.7467 330.365 62.1367 325.425 60.11C320.485 57.9567 315.165 57.07 309.465 57.45C303.639 57.9567 298.762 59.7933 294.835 62.96C291.035 66 287.932 69.8 285.525 74.36C283.245 78.7933 281.599 83.67 280.585 88.99C279.699 94.31 279.255 99.44 279.255 104.38C279.255 112.74 280.205 120.213 282.105 126.8C284.005 133.26 286.792 138.833 290.465 143.52ZM396.126 10.33C399.546 10.33 402.713 10.9633 405.626 12.23C408.54 13.4967 411.073 15.27 413.226 17.55C415.506 19.7033 417.28 22.2367 418.546 25.15C419.813 28.0633 420.446 31.23 420.446 34.65V57.45H430.326C430.96 57.45 431.276 57.7033 431.276 58.21C431.276 58.7167 430.96 58.97 430.326 58.97H420.446V132.88C420.446 135.413 420.636 138.01 421.016 140.67C421.396 143.203 422.093 145.547 423.106 147.7C424.246 149.727 425.766 151.437 427.666 152.83C429.693 154.097 432.29 154.73 435.456 154.73C437.23 154.73 438.813 154.477 440.206 153.97C439.953 154.223 439.7 154.413 439.446 154.54C439.32 154.667 439.13 154.793 438.876 154.92C434.696 158.213 430.39 159.86 425.956 159.86C422.283 159.86 419.37 159.163 417.216 157.77C415.063 156.25 413.416 154.35 412.276 152.07C411.136 149.79 410.376 147.193 409.996 144.28C409.743 141.367 409.616 138.39 409.616 135.35V59.16H397.456C397.583 59.16 397.583 58.8433 397.456 58.21C397.456 57.5767 397.52 57.26 397.646 57.26C400.56 57.26 403.283 56.6267 405.816 55.36C408.35 54.0933 410.566 52.4467 412.466 50.42C414.493 48.2667 416.076 45.86 417.216 43.2C418.356 40.4133 418.926 37.5633 418.926 34.65C418.926 31.4833 418.293 28.5067 417.026 25.72C415.886 22.9333 414.24 20.5267 412.086 18.5C410.06 16.3467 407.653 14.7 404.866 13.56C402.206 12.2933 399.293 11.66 396.126 11.66C392.96 11.66 390.046 12.23 387.386 13.37C384.853 14.51 382.636 16.0933 380.736 18.12C379.216 19.64 378.773 21.2233 379.406 22.87C380.166 24.5167 381.18 26.29 382.446 28.19C383.84 29.9633 385.043 31.8633 386.056 33.89C387.07 35.79 387.196 37.69 386.436 39.59C385.93 40.9833 385.043 42.1233 383.776 43.01C382.636 43.8967 381.18 44.34 379.406 44.34C377.253 44.34 375.48 43.58 374.086 42.06C372.693 40.54 371.87 38.7033 371.616 36.55C371.236 32.8767 371.68 29.4567 372.946 26.29C374.213 23.1233 375.986 20.4 378.266 18.12C380.546 15.7133 383.206 13.8133 386.246 12.42C389.413 11.0267 392.706 10.33 396.126 10.33ZM386.246 56.12H386.436V138.2C386.436 143.013 386.626 146.497 387.006 148.65C387.513 150.803 387.893 152.323 388.146 153.21C389.16 155.237 390.3 156.883 391.566 158.15H370.096C372.63 155.617 374.086 152.513 374.466 148.84C374.973 145.04 375.226 141.493 375.226 138.2V96.78C375.226 90.7 375.1 85.76 374.846 81.96C374.72 78.0333 374.53 75.1833 374.276 73.41C373.263 69.7367 371.87 67.2033 370.096 65.81C369.463 64.9233 368.386 64.29 366.866 63.91L386.246 56.12ZM444.076 137.44C444.076 132.627 445.469 128.32 448.256 124.52C451.169 120.593 454.653 117.11 458.706 114.07C462.886 110.903 467.319 108.18 472.006 105.9C476.693 103.62 480.873 101.657 484.546 100.01C487.333 98.87 489.929 97.73 492.336 96.59C494.743 95.45 496.959 94.1833 498.986 92.79C500.379 91.7767 501.519 90.2567 502.406 88.23C503.419 86.2033 503.863 84.24 503.736 82.34C503.609 78.92 503.166 75.69 502.406 72.65C501.773 69.61 500.696 66.95 499.176 64.67C497.656 62.39 495.566 60.6167 492.906 59.35C490.246 57.9567 486.889 57.26 482.836 57.26C480.303 57.26 477.643 57.5133 474.856 58.02C472.196 58.5267 469.726 59.4133 467.446 60.68C465.166 61.82 463.266 63.4033 461.746 65.43C460.226 67.33 459.466 69.8 459.466 72.84L459.656 79.68C459.656 81.58 459.213 83.2267 458.326 84.62C457.439 85.8867 455.919 86.52 453.766 86.52C451.739 86.52 450.283 85.8233 449.396 84.43C448.636 82.91 448.256 81.2633 448.256 79.49C448.256 75.69 449.269 72.3333 451.296 69.42C453.449 66.5067 456.173 64.0367 459.466 62.01C462.886 59.9833 466.623 58.4633 470.676 57.45C474.856 56.31 478.909 55.74 482.836 55.74C485.876 55.74 488.916 55.9933 491.956 56.5C495.123 56.88 498.036 57.64 500.696 58.78C503.356 59.7933 505.763 61.25 507.916 63.15C510.069 64.9233 511.779 67.2667 513.046 70.18C513.299 70.94 513.679 72.7133 514.186 75.5C514.693 78.16 514.946 82.72 514.946 89.18V125.47C514.946 129.017 514.946 131.993 514.946 134.4C514.946 136.68 514.946 138.58 514.946 140.1C515.073 141.493 515.136 142.633 515.136 143.52C515.263 144.28 515.389 144.85 515.516 145.23C516.023 147.763 516.909 149.917 518.176 151.69C519.569 153.463 521.723 154.35 524.636 154.35H525.776C523.623 156.377 521.216 158.023 518.556 159.29C516.023 160.557 513.236 161.19 510.196 161.19C508.169 161.19 506.333 160.81 504.686 160.05C503.039 159.29 501.393 158.467 499.746 157.58C497.339 156.313 495.186 155.427 493.286 154.92C491.513 154.413 489.929 154.16 488.536 154.16C486.509 154.16 484.673 154.54 483.026 155.3C481.506 155.933 479.923 156.693 478.276 157.58C476.629 158.34 474.793 159.1 472.766 159.86C470.739 160.493 468.269 160.81 465.356 160.81C458.389 160.81 453.069 158.593 449.396 154.16C445.849 149.727 444.076 144.153 444.076 137.44ZM461.556 148.84C463.456 150.867 465.546 152.513 467.826 153.78C470.106 154.92 472.513 155.49 475.046 155.49C476.946 155.49 478.846 155.11 480.746 154.35C482.266 153.717 483.659 153.273 484.926 153.02C486.319 152.767 487.586 152.64 488.726 152.64C491.006 152.64 493.096 153.02 494.996 153.78C496.896 154.54 498.733 155.427 500.506 156.44C501.519 157.073 502.596 157.643 503.736 158.15C505.003 158.657 506.206 159.037 507.346 159.29C507.093 159.163 506.903 159.037 506.776 158.91C506.776 158.783 506.649 158.593 506.396 158.34C505.763 157.707 505.193 156.567 504.686 154.92C504.179 153.147 503.863 150.613 503.736 147.32V90.89C501.456 93.17 498.733 95.1333 495.566 96.78C492.399 98.3 488.979 99.8833 485.306 101.53C480.619 103.43 475.806 106.027 470.866 109.32C466.053 112.487 462.126 116.097 459.086 120.15C456.173 124.203 454.653 128.7 454.526 133.64C454.399 138.453 456.743 143.52 461.556 148.84ZM520.891 59.73C521.904 58.97 523.044 58.1467 524.311 57.26C525.451 56.3733 526.528 55.36 527.541 54.22C532.354 50.04 536.598 44.91 540.271 38.83C540.904 38.07 541.474 37.12 541.981 35.98C542.488 34.7133 543.058 33.3833 543.691 31.99V57.83H553.951C554.331 57.83 554.521 58.1467 554.521 58.78C554.521 59.16 554.331 59.35 553.951 59.35H543.691V133.26C543.691 135.667 543.881 138.2 544.261 140.86C544.641 143.393 545.401 145.737 546.541 147.89C547.681 150.043 549.201 151.817 551.101 153.21C553.001 154.603 555.471 155.3 558.511 155.3C559.524 155.3 560.348 155.237 560.981 155.11C561.741 154.983 562.628 154.73 563.641 154.35C563.008 154.983 562.564 155.363 562.311 155.49C558.131 158.783 553.824 160.43 549.391 160.43C545.844 160.43 542.931 159.733 540.651 158.34C538.498 156.82 536.788 154.92 535.521 152.64C534.381 150.36 533.621 147.763 533.241 144.85C532.861 141.937 532.671 138.96 532.671 135.92V59.73H520.891ZM566.144 64.48L585.524 56.69H585.714V138.77C585.714 143.583 585.904 147.067 586.284 149.22C586.79 151.373 587.17 152.893 587.424 153.78C588.437 155.68 589.704 157.327 591.224 158.72H569.374C571.907 156.187 573.364 153.083 573.744 149.41C574.25 145.61 574.504 142.063 574.504 138.77V97.35C574.504 91.27 574.44 86.33 574.314 82.53C574.187 78.6033 573.934 75.69 573.554 73.79C572.92 71.6367 572.097 69.7367 571.084 68.09C570.07 66.3167 568.424 65.1133 566.144 64.48ZM570.894 37.12C570.894 34.84 571.654 33.0033 573.174 31.61C574.694 30.09 576.53 29.33 578.684 29.33C580.837 29.33 582.674 30.09 584.194 31.61C585.714 33.13 586.474 34.9667 586.474 37.12C586.474 39.2733 585.714 41.11 584.194 42.63C582.674 44.0233 580.837 44.72 578.684 44.72C576.53 44.72 574.694 44.0233 573.174 42.63C571.654 41.11 570.894 39.2733 570.894 37.12ZM599.754 110.27C599.754 103.43 600.894 96.78 603.174 90.32C605.581 83.7333 608.874 77.9067 613.054 72.84C617.361 67.7733 622.491 63.72 628.444 60.68C634.398 57.5133 640.984 55.93 648.204 55.93C654.918 55.93 661.124 57.3867 666.824 60.3C672.524 63.0867 677.464 66.8867 681.644 71.7C685.824 76.3867 689.054 81.8333 691.334 88.04C693.741 94.12 694.944 100.517 694.944 107.23C694.944 114.197 693.804 121.037 691.524 127.75C689.244 134.337 685.951 140.227 681.644 145.42C677.464 150.613 672.334 154.793 666.254 157.96C660.301 161 653.651 162.52 646.304 162.52C639.591 162.52 633.384 161.127 627.684 158.34C621.984 155.427 617.044 151.563 612.864 146.75C608.811 141.81 605.581 136.237 603.174 130.03C600.894 123.697 599.754 117.11 599.754 110.27ZM648.774 160.62C651.561 160.62 654.854 160.113 658.654 159.1C663.974 157.707 668.154 155.617 671.194 152.83C674.234 150.043 676.514 146.813 678.034 143.14C679.554 139.34 680.504 135.16 680.884 130.6C681.264 126.04 681.454 121.29 681.454 116.35C681.454 110.523 680.884 104.19 679.744 97.35C678.731 90.51 676.894 84.1767 674.234 78.35C671.574 72.3967 668.028 67.4567 663.594 63.53C659.161 59.6033 653.524 57.64 646.684 57.64C645.671 57.64 644.531 57.7033 643.264 57.83C642.124 57.9567 640.921 58.1467 639.654 58.4C633.954 59.54 629.331 61.44 625.784 64.1C622.364 66.6333 619.704 69.8 617.804 73.6C615.904 77.2733 614.638 81.39 614.004 85.95C613.371 90.51 613.054 95.3233 613.054 100.39C613.054 106.217 613.624 112.613 614.764 119.58C616.031 126.547 618.058 133.07 620.844 139.15C623.631 145.23 627.304 150.36 631.864 154.54C636.424 158.593 642.061 160.62 648.774 160.62ZM720.416 56.69H720.606V92.41C721.239 90.2567 721.999 88.1033 722.886 85.95C723.773 83.67 724.849 81.4533 726.116 79.3C727.889 76.26 730.043 73.3467 732.576 70.56C735.236 67.7733 738.149 65.3667 741.316 63.34C744.483 61.1867 747.713 59.54 751.006 58.4C754.426 57.1333 757.783 56.5 761.076 56.5C765.509 56.5 769.563 57.7667 773.236 60.3C776.909 62.8333 779.823 67.0133 781.976 72.84C782.736 74.8667 783.306 77.59 783.686 81.01C784.066 84.43 784.256 88.3567 784.256 92.79V138.77C784.256 146.243 784.953 151.373 786.346 154.16C786.853 155.807 787.929 157.327 789.576 158.72H768.106C770.259 156.82 771.716 154.16 772.476 150.74C772.729 150.107 772.919 149.03 773.046 147.51C773.173 145.99 773.236 143.077 773.236 138.77V94.69C773.236 91.5233 772.983 88.04 772.476 84.24C772.096 80.44 771.209 76.9567 769.816 73.79C768.549 70.4967 766.649 67.7733 764.116 65.62C761.583 63.4667 758.226 62.39 754.046 62.39C748.979 62.39 743.976 64.1 739.036 67.52C734.096 70.94 730.169 75.12 727.256 80.06C725.483 82.9733 724.089 86.0767 723.076 89.37C722.063 92.5367 721.239 95.5767 720.606 98.49V138.77C720.606 143.963 720.796 147.573 721.176 149.6C721.556 151.627 721.936 153.083 722.316 153.97C723.329 155.997 724.469 157.58 725.736 158.72H704.266C706.799 156.187 708.256 153.083 708.636 149.41C709.143 145.737 709.396 142.19 709.396 138.77V98.87C709.396 94.4367 709.333 90.7633 709.206 87.85C709.206 84.9367 709.143 82.5933 709.016 80.82C709.016 79.0467 708.953 77.7167 708.826 76.83C708.826 75.8167 708.763 75.0567 708.636 74.55C707.749 70.75 706.356 68.0267 704.456 66.38C703.569 65.4933 702.429 64.86 701.036 64.48L720.416 56.69Z" fill="#121314"/>
</svg>
