<svg width="46" height="54" viewBox="0 0 46 54" fill="none" xmlns="http://www.w3.org/2000/svg">
<path d="M0 19.6333C12.8571 18.1133 17.7857 5.91111 18.6429 0C19.6714 13.68 30.6429 18.7889 36 19.6333C20.8094 20.631 18.0824 31.9431 18.6154 37.7321C18.6249 37.821 18.634 37.9103 18.6429 38C18.6329 37.9121 18.6238 37.8228 18.6154 37.7321C16.9685 22.2582 5.5396 19.2135 0 19.6333Z" fill="#FF58AA" fill-opacity="0.81"/>
<path d="M30 46.2667C35.7143 45.6267 37.9048 40.4889 38.2857 38C38.7429 43.76 43.619 45.9111 46 46.2667C39.2486 46.6868 38.0366 51.4498 38.2735 53.8873C38.2777 53.9247 38.2818 53.9622 38.2857 54C38.2813 53.963 38.2772 53.9254 38.2735 53.8873C37.5416 47.3719 32.4621 46.0899 30 46.2667Z" fill="#FEDF75"/>
</svg>
